<svg width="166" height="166" viewBox="0 0 166 166" fill="none" xmlns="http://www.w3.org/2000/svg">
<g filter="url(#filter0_d_300_574)">
<circle cx="83" cy="79" r="55" fill="white" fill-opacity="0.64" shape-rendering="crispEdges"/>
</g>
<g filter="url(#filter1_d_300_574)">
<circle cx="83" cy="79" r="46" fill="white"/>
</g>
<g clip-path="url(#clip0_300_574)">
<path d="M61.2696 69.7169L61.7541 61.4382L68.5232 65.2939L71.667 58.7766L77.6128 62.9515L83 51.8828L87.7723 63.3721L94.8032 58.7607L97.2273 65.8157L105.721 63.8573L104.4 71.2705L113 77.1691L105.314 81.3914L105.881 89.8778L96.6389 88.4473L97.9602 106.335L88.661 89.8778L83.443 94.4378L78.2918 89.7572L70.0164 96.2731L65.2754 86.7968L55.4145 87.5841L59.5795 78.4388L53 71.7693L61.2696 69.7169Z" fill="#FFC250"/>
<path d="M112.999 77.1712L104.399 71.2727L105.721 63.8594L100.685 65.0205L99.5703 71.2727L108.17 77.1712L100.485 81.3936L101.001 89.1247L105.88 89.8799L105.314 81.3936L112.999 77.1712Z" fill="#EBB044"/>
<path d="M91.7393 87.7383L92.4046 96.5048L97.9598 106.336L96.6385 88.4483L91.7393 87.7383Z" fill="#EBB044"/>
<path d="M80.9263 72.332C80.9219 72.332 80.9175 72.332 80.913 72.3321C80.413 72.3392 80.0135 72.7504 80.0206 73.2504L80.0878 77.9445L76.4588 72.7562C76.2318 72.4316 75.8202 72.2924 75.4429 72.4122C75.0655 72.5321 74.8098 72.8833 74.8115 73.2793L74.8461 80.777C74.8484 81.2758 75.2533 81.6783 75.7514 81.6783H75.7556C76.2558 81.676 76.6591 81.2687 76.6569 80.7687L76.6357 76.1683L80.0936 81.1121C80.3634 81.4968 80.8098 81.6582 81.2306 81.5246C81.6607 81.3878 81.9372 80.9822 81.935 80.4825L81.8312 73.2242C81.8243 72.7288 81.4203 72.332 80.9263 72.332Z" fill="white"/>
<path d="M72.427 72.375H72.4228C71.9226 72.3773 71.5193 72.7846 71.5215 73.2846L71.5561 80.7964C71.5584 81.2952 71.9633 81.6977 72.4613 81.6977H72.4656C72.9657 81.6954 73.3691 81.2882 73.3668 80.7881L73.3323 73.2763C73.3299 72.7775 72.925 72.375 72.427 72.375Z" fill="white"/>
<path d="M69.3056 76.4825C69.5893 76.0532 69.7404 75.5502 69.738 75.0242V75.0241C69.7312 73.5759 68.5486 72.4023 67.0991 72.4023H67.0868L64.8984 72.4124C64.6583 72.4135 64.4283 72.51 64.2593 72.6805C64.0902 72.8512 63.996 73.0819 63.9971 73.322L64.013 76.7866V76.7886L64.0318 80.8339C64.0329 81.0746 64.1299 81.3051 64.3014 81.4742C64.4709 81.6415 64.6993 81.735 64.9373 81.735H64.9454C64.9456 81.735 66.9572 81.7169 67.512 81.7144C68.2949 81.7108 69.0299 81.4032 69.5813 80.8484C70.1334 80.2928 70.4355 79.5559 70.4318 78.7735C70.4275 77.8437 69.9871 77.0159 69.3056 76.4825ZM67.0952 74.2132H67.099C67.5538 74.2132 67.925 74.58 67.9271 75.0326C67.928 75.2519 67.8433 75.4586 67.6881 75.6147C67.5324 75.7714 67.3244 75.8583 67.1027 75.8594C66.8599 75.8607 66.1687 75.8665 65.8196 75.8673L65.8121 74.2192L67.0952 74.2132ZM68.2967 79.5719C68.0855 79.7843 67.8039 79.9021 67.5037 79.9035C67.1977 79.9049 66.4497 79.9109 65.8383 79.9163L65.8279 77.6705H67.4986C68.1152 77.6705 68.618 78.1679 68.6208 78.7819C68.6224 79.0796 68.5072 79.3602 68.2967 79.5719Z" fill="white"/>
<path d="M90.8008 76.0375H90.7966L88.5429 76.0479C88.0427 76.0503 87.6393 76.4575 87.6416 76.9575C87.6439 77.4563 88.0488 77.8588 88.5468 77.8588H88.5511L89.8024 77.8531C89.7007 78.3135 89.5172 78.718 89.2622 79.0347C88.851 79.5448 88.2791 79.8052 87.562 79.8085H87.5485C85.9768 79.8085 84.6943 78.5384 84.687 76.9713C84.6835 76.2104 84.9776 75.4934 85.5149 74.9527C86.0531 74.4113 86.7705 74.1112 87.5354 74.1077H87.5488C88.1178 74.1077 88.6672 74.2734 89.1382 74.5874C89.5542 74.8648 90.1163 74.7523 90.3937 74.3363C90.6711 73.9203 90.5586 73.3581 90.1426 73.0807C89.367 72.5637 88.464 72.2975 87.5271 72.2969C86.2795 72.3026 85.1087 72.7925 84.2304 73.6764C83.3512 74.5609 82.8702 75.7341 82.876 76.9797C82.8879 79.5427 84.9817 81.6197 87.5482 81.6196H87.57C88.8221 81.614 89.9238 81.0995 90.6718 80.1713C91.3443 79.3368 91.7116 78.1891 91.7059 76.9394C91.7039 76.4402 91.299 76.0375 90.8008 76.0375Z" fill="white"/>
<path d="M97.3301 72.2461H97.3083C96.0608 72.2518 94.8899 72.7417 94.0116 73.6256C93.1325 74.5102 92.6514 75.6832 92.6573 76.9288C92.6691 79.4919 94.7629 81.5688 97.3293 81.5688H97.3511C98.5987 81.5631 99.7695 81.0732 100.648 80.1893C101.527 79.3048 102.008 78.1316 102.002 76.886C101.99 74.323 99.8965 72.2461 97.3301 72.2461ZM99.3635 78.9129C98.8252 79.4543 98.1078 79.7544 97.3429 79.7579H97.3294C95.7578 79.7579 94.4753 78.4879 94.4682 76.9206C94.4647 76.1597 94.7587 75.4429 95.296 74.9021C95.8342 74.3606 96.5517 74.0606 97.3165 74.0571H97.33C98.9016 74.0571 100.184 75.3272 100.191 76.8943C100.195 77.6551 99.9008 78.3721 99.3635 78.9129Z" fill="white"/>
<path d="M63.5621 53.4789C64.7273 53.4789 64.7293 51.668 63.5621 51.668C62.3969 51.668 62.395 53.4789 63.5621 53.4789Z" fill="#BEDDF3"/>
<path d="M75.7174 56.1703C76.8826 56.1703 76.8846 54.3594 75.7174 54.3594C74.5522 54.3595 74.5502 56.1703 75.7174 56.1703Z" fill="#E28086"/>
<path d="M56.32 66.2757C57.4852 66.2757 57.4871 64.4648 56.32 64.4648C55.1548 64.465 55.1528 66.2757 56.32 66.2757Z" fill="#E28086"/>
<path d="M95.0152 54.2718C96.1804 54.2718 96.1824 52.4609 95.0152 52.4609C93.85 52.4609 93.8482 54.2718 95.0152 54.2718Z" fill="#FFC250"/>
<path d="M110.589 70.0257C111.754 70.0257 111.756 68.2148 110.589 68.2148C109.423 68.2148 109.421 70.0257 110.589 70.0257Z" fill="#BEDDF3"/>
<path d="M87.7721 97.9125C88.9373 97.9125 88.9392 96.1016 87.7721 96.1016C86.6069 96.1016 86.605 97.9125 87.7721 97.9125Z" fill="#E28086"/>
<path d="M77.4508 102.256C78.616 102.256 78.618 100.445 77.4508 100.445C76.2856 100.445 76.2837 102.256 77.4508 102.256Z" fill="#FFC250"/>
<path d="M61.8786 93.9281C63.0438 93.9281 63.0458 92.1172 61.8786 92.1172C60.7133 92.1173 60.7114 93.9281 61.8786 93.9281Z" fill="#BEDDF3"/>
</g>
<defs>
<filter id="filter0_d_300_574" x="0" y="0" width="166" height="166" filterUnits="userSpaceOnUse" color-interpolation-filters="sRGB">
<feFlood flood-opacity="0" result="BackgroundImageFix"/>
<feColorMatrix in="SourceAlpha" type="matrix" values="0 0 0 0 0 0 0 0 0 0 0 0 0 0 0 0 0 0 127 0" result="hardAlpha"/>
<feOffset dy="4"/>
<feGaussianBlur stdDeviation="14"/>
<feComposite in2="hardAlpha" operator="out"/>
<feColorMatrix type="matrix" values="0 0 0 0 0.104167 0 0 0 0 0.066116 0 0 0 0 0.030816 0 0 0 0.06 0"/>
<feBlend mode="normal" in2="BackgroundImageFix" result="effect1_dropShadow_300_574"/>
<feBlend mode="normal" in="SourceGraphic" in2="effect1_dropShadow_300_574" result="shape"/>
</filter>
<filter id="filter1_d_300_574" x="9" y="9" width="148" height="148" filterUnits="userSpaceOnUse" color-interpolation-filters="sRGB">
<feFlood flood-opacity="0" result="BackgroundImageFix"/>
<feColorMatrix in="SourceAlpha" type="matrix" values="0 0 0 0 0 0 0 0 0 0 0 0 0 0 0 0 0 0 127 0" result="hardAlpha"/>
<feOffset dy="4"/>
<feGaussianBlur stdDeviation="14"/>
<feComposite in2="hardAlpha" operator="out"/>
<feColorMatrix type="matrix" values="0 0 0 0 0.104167 0 0 0 0 0.066116 0 0 0 0 0.030816 0 0 0 0.06 0"/>
<feBlend mode="normal" in2="BackgroundImageFix" result="effect1_dropShadow_300_574"/>
<feBlend mode="normal" in="SourceGraphic" in2="effect1_dropShadow_300_574" result="shape"/>
</filter>
<clipPath id="clip0_300_574">
<rect width="60" height="60" fill="white" transform="translate(53 49)"/>
</clipPath>
</defs>
</svg>
