<svg width="348" height="322" viewBox="0 0 348 322" fill="none" xmlns="http://www.w3.org/2000/svg">
<g filter="url(#filter0_d_300_1229)">
<rect x="18" y="18" width="312" height="286" rx="16" fill="white" shape-rendering="crispEdges"/>
<path d="M39.0076 273V266H40.0076V272.13H43.7976V273H39.0076ZM44.8051 273V267.7H45.7651V273H44.8051ZM45.2851 266.68C45.0984 266.68 44.9417 266.62 44.8151 266.5C44.6951 266.38 44.6351 266.233 44.6351 266.06C44.6351 265.88 44.6951 265.73 44.8151 265.61C44.9417 265.49 45.0984 265.43 45.2851 265.43C45.4717 265.43 45.6251 265.49 45.7451 265.61C45.8717 265.723 45.9351 265.867 45.9351 266.04C45.9351 266.22 45.8751 266.373 45.7551 266.5C45.6351 266.62 45.4784 266.68 45.2851 266.68ZM49.7881 273.06C49.2747 273.06 48.8147 272.947 48.4081 272.72C48.0081 272.493 47.6914 272.177 47.4581 271.77C47.2247 271.363 47.1081 270.89 47.1081 270.35C47.1081 269.81 47.2247 269.34 47.4581 268.94C47.6914 268.533 48.0081 268.217 48.4081 267.99C48.8147 267.763 49.2747 267.65 49.7881 267.65C50.2481 267.65 50.6581 267.75 51.0181 267.95C51.3781 268.15 51.6614 268.45 51.8681 268.85C52.0814 269.25 52.1881 269.75 52.1881 270.35C52.1881 270.95 52.0781 271.45 51.8581 271.85C51.6447 272.25 51.3581 272.553 50.9981 272.76C50.6381 272.96 50.2347 273.06 49.7881 273.06ZM49.8681 272.22C50.2014 272.22 50.5014 272.143 50.7681 271.99C51.0414 271.837 51.2547 271.62 51.4081 271.34C51.5681 271.053 51.6481 270.723 51.6481 270.35C51.6481 269.97 51.5681 269.643 51.4081 269.37C51.2547 269.09 51.0414 268.873 50.7681 268.72C50.5014 268.567 50.2014 268.49 49.8681 268.49C49.5281 268.49 49.2247 268.567 48.9581 268.72C48.6914 268.873 48.4781 269.09 48.3181 269.37C48.1581 269.643 48.0781 269.97 48.0781 270.35C48.0781 270.723 48.1581 271.053 48.3181 271.34C48.4781 271.62 48.6914 271.837 48.9581 271.99C49.2247 272.143 49.5281 272.22 49.8681 272.22ZM51.6381 274.94V271.59L51.7381 270.36L51.6781 269.13V267.7H52.5981V274.94H51.6381ZM56.6445 273.06C56.1911 273.06 55.7911 272.977 55.4445 272.81C55.1045 272.643 54.8378 272.39 54.6445 272.05C54.4578 271.703 54.3645 271.27 54.3645 270.75V267.7H55.3245V270.64C55.3245 271.16 55.4478 271.55 55.6945 271.81C55.9478 272.07 56.3011 272.2 56.7545 272.2C57.0878 272.2 57.3778 272.133 57.6245 272C57.8711 271.86 58.0611 271.66 58.1945 271.4C58.3278 271.133 58.3945 270.813 58.3945 270.44V267.7H59.3545V273H58.4445V271.57L58.5945 271.95C58.4211 272.303 58.1611 272.577 57.8145 272.77C57.4678 272.963 57.0778 273.06 56.6445 273.06ZM61.182 273V267.7H62.142V273H61.182ZM61.662 266.68C61.4754 266.68 61.3187 266.62 61.192 266.5C61.072 266.38 61.012 266.233 61.012 266.06C61.012 265.88 61.072 265.73 61.192 265.61C61.3187 265.49 61.4754 265.43 61.662 265.43C61.8487 265.43 62.002 265.49 62.122 265.61C62.2487 265.723 62.312 265.867 62.312 266.04C62.312 266.22 62.252 266.373 62.132 266.5C62.012 266.62 61.8554 266.68 61.662 266.68ZM66.165 273.06C65.6517 273.06 65.1917 272.947 64.785 272.72C64.385 272.493 64.0683 272.177 63.835 271.77C63.6017 271.363 63.485 270.89 63.485 270.35C63.485 269.81 63.6017 269.34 63.835 268.94C64.0683 268.533 64.385 268.217 64.785 267.99C65.1917 267.763 65.6517 267.65 66.165 267.65C66.6117 267.65 67.015 267.75 67.375 267.95C67.735 268.15 68.0217 268.45 68.235 268.85C68.455 269.25 68.565 269.75 68.565 270.35C68.565 270.95 68.4583 271.45 68.245 271.85C68.0383 272.25 67.755 272.553 67.395 272.76C67.035 272.96 66.625 273.06 66.165 273.06ZM66.245 272.22C66.5783 272.22 66.8783 272.143 67.145 271.99C67.4183 271.837 67.6317 271.62 67.785 271.34C67.945 271.053 68.025 270.723 68.025 270.35C68.025 269.97 67.945 269.643 67.785 269.37C67.6317 269.09 67.4183 268.873 67.145 268.72C66.8783 268.567 66.5783 268.49 66.245 268.49C65.905 268.49 65.6017 268.567 65.335 268.72C65.0683 268.873 64.855 269.09 64.695 269.37C64.535 269.643 64.455 269.97 64.455 270.35C64.455 270.723 64.535 271.053 64.695 271.34C64.855 271.62 65.0683 271.837 65.335 271.99C65.6017 272.143 65.905 272.22 66.245 272.22ZM68.055 273V271.57L68.115 270.34L68.015 269.11V265.58H68.975V273H68.055ZM70.7914 273V267.7H71.7514V273H70.7914ZM71.2714 266.68C71.0847 266.68 70.9281 266.62 70.8014 266.5C70.6814 266.38 70.6214 266.233 70.6214 266.06C70.6214 265.88 70.6814 265.73 70.8014 265.61C70.9281 265.49 71.0847 265.43 71.2714 265.43C71.4581 265.43 71.6114 265.49 71.7314 265.61C71.8581 265.723 71.9214 265.867 71.9214 266.04C71.9214 266.22 71.8614 266.373 71.7414 266.5C71.6214 266.62 71.4647 266.68 71.2714 266.68ZM75.4044 273.06C74.871 273.06 74.4577 272.917 74.1644 272.63C73.871 272.343 73.7244 271.933 73.7244 271.4V266.54H74.6844V271.36C74.6844 271.647 74.7544 271.867 74.8944 272.02C75.041 272.173 75.2477 272.25 75.5144 272.25C75.8144 272.25 76.0644 272.167 76.2644 272L76.5644 272.69C76.4177 272.817 76.241 272.91 76.0344 272.97C75.8344 273.03 75.6244 273.06 75.4044 273.06ZM72.8244 268.49V267.7H76.2044V268.49H72.8244ZM77.8573 275C77.604 275 77.3573 274.957 77.1173 274.87C76.8773 274.79 76.6707 274.67 76.4973 274.51L76.9073 273.79C77.0407 273.917 77.1873 274.013 77.3473 274.08C77.5073 274.147 77.6773 274.18 77.8573 274.18C78.0907 274.18 78.284 274.12 78.4373 274C78.5907 273.88 78.734 273.667 78.8673 273.36L79.1973 272.63L79.2973 272.51L81.3773 267.7H82.3173L79.7473 273.53C79.594 273.903 79.4207 274.197 79.2273 274.41C79.0407 274.623 78.834 274.773 78.6073 274.86C78.3807 274.953 78.1307 275 77.8573 275ZM79.1173 273.17L76.6973 267.7H77.6973L79.7573 272.42L79.1173 273.17ZM37.9089 285V278H40.6389C41.2523 278 41.7756 278.097 42.2089 278.29C42.6423 278.483 42.9756 278.763 43.209 279.13C43.4423 279.497 43.5589 279.933 43.5589 280.44C43.5589 280.947 43.4423 281.383 43.209 281.75C42.9756 282.11 42.6423 282.39 42.2089 282.59C41.7756 282.783 41.2523 282.88 40.6389 282.88H38.4589L38.9089 282.41V285H37.9089ZM38.9089 282.51L38.4589 282.01H40.6089C41.2489 282.01 41.7323 281.873 42.059 281.6C42.3923 281.327 42.559 280.94 42.559 280.44C42.559 279.94 42.3923 279.553 42.059 279.28C41.7323 279.007 41.2489 278.87 40.6089 278.87H38.4589L38.9089 278.37V282.51ZM44.7904 285V279.7H45.7104V281.14L45.6204 280.78C45.7671 280.413 46.0138 280.133 46.3604 279.94C46.7071 279.747 47.1338 279.65 47.6404 279.65V280.58C47.6004 280.573 47.5604 280.57 47.5204 280.57C47.4871 280.57 47.4538 280.57 47.4204 280.57C46.9071 280.57 46.5004 280.723 46.2004 281.03C45.9004 281.337 45.7504 281.78 45.7504 282.36V285H44.7904ZM51.0448 285.06C50.5115 285.06 50.0381 284.943 49.6248 284.71C49.2115 284.477 48.8848 284.157 48.6448 283.75C48.4048 283.337 48.2848 282.87 48.2848 282.35C48.2848 281.823 48.4048 281.357 48.6448 280.95C48.8848 280.543 49.2115 280.227 49.6248 280C50.0381 279.767 50.5115 279.65 51.0448 279.65C51.5715 279.65 52.0415 279.767 52.4548 280C52.8748 280.227 53.2015 280.543 53.4348 280.95C53.6748 281.35 53.7948 281.817 53.7948 282.35C53.7948 282.877 53.6748 283.343 53.4348 283.75C53.2015 284.157 52.8748 284.477 52.4548 284.71C52.0415 284.943 51.5715 285.06 51.0448 285.06ZM51.0448 284.22C51.3848 284.22 51.6881 284.143 51.9548 283.99C52.2281 283.837 52.4415 283.62 52.5948 283.34C52.7481 283.053 52.8248 282.723 52.8248 282.35C52.8248 281.97 52.7481 281.643 52.5948 281.37C52.4415 281.09 52.2281 280.873 51.9548 280.72C51.6881 280.567 51.3848 280.49 51.0448 280.49C50.7048 280.49 50.4015 280.567 50.1348 280.72C49.8681 280.873 49.6548 281.09 49.4948 281.37C49.3348 281.643 49.2548 281.97 49.2548 282.35C49.2548 282.723 49.3348 283.053 49.4948 283.34C49.6548 283.62 49.8681 283.837 50.1348 283.99C50.4015 284.143 50.7048 284.22 51.0448 284.22ZM56.366 285L54.046 279.7H55.046L57.106 284.5H56.626L58.726 279.7H59.666L57.346 285H56.366ZM60.5619 285V279.7H61.5219V285H60.5619ZM61.0419 278.68C60.8553 278.68 60.6986 278.62 60.5719 278.5C60.4519 278.38 60.3919 278.233 60.3919 278.06C60.3919 277.88 60.4519 277.73 60.5719 277.61C60.6986 277.49 60.8553 277.43 61.0419 277.43C61.2286 277.43 61.3819 277.49 61.5019 277.61C61.6286 277.723 61.6919 277.867 61.6919 278.04C61.6919 278.22 61.6319 278.373 61.5119 278.5C61.3919 278.62 61.2353 278.68 61.0419 278.68ZM64.8749 285.06C64.4349 285.06 64.0149 285 63.6149 284.88C63.2216 284.76 62.9116 284.613 62.6849 284.44L63.0849 283.68C63.3116 283.833 63.5916 283.963 63.9249 284.07C64.2582 284.177 64.5982 284.23 64.9449 284.23C65.3916 284.23 65.7116 284.167 65.9049 284.04C66.1049 283.913 66.2049 283.737 66.2049 283.51C66.2049 283.343 66.1449 283.213 66.0249 283.12C65.9049 283.027 65.7449 282.957 65.5449 282.91C65.3516 282.863 65.1349 282.823 64.8949 282.79C64.6549 282.75 64.4149 282.703 64.1749 282.65C63.9349 282.59 63.7149 282.51 63.5149 282.41C63.3149 282.303 63.1549 282.16 63.0349 281.98C62.9149 281.793 62.8549 281.547 62.8549 281.24C62.8549 280.92 62.9449 280.64 63.1249 280.4C63.3049 280.16 63.5582 279.977 63.8849 279.85C64.2182 279.717 64.6116 279.65 65.0649 279.65C65.4116 279.65 65.7616 279.693 66.1149 279.78C66.4749 279.86 66.7682 279.977 66.9949 280.13L66.5849 280.89C66.3449 280.73 66.0949 280.62 65.8349 280.56C65.5749 280.5 65.3149 280.47 65.0549 280.47C64.6349 280.47 64.3216 280.54 64.1149 280.68C63.9082 280.813 63.8049 280.987 63.8049 281.2C63.8049 281.38 63.8649 281.52 63.9849 281.62C64.1116 281.713 64.2716 281.787 64.4649 281.84C64.6649 281.893 64.8849 281.94 65.1249 281.98C65.3649 282.013 65.6049 282.06 65.8449 282.12C66.0849 282.173 66.3016 282.25 66.4949 282.35C66.6949 282.45 66.8549 282.59 66.9749 282.77C67.1016 282.95 67.1649 283.19 67.1649 283.49C67.1649 283.81 67.0716 284.087 66.8849 284.32C66.6982 284.553 66.4349 284.737 66.0949 284.87C65.7549 284.997 65.3482 285.06 64.8749 285.06ZM68.3647 285V279.7H69.3247V285H68.3647ZM68.8447 278.68C68.658 278.68 68.5013 278.62 68.3747 278.5C68.2547 278.38 68.1947 278.233 68.1947 278.06C68.1947 277.88 68.2547 277.73 68.3747 277.61C68.5013 277.49 68.658 277.43 68.8447 277.43C69.0313 277.43 69.1847 277.49 69.3047 277.61C69.4313 277.723 69.4947 277.867 69.4947 278.04C69.4947 278.22 69.4347 278.373 69.3147 278.5C69.1947 278.62 69.038 278.68 68.8447 278.68ZM73.4276 285.06C72.8943 285.06 72.421 284.943 72.0076 284.71C71.5943 284.477 71.2676 284.157 71.0276 283.75C70.7876 283.337 70.6676 282.87 70.6676 282.35C70.6676 281.823 70.7876 281.357 71.0276 280.95C71.2676 280.543 71.5943 280.227 72.0076 280C72.421 279.767 72.8943 279.65 73.4276 279.65C73.9543 279.65 74.4243 279.767 74.8376 280C75.2576 280.227 75.5843 280.543 75.8176 280.95C76.0576 281.35 76.1776 281.817 76.1776 282.35C76.1776 282.877 76.0576 283.343 75.8176 283.75C75.5843 284.157 75.2576 284.477 74.8376 284.71C74.4243 284.943 73.9543 285.06 73.4276 285.06ZM73.4276 284.22C73.7676 284.22 74.071 284.143 74.3376 283.99C74.611 283.837 74.8243 283.62 74.9776 283.34C75.131 283.053 75.2076 282.723 75.2076 282.35C75.2076 281.97 75.131 281.643 74.9776 281.37C74.8243 281.09 74.611 280.873 74.3376 280.72C74.071 280.567 73.7676 280.49 73.4276 280.49C73.0876 280.49 72.7843 280.567 72.5176 280.72C72.251 280.873 72.0376 281.09 71.8776 281.37C71.7176 281.643 71.6376 281.97 71.6376 282.35C71.6376 282.723 71.7176 283.053 71.8776 283.34C72.0376 283.62 72.251 283.837 72.5176 283.99C72.7843 284.143 73.0876 284.22 73.4276 284.22ZM80.3353 279.65C80.7686 279.65 81.1486 279.733 81.4753 279.9C81.8086 280.067 82.0686 280.32 82.2553 280.66C82.4419 281 82.5353 281.43 82.5353 281.95V285H81.5753V282.06C81.5753 281.547 81.4486 281.16 81.1953 280.9C80.9486 280.64 80.5986 280.51 80.1453 280.51C79.8053 280.51 79.5086 280.577 79.2553 280.71C79.0019 280.843 78.8053 281.04 78.6653 281.3C78.5319 281.56 78.4653 281.883 78.4653 282.27V285H77.5053V279.7H78.4253V281.13L78.2753 280.75C78.4486 280.403 78.7153 280.133 79.0753 279.94C79.4353 279.747 79.8553 279.65 80.3353 279.65Z" fill="#7A7A7A"/>
<path d="M57.2132 139.924C57.7515 135.958 61.138 133 65.1405 133H83.8407C88.6866 133 92.4198 137.274 91.768 142.076L77.7868 245.076C77.2485 249.042 73.862 252 69.8595 252H51.1593C46.3134 252 42.5802 247.726 43.232 242.924L57.2132 139.924Z" fill="#F2F2F2"/>
<path d="M42 132C42 127.582 45.5817 124 50 124H69C73.4183 124 77 127.582 77 132V250C77 251.105 76.1046 252 75 252H44C42.8954 252 42 251.105 42 250V132Z" fill="url(#paint0_linear_300_1229)"/>
<path d="M128.528 70.3188C128.881 66.1797 132.344 63 136.498 63H155.287C159.974 63 163.657 67.0112 163.258 71.6812L148.472 244.681C148.119 248.82 144.656 252 140.502 252H121.713C117.026 252 113.343 247.989 113.742 243.319L128.528 70.3188Z" fill="#F2F2F2"/>
<path d="M113 56C113 51.5817 116.582 48 121 48H140C144.418 48 148 51.5817 148 56V250C148 251.105 147.105 252 146 252H115C113.895 252 113 251.105 113 250V56Z" fill="url(#paint1_linear_300_1229)"/>
<path d="M198.806 182.337C199.591 178.642 202.854 176 206.631 176H225.121C230.209 176 234.004 180.687 232.946 185.663L220.194 245.663C219.409 249.358 216.146 252 212.369 252H193.879C188.791 252 184.996 247.313 186.054 242.337L198.806 182.337Z" fill="#F2F2F2"/>
<path d="M184 173C184 168.582 187.582 165 192 165H211C215.418 165 219 168.582 219 173V250C219 251.105 218.105 252 217 252H186C184.895 252 184 251.105 184 250V173Z" fill="url(#paint2_linear_300_1229)"/>
<path d="M270.346 117.096C270.806 113.053 274.226 110 278.295 110H297.038C301.815 110 305.527 114.158 304.987 118.904L290.654 244.904C290.194 248.947 286.774 252 282.705 252H263.962C259.185 252 255.473 247.842 256.013 243.096L270.346 117.096Z" fill="#F2F2F2"/>
<path d="M255 107C255 102.582 258.582 99 263 99H282C286.418 99 290 102.582 290 107V250C290 251.105 289.105 252 288 252H257C255.895 252 255 251.105 255 250V107Z" fill="url(#paint3_linear_300_1229)"/>
<path d="M49.031 242L52.201 235H53.191L56.371 242H55.321L52.491 235.56H52.891L50.061 242H49.031ZM50.381 240.25L50.651 239.45H54.591L54.881 240.25H50.381ZM57.4152 242V235H60.1452C60.7586 235 61.2819 235.097 61.7152 235.29C62.1486 235.483 62.4819 235.763 62.7152 236.13C62.9486 236.497 63.0652 236.933 63.0652 237.44C63.0652 237.947 62.9486 238.383 62.7152 238.75C62.4819 239.11 62.1486 239.39 61.7152 239.59C61.2819 239.783 60.7586 239.88 60.1452 239.88H57.9652L58.4152 239.41V242H57.4152ZM58.4152 239.51L57.9652 239.01H60.1152C60.7552 239.01 61.2386 238.873 61.5652 238.6C61.8986 238.327 62.0652 237.94 62.0652 237.44C62.0652 236.94 61.8986 236.553 61.5652 236.28C61.2386 236.007 60.7552 235.87 60.1152 235.87H57.9652L58.4152 235.37V239.51ZM66.2244 242V239.32L66.4544 239.94L63.4444 235H64.5144L67.0444 239.17H66.4644L69.0044 235H69.9944L66.9944 239.94L67.2144 239.32V242H66.2244Z" fill="white"/>
<path d="M120.031 242L123.201 235H124.191L127.371 242H126.321L123.491 235.56H123.891L121.061 242H120.031ZM121.381 240.25L121.651 239.45H125.591L125.881 240.25H121.381ZM128.415 242V235H131.145C131.759 235 132.282 235.097 132.715 235.29C133.149 235.483 133.482 235.763 133.715 236.13C133.949 236.497 134.065 236.933 134.065 237.44C134.065 237.947 133.949 238.383 133.715 238.75C133.482 239.11 133.149 239.39 132.715 239.59C132.282 239.783 131.759 239.88 131.145 239.88H128.965L129.415 239.41V242H128.415ZM129.415 239.51L128.965 239.01H131.115C131.755 239.01 132.239 238.873 132.565 238.6C132.899 238.327 133.065 237.94 133.065 237.44C133.065 236.94 132.899 236.553 132.565 236.28C132.239 236.007 131.755 235.87 131.115 235.87H128.965L129.415 235.37V239.51ZM137.224 242V239.32L137.454 239.94L134.444 235H135.514L138.044 239.17H137.464L140.004 235H140.994L137.994 239.94L138.214 239.32V242H137.224Z" fill="white"/>
<path d="M191.031 242L194.201 235H195.191L198.371 242H197.321L194.491 235.56H194.891L192.061 242H191.031ZM192.381 240.25L192.651 239.45H196.591L196.881 240.25H192.381ZM199.415 242V235H202.145C202.759 235 203.282 235.097 203.715 235.29C204.149 235.483 204.482 235.763 204.715 236.13C204.949 236.497 205.065 236.933 205.065 237.44C205.065 237.947 204.949 238.383 204.715 238.75C204.482 239.11 204.149 239.39 203.715 239.59C203.282 239.783 202.759 239.88 202.145 239.88H199.965L200.415 239.41V242H199.415ZM200.415 239.51L199.965 239.01H202.115C202.755 239.01 203.239 238.873 203.565 238.6C203.899 238.327 204.065 237.94 204.065 237.44C204.065 236.94 203.899 236.553 203.565 236.28C203.239 236.007 202.755 235.87 202.115 235.87H199.965L200.415 235.37V239.51ZM208.224 242V239.32L208.454 239.94L205.444 235H206.514L209.044 239.17H208.464L211.004 235H211.994L208.994 239.94L209.214 239.32V242H208.224Z" fill="white"/>
<path d="M262.031 242L265.201 235H266.191L269.371 242H268.321L265.491 235.56H265.891L263.061 242H262.031ZM263.381 240.25L263.651 239.45H267.591L267.881 240.25H263.381ZM270.415 242V235H273.145C273.759 235 274.282 235.097 274.715 235.29C275.149 235.483 275.482 235.763 275.715 236.13C275.949 236.497 276.065 236.933 276.065 237.44C276.065 237.947 275.949 238.383 275.715 238.75C275.482 239.11 275.149 239.39 274.715 239.59C274.282 239.783 273.759 239.88 273.145 239.88H270.965L271.415 239.41V242H270.415ZM271.415 239.51L270.965 239.01H273.115C273.755 239.01 274.239 238.873 274.565 238.6C274.899 238.327 275.065 237.94 275.065 237.44C275.065 236.94 274.899 236.553 274.565 236.28C274.239 236.007 273.755 235.87 273.115 235.87H270.965L271.415 235.37V239.51ZM279.224 242V239.32L279.454 239.94L276.444 235H277.514L280.044 239.17H279.464L282.004 235H282.994L279.994 239.94L280.214 239.32V242H279.224Z" fill="white"/>
<path d="M110.142 273V265.878H111.16V272.115H115.016V273H110.142ZM118.372 273.061C117.796 273.061 117.287 272.942 116.846 272.705C116.412 272.468 116.073 272.142 115.829 271.728C115.591 271.315 115.473 270.84 115.473 270.304C115.473 269.768 115.588 269.293 115.819 268.88C116.056 268.466 116.378 268.144 116.785 267.913C117.199 267.676 117.663 267.557 118.179 267.557C118.701 267.557 119.162 267.672 119.563 267.903C119.963 268.133 120.275 268.459 120.499 268.88C120.729 269.293 120.845 269.778 120.845 270.334C120.845 270.375 120.841 270.423 120.834 270.477C120.834 270.531 120.831 270.582 120.824 270.629H116.236V269.927H120.315L119.919 270.172C119.925 269.826 119.854 269.517 119.705 269.246C119.556 268.975 119.349 268.764 119.084 268.615C118.827 268.459 118.525 268.381 118.179 268.381C117.84 268.381 117.538 268.459 117.273 268.615C117.009 268.764 116.802 268.978 116.653 269.256C116.504 269.527 116.429 269.839 116.429 270.192V270.355C116.429 270.714 116.51 271.036 116.673 271.321C116.843 271.599 117.077 271.816 117.375 271.972C117.674 272.128 118.016 272.206 118.403 272.206C118.722 272.206 119.01 272.152 119.268 272.044C119.532 271.935 119.763 271.772 119.959 271.555L120.499 272.186C120.254 272.471 119.949 272.688 119.583 272.837C119.223 272.986 118.82 273.061 118.372 273.061ZM125.08 267.557C125.521 267.557 125.907 267.642 126.24 267.811C126.579 267.981 126.843 268.239 127.033 268.585C127.223 268.93 127.318 269.368 127.318 269.897V273H126.342V270.009C126.342 269.487 126.213 269.093 125.955 268.829C125.704 268.564 125.348 268.432 124.887 268.432C124.541 268.432 124.239 268.5 123.981 268.635C123.723 268.771 123.523 268.971 123.381 269.236C123.245 269.5 123.177 269.829 123.177 270.223V273H122.201V267.608H123.137V269.063L122.984 268.676C123.16 268.323 123.432 268.049 123.798 267.852C124.164 267.655 124.592 267.557 125.08 267.557ZM131.354 273.061C130.832 273.061 130.364 272.946 129.95 272.715C129.543 272.485 129.221 272.162 128.983 271.749C128.746 271.335 128.627 270.853 128.627 270.304C128.627 269.755 128.746 269.276 128.983 268.869C129.221 268.456 129.543 268.133 129.95 267.903C130.364 267.672 130.832 267.557 131.354 267.557C131.808 267.557 132.219 267.659 132.585 267.862C132.951 268.066 133.243 268.371 133.46 268.778C133.684 269.185 133.796 269.693 133.796 270.304C133.796 270.914 133.687 271.423 133.47 271.83C133.26 272.237 132.972 272.546 132.605 272.756C132.239 272.959 131.822 273.061 131.354 273.061ZM131.435 272.206C131.774 272.206 132.08 272.128 132.351 271.972C132.629 271.816 132.846 271.596 133.002 271.311C133.165 271.019 133.246 270.684 133.246 270.304C133.246 269.917 133.165 269.585 133.002 269.307C132.846 269.022 132.629 268.802 132.351 268.646C132.08 268.49 131.774 268.412 131.435 268.412C131.089 268.412 130.781 268.49 130.509 268.646C130.238 268.802 130.021 269.022 129.858 269.307C129.696 269.585 129.614 269.917 129.614 270.304C129.614 270.684 129.696 271.019 129.858 271.311C130.021 271.596 130.238 271.816 130.509 271.972C130.781 272.128 131.089 272.206 131.435 272.206ZM133.277 273V271.545L133.338 270.294L133.236 269.042V265.451H134.213V273H133.277ZM136.061 273V267.608H137.037V273H136.061ZM136.549 266.57C136.359 266.57 136.2 266.509 136.071 266.387C135.949 266.265 135.888 266.116 135.888 265.939C135.888 265.756 135.949 265.604 136.071 265.481C136.2 265.359 136.359 265.298 136.549 265.298C136.739 265.298 136.895 265.359 137.017 265.481C137.146 265.597 137.21 265.743 137.21 265.919C137.21 266.102 137.149 266.258 137.027 266.387C136.905 266.509 136.746 266.57 136.549 266.57ZM141.781 267.557C142.222 267.557 142.609 267.642 142.941 267.811C143.28 267.981 143.545 268.239 143.735 268.585C143.925 268.93 144.02 269.368 144.02 269.897V273H143.043V270.009C143.043 269.487 142.914 269.093 142.656 268.829C142.405 268.564 142.049 268.432 141.588 268.432C141.242 268.432 140.94 268.5 140.683 268.635C140.425 268.771 140.225 268.971 140.082 269.236C139.947 269.5 139.879 269.829 139.879 270.223V273H138.902V267.608H139.838V269.063L139.686 268.676C139.862 268.323 140.133 268.049 140.5 267.852C140.866 267.655 141.293 267.557 141.781 267.557ZM148.188 275.035C147.692 275.035 147.211 274.964 146.743 274.821C146.282 274.685 145.905 274.489 145.614 274.231L146.082 273.478C146.333 273.695 146.641 273.865 147.007 273.987C147.374 274.116 147.757 274.18 148.157 274.18C148.795 274.18 149.263 274.031 149.561 273.733C149.86 273.434 150.009 272.98 150.009 272.369V271.23L150.11 270.161L150.06 269.083V267.608H150.985V272.267C150.985 273.217 150.748 273.916 150.273 274.363C149.798 274.811 149.103 275.035 148.188 275.035ZM148.066 272.776C147.543 272.776 147.075 272.668 146.662 272.451C146.255 272.227 145.929 271.918 145.685 271.525C145.447 271.131 145.329 270.677 145.329 270.161C145.329 269.639 145.447 269.185 145.685 268.798C145.929 268.405 146.255 268.1 146.662 267.883C147.075 267.665 147.543 267.557 148.066 267.557C148.527 267.557 148.947 267.652 149.327 267.842C149.707 268.025 150.009 268.31 150.233 268.696C150.463 269.083 150.578 269.571 150.578 270.161C150.578 270.745 150.463 271.23 150.233 271.616C150.009 272.003 149.707 272.295 149.327 272.491C148.947 272.681 148.527 272.776 148.066 272.776ZM148.177 271.922C148.537 271.922 148.856 271.847 149.134 271.698C149.412 271.549 149.629 271.342 149.785 271.077C149.948 270.813 150.029 270.507 150.029 270.161C150.029 269.816 149.948 269.51 149.785 269.246C149.629 268.981 149.412 268.778 149.134 268.635C148.856 268.486 148.537 268.412 148.177 268.412C147.818 268.412 147.496 268.486 147.211 268.635C146.933 268.778 146.712 268.981 146.55 269.246C146.394 269.51 146.316 269.816 146.316 270.161C146.316 270.507 146.394 270.813 146.55 271.077C146.712 271.342 146.933 271.549 147.211 271.698C147.496 271.847 147.818 271.922 148.177 271.922Z" fill="#7A7A7A"/>
<path d="M187.759 273L190.984 265.878H191.991L195.227 273H194.158L191.279 266.448H191.686L188.807 273H187.759ZM189.132 271.22L189.407 270.406H193.416L193.711 271.22H189.132ZM198.316 273.061C197.855 273.061 197.448 272.976 197.095 272.807C196.749 272.637 196.478 272.379 196.281 272.033C196.091 271.681 195.996 271.24 195.996 270.711V267.608H196.973V270.599C196.973 271.128 197.099 271.525 197.35 271.789C197.607 272.054 197.967 272.186 198.428 272.186C198.767 272.186 199.062 272.118 199.313 271.983C199.564 271.84 199.757 271.637 199.893 271.372C200.029 271.101 200.096 270.775 200.096 270.395V267.608H201.073V273H200.147V271.545L200.3 271.932C200.124 272.291 199.859 272.569 199.506 272.766C199.154 272.963 198.757 273.061 198.316 273.061ZM204.784 273.061C204.242 273.061 203.821 272.915 203.523 272.624C203.224 272.332 203.075 271.915 203.075 271.372V266.428H204.052V271.331C204.052 271.623 204.123 271.847 204.265 272.003C204.415 272.159 204.625 272.237 204.896 272.237C205.201 272.237 205.456 272.152 205.659 271.983L205.964 272.685C205.815 272.813 205.635 272.908 205.425 272.969C205.222 273.031 205.008 273.061 204.784 273.061ZM202.159 268.412V267.608H205.598V268.412H202.159ZM209.276 273.061C208.733 273.061 208.252 272.942 207.831 272.705C207.411 272.468 207.078 272.142 206.834 271.728C206.59 271.308 206.468 270.833 206.468 270.304C206.468 269.768 206.59 269.293 206.834 268.88C207.078 268.466 207.411 268.144 207.831 267.913C208.252 267.676 208.733 267.557 209.276 267.557C209.812 267.557 210.29 267.676 210.71 267.913C211.138 268.144 211.47 268.466 211.707 268.88C211.952 269.287 212.074 269.761 212.074 270.304C212.074 270.84 211.952 271.315 211.707 271.728C211.47 272.142 211.138 272.468 210.71 272.705C210.29 272.942 209.812 273.061 209.276 273.061ZM209.276 272.206C209.622 272.206 209.93 272.128 210.202 271.972C210.48 271.816 210.697 271.596 210.853 271.311C211.009 271.019 211.087 270.684 211.087 270.304C211.087 269.917 211.009 269.585 210.853 269.307C210.697 269.022 210.48 268.802 210.202 268.646C209.93 268.49 209.622 268.412 209.276 268.412C208.93 268.412 208.621 268.49 208.35 268.646C208.079 268.802 207.862 269.022 207.699 269.307C207.536 269.585 207.455 269.917 207.455 270.304C207.455 270.684 207.536 271.019 207.699 271.311C207.862 271.596 208.079 271.816 208.35 271.972C208.621 272.128 208.93 272.206 209.276 272.206ZM180.233 285V277.878H183.011C183.635 277.878 184.167 277.977 184.608 278.173C185.049 278.37 185.388 278.655 185.626 279.028C185.863 279.401 185.982 279.845 185.982 280.361C185.982 280.876 185.863 281.32 185.626 281.693C185.388 282.06 185.049 282.341 184.608 282.538C184.167 282.735 183.635 282.833 183.011 282.833H180.793L181.251 282.365V285H180.233ZM184.995 285L183.184 282.416H184.272L186.104 285H184.995ZM181.251 282.467L180.793 281.968H182.98C183.631 281.968 184.123 281.829 184.456 281.551C184.795 281.266 184.964 280.869 184.964 280.361C184.964 279.852 184.795 279.459 184.456 279.181C184.123 278.902 183.631 278.763 182.98 278.763H180.793L181.251 278.255V282.467ZM189.884 285.061C189.307 285.061 188.799 284.942 188.358 284.705C187.924 284.468 187.585 284.142 187.34 283.728C187.103 283.315 186.984 282.84 186.984 282.304C186.984 281.768 187.1 281.293 187.33 280.88C187.568 280.466 187.89 280.144 188.297 279.913C188.711 279.676 189.175 279.557 189.691 279.557C190.213 279.557 190.674 279.672 191.074 279.903C191.474 280.133 191.786 280.459 192.01 280.88C192.241 281.293 192.356 281.778 192.356 282.334C192.356 282.375 192.353 282.423 192.346 282.477C192.346 282.531 192.343 282.582 192.336 282.629H187.747V281.927H191.827L191.43 282.172C191.437 281.826 191.366 281.517 191.217 281.246C191.067 280.975 190.861 280.764 190.596 280.615C190.338 280.459 190.037 280.381 189.691 280.381C189.351 280.381 189.05 280.459 188.785 280.615C188.521 280.764 188.314 280.978 188.165 281.256C188.015 281.527 187.941 281.839 187.941 282.192V282.355C187.941 282.714 188.022 283.036 188.185 283.321C188.354 283.599 188.588 283.816 188.887 283.972C189.185 284.128 189.528 284.206 189.914 284.206C190.233 284.206 190.521 284.152 190.779 284.044C191.044 283.935 191.274 283.772 191.471 283.555L192.01 284.186C191.766 284.471 191.461 284.688 191.095 284.837C190.735 284.986 190.332 285.061 189.884 285.061ZM194.753 285L192.748 279.608H193.674L195.455 284.491H195.017L196.869 279.608H197.693L199.504 284.491H199.076L200.898 279.608H201.773L199.758 285H198.822L197.123 280.544H197.408L195.689 285H194.753ZM205.942 285V283.861L205.891 283.647V281.704C205.891 281.29 205.769 280.971 205.525 280.747C205.287 280.517 204.928 280.401 204.446 280.401C204.128 280.401 203.816 280.456 203.51 280.564C203.205 280.666 202.947 280.805 202.737 280.981L202.33 280.249C202.608 280.025 202.941 279.855 203.327 279.74C203.721 279.618 204.131 279.557 204.558 279.557C205.298 279.557 205.867 279.737 206.268 280.096C206.668 280.456 206.868 281.005 206.868 281.744V285H205.942ZM204.172 285.061C203.772 285.061 203.419 284.993 203.114 284.858C202.815 284.722 202.585 284.535 202.422 284.298C202.259 284.054 202.178 283.779 202.178 283.474C202.178 283.182 202.245 282.918 202.381 282.68C202.524 282.443 202.751 282.253 203.063 282.111C203.382 281.968 203.809 281.897 204.345 281.897H206.054V282.599H204.385C203.897 282.599 203.568 282.68 203.398 282.843C203.229 283.006 203.144 283.203 203.144 283.433C203.144 283.698 203.249 283.911 203.46 284.074C203.67 284.23 203.961 284.308 204.334 284.308C204.701 284.308 205.02 284.227 205.291 284.064C205.569 283.901 205.769 283.664 205.891 283.352L206.084 284.023C205.956 284.342 205.728 284.596 205.403 284.786C205.077 284.969 204.667 285.061 204.172 285.061ZM208.675 285V279.608H209.611V281.073L209.52 280.707C209.669 280.334 209.92 280.049 210.273 279.852C210.625 279.655 211.059 279.557 211.575 279.557V280.503C211.534 280.496 211.493 280.493 211.453 280.493C211.419 280.493 211.385 280.493 211.351 280.493C210.829 280.493 210.415 280.649 210.11 280.961C209.805 281.273 209.652 281.724 209.652 282.314V285H208.675ZM214.957 285.061C214.435 285.061 213.967 284.946 213.553 284.715C213.146 284.485 212.824 284.162 212.586 283.749C212.349 283.335 212.23 282.853 212.23 282.304C212.23 281.755 212.349 281.276 212.586 280.869C212.824 280.456 213.146 280.133 213.553 279.903C213.967 279.672 214.435 279.557 214.957 279.557C215.411 279.557 215.822 279.659 216.188 279.862C216.554 280.066 216.846 280.371 217.063 280.778C217.287 281.185 217.399 281.693 217.399 282.304C217.399 282.914 217.29 283.423 217.073 283.83C216.863 284.237 216.575 284.546 216.208 284.756C215.842 284.959 215.425 285.061 214.957 285.061ZM215.038 284.206C215.378 284.206 215.683 284.128 215.954 283.972C216.232 283.816 216.449 283.596 216.605 283.311C216.768 283.019 216.849 282.684 216.849 282.304C216.849 281.917 216.768 281.585 216.605 281.307C216.449 281.022 216.232 280.802 215.954 280.646C215.683 280.49 215.378 280.412 215.038 280.412C214.692 280.412 214.384 280.49 214.113 280.646C213.841 280.802 213.624 281.022 213.461 281.307C213.299 281.585 213.217 281.917 213.217 282.304C213.217 282.684 213.299 283.019 213.461 283.311C213.624 283.596 213.841 283.816 214.113 283.972C214.384 284.128 214.692 284.206 215.038 284.206ZM216.88 285V283.545L216.941 282.294L216.839 281.042V277.451H217.816V285H216.88ZM221.21 285.061C220.763 285.061 220.335 285 219.928 284.878C219.528 284.756 219.213 284.607 218.982 284.43L219.389 283.657C219.62 283.813 219.905 283.945 220.244 284.054C220.583 284.162 220.929 284.217 221.282 284.217C221.736 284.217 222.062 284.152 222.258 284.023C222.462 283.894 222.563 283.715 222.563 283.484C222.563 283.315 222.502 283.182 222.38 283.087C222.258 282.992 222.095 282.921 221.892 282.874C221.695 282.826 221.475 282.785 221.231 282.752C220.986 282.711 220.742 282.663 220.498 282.609C220.254 282.548 220.03 282.467 219.827 282.365C219.623 282.256 219.46 282.111 219.338 281.927C219.216 281.738 219.155 281.487 219.155 281.175C219.155 280.849 219.247 280.564 219.43 280.32C219.613 280.076 219.871 279.889 220.203 279.76C220.542 279.625 220.942 279.557 221.404 279.557C221.756 279.557 222.112 279.601 222.472 279.689C222.838 279.771 223.137 279.889 223.367 280.045L222.95 280.819C222.706 280.656 222.452 280.544 222.187 280.483C221.922 280.422 221.658 280.391 221.393 280.391C220.966 280.391 220.647 280.462 220.437 280.605C220.227 280.741 220.122 280.917 220.122 281.134C220.122 281.317 220.183 281.459 220.305 281.561C220.434 281.656 220.596 281.731 220.793 281.785C220.997 281.839 221.22 281.887 221.465 281.927C221.709 281.961 221.953 282.009 222.197 282.07C222.441 282.124 222.662 282.202 222.858 282.304C223.062 282.406 223.225 282.548 223.347 282.731C223.476 282.914 223.54 283.159 223.54 283.464C223.54 283.789 223.445 284.071 223.255 284.308C223.065 284.546 222.797 284.732 222.452 284.868C222.106 284.997 221.692 285.061 221.21 285.061Z" fill="#7A7A7A"/>
<path d="M256.308 273.081C255.765 273.081 255.246 273 254.751 272.837C254.256 272.668 253.866 272.451 253.581 272.186L253.957 271.393C254.229 271.63 254.575 271.827 254.995 271.983C255.416 272.139 255.853 272.217 256.308 272.217C256.721 272.217 257.057 272.169 257.315 272.074C257.573 271.979 257.762 271.85 257.885 271.688C258.007 271.518 258.068 271.328 258.068 271.118C258.068 270.874 257.986 270.677 257.824 270.528C257.668 270.379 257.461 270.26 257.203 270.172C256.952 270.077 256.674 269.995 256.369 269.927C256.063 269.86 255.755 269.782 255.443 269.693C255.138 269.599 254.856 269.48 254.598 269.337C254.347 269.195 254.144 269.005 253.988 268.768C253.832 268.523 253.754 268.211 253.754 267.832C253.754 267.465 253.849 267.13 254.039 266.824C254.236 266.512 254.534 266.265 254.934 266.082C255.341 265.892 255.857 265.797 256.481 265.797C256.894 265.797 257.305 265.851 257.712 265.96C258.119 266.068 258.471 266.224 258.77 266.428L258.434 267.242C258.129 267.038 257.807 266.892 257.467 266.804C257.128 266.709 256.799 266.662 256.481 266.662C256.08 266.662 255.751 266.713 255.494 266.814C255.236 266.916 255.046 267.052 254.924 267.221C254.809 267.391 254.751 267.581 254.751 267.791C254.751 268.042 254.829 268.242 254.985 268.391C255.148 268.54 255.355 268.659 255.606 268.747C255.863 268.835 256.145 268.917 256.45 268.991C256.755 269.059 257.06 269.137 257.366 269.225C257.678 269.314 257.959 269.429 258.21 269.571C258.468 269.714 258.675 269.904 258.831 270.141C258.987 270.379 259.065 270.684 259.065 271.057C259.065 271.416 258.966 271.752 258.77 272.064C258.573 272.369 258.268 272.617 257.854 272.807C257.447 272.99 256.932 273.081 256.308 273.081ZM262.26 273.061C261.718 273.061 261.297 272.915 260.999 272.624C260.7 272.332 260.551 271.915 260.551 271.372V266.428H261.528V271.331C261.528 271.623 261.599 271.847 261.741 272.003C261.891 272.159 262.101 272.237 262.372 272.237C262.677 272.237 262.932 272.152 263.135 271.983L263.44 272.685C263.291 272.813 263.112 272.908 262.901 272.969C262.698 273.031 262.484 273.061 262.26 273.061ZM259.635 268.412V267.608H263.074V268.412H259.635ZM267.968 273V271.861L267.918 271.647V269.704C267.918 269.29 267.796 268.971 267.551 268.747C267.314 268.517 266.954 268.401 266.473 268.401C266.154 268.401 265.842 268.456 265.537 268.564C265.232 268.666 264.974 268.805 264.764 268.981L264.357 268.249C264.635 268.025 264.967 267.855 265.354 267.74C265.747 267.618 266.158 267.557 266.585 267.557C267.324 267.557 267.894 267.737 268.294 268.096C268.694 268.456 268.894 269.005 268.894 269.744V273H267.968ZM266.198 273.061C265.798 273.061 265.445 272.993 265.14 272.858C264.842 272.722 264.611 272.535 264.448 272.298C264.286 272.054 264.204 271.779 264.204 271.474C264.204 271.182 264.272 270.918 264.408 270.68C264.55 270.443 264.777 270.253 265.089 270.111C265.408 269.968 265.835 269.897 266.371 269.897H268.08V270.599H266.412C265.924 270.599 265.595 270.68 265.425 270.843C265.255 271.006 265.171 271.203 265.171 271.433C265.171 271.698 265.276 271.911 265.486 272.074C265.696 272.23 265.988 272.308 266.361 272.308C266.727 272.308 267.046 272.227 267.317 272.064C267.595 271.901 267.796 271.664 267.918 271.352L268.111 272.023C267.982 272.342 267.755 272.596 267.429 272.786C267.104 272.969 266.693 273.061 266.198 273.061ZM271.495 271.698L271.516 270.446L274.619 267.608H275.799L273.418 269.948L272.889 270.395L271.495 271.698ZM270.702 273V265.451H271.678V273H270.702ZM274.822 273L272.706 270.375L273.337 269.592L276.023 273H274.822ZM276.971 273V267.608H277.948V273H276.971ZM277.459 266.57C277.269 266.57 277.11 266.509 276.981 266.387C276.859 266.265 276.798 266.116 276.798 265.939C276.798 265.756 276.859 265.604 276.981 265.481C277.11 265.359 277.269 265.298 277.459 265.298C277.649 265.298 277.805 265.359 277.927 265.481C278.056 265.597 278.121 265.743 278.121 265.919C278.121 266.102 278.06 266.258 277.938 266.387C277.815 266.509 277.656 266.57 277.459 266.57ZM282.692 267.557C283.133 267.557 283.519 267.642 283.852 267.811C284.191 267.981 284.455 268.239 284.645 268.585C284.835 268.93 284.93 269.368 284.93 269.897V273H283.953V270.009C283.953 269.487 283.825 269.093 283.567 268.829C283.316 268.564 282.96 268.432 282.499 268.432C282.153 268.432 281.851 268.5 281.593 268.635C281.335 268.771 281.135 268.971 280.993 269.236C280.857 269.5 280.789 269.829 280.789 270.223V273H279.813V267.608H280.749V269.063L280.596 268.676C280.772 268.323 281.044 268.049 281.41 267.852C281.776 267.655 282.203 267.557 282.692 267.557ZM289.098 275.035C288.603 275.035 288.121 274.964 287.653 274.821C287.192 274.685 286.816 274.489 286.524 274.231L286.992 273.478C287.243 273.695 287.552 273.865 287.918 273.987C288.284 274.116 288.667 274.18 289.067 274.18C289.705 274.18 290.173 274.031 290.471 273.733C290.77 273.434 290.919 272.98 290.919 272.369V271.23L291.021 270.161L290.97 269.083V267.608H291.896V272.267C291.896 273.217 291.658 273.916 291.184 274.363C290.709 274.811 290.014 275.035 289.098 275.035ZM288.976 272.776C288.454 272.776 287.986 272.668 287.572 272.451C287.165 272.227 286.839 271.918 286.595 271.525C286.358 271.131 286.239 270.677 286.239 270.161C286.239 269.639 286.358 269.185 286.595 268.798C286.839 268.405 287.165 268.1 287.572 267.883C287.986 267.665 288.454 267.557 288.976 267.557C289.437 267.557 289.858 267.652 290.237 267.842C290.617 268.025 290.919 268.31 291.143 268.696C291.374 269.083 291.489 269.571 291.489 270.161C291.489 270.745 291.374 271.23 291.143 271.616C290.919 272.003 290.617 272.295 290.237 272.491C289.858 272.681 289.437 272.776 288.976 272.776ZM289.088 271.922C289.447 271.922 289.766 271.847 290.044 271.698C290.322 271.549 290.539 271.342 290.695 271.077C290.858 270.813 290.939 270.507 290.939 270.161C290.939 269.816 290.858 269.51 290.695 269.246C290.539 268.981 290.322 268.778 290.044 268.635C289.766 268.486 289.447 268.412 289.088 268.412C288.728 268.412 288.406 268.486 288.121 268.635C287.843 268.778 287.623 268.981 287.46 269.246C287.304 269.51 287.226 269.816 287.226 270.161C287.226 270.507 287.304 270.813 287.46 271.077C287.623 271.342 287.843 271.549 288.121 271.698C288.406 271.847 288.728 271.922 289.088 271.922Z" fill="#7A7A7A"/>
</g>
<defs>
<filter id="filter0_d_300_1229" x="0.478262" y="0.478262" width="347.043" height="321.043" filterUnits="userSpaceOnUse" color-interpolation-filters="sRGB">
<feFlood flood-opacity="0" result="BackgroundImageFix"/>
<feColorMatrix in="SourceAlpha" type="matrix" values="0 0 0 0 0 0 0 0 0 0 0 0 0 0 0 0 0 0 127 0" result="hardAlpha"/>
<feOffset/>
<feGaussianBlur stdDeviation="8.76087"/>
<feComposite in2="hardAlpha" operator="out"/>
<feColorMatrix type="matrix" values="0 0 0 0 0.695833 0 0 0 0 0.695833 0 0 0 0 0.695833 0 0 0 0.2 0"/>
<feBlend mode="normal" in2="BackgroundImageFix" result="effect1_dropShadow_300_1229"/>
<feBlend mode="normal" in="SourceGraphic" in2="effect1_dropShadow_300_1229" result="shape"/>
</filter>
<linearGradient id="paint0_linear_300_1229" x1="42" y1="148" x2="78.3488" y2="148.703" gradientUnits="userSpaceOnUse">
<stop stop-color="#30C917"/>
<stop offset="1" stop-color="#279A13"/>
</linearGradient>
<linearGradient id="paint1_linear_300_1229" x1="113" y1="86.25" x2="149.357" y2="86.691" gradientUnits="userSpaceOnUse">
<stop stop-color="#30C917"/>
<stop offset="1" stop-color="#279A13"/>
</linearGradient>
<linearGradient id="paint2_linear_300_1229" x1="184" y1="181.312" x2="220.333" y2="182.346" gradientUnits="userSpaceOnUse">
<stop stop-color="#30C917"/>
<stop offset="1" stop-color="#279A13"/>
</linearGradient>
<linearGradient id="paint3_linear_300_1229" x1="255" y1="127.687" x2="291.353" y2="128.275" gradientUnits="userSpaceOnUse">
<stop stop-color="#30C917"/>
<stop offset="1" stop-color="#279A13"/>
</linearGradient>
</defs>
</svg>
