<svg width="166" height="166" viewBox="0 0 166 166" fill="none" xmlns="http://www.w3.org/2000/svg">
<g filter="url(#filter0_d_300_165)">
<circle cx="83" cy="79" r="55" fill="white" fill-opacity="0.64" shape-rendering="crispEdges"/>
</g>
<g filter="url(#filter1_d_300_165)">
<circle cx="83" cy="79" r="46" fill="white"/>
</g>
<path d="M97.7268 99.8093L99.0089 100.035C100.01 100.212 101.042 100.011 101.904 99.4728L106.849 96.3848C108.828 95.1483 110.19 93.1301 110.595 90.8316L112.337 80.9531C112.454 80.2875 112.01 79.653 111.344 79.5358L91.8646 76.1008C91.199 75.9836 90.5646 76.4276 90.4474 77.0932L88.7051 86.9722C88.3 89.2702 88.8892 91.6327 90.3265 93.4715L93.9168 98.0643C94.543 98.8654 95.4434 99.4065 96.445 99.5832L97.7268 99.8093Z" fill="#C4D3D6"/>
<path d="M102.927 70.3184L100.19 69.8359L98.8682 77.3355L104.34 78.3004L105.663 70.8009L102.927 70.3184Z" fill="#C4D3D6"/>
<path d="M105.554 55.4239L102.817 54.9414L100.19 69.8384L102.927 70.3209L105.663 70.8034L108.29 55.9064L105.554 55.4239Z" fill="#F4AC03"/>
<path d="M112.522 53.8299L112.792 52.2986C112.909 51.633 112.465 50.9986 111.8 50.8814L101.238 49.0188C100.572 48.9016 99.9379 49.3456 99.8203 50.0112L99.5502 51.5424L99.2806 53.0736C99.163 53.7392 99.6074 54.3737 100.273 54.4909L110.835 56.3535C111.5 56.4707 112.135 56.0267 112.252 55.3611L112.522 53.8299Z" fill="#5DBCD9"/>
<path d="M94.502 83.7695C94.2832 83.3126 93.7357 83.119 93.2784 83.3373L87.6584 86.0235C86.0338 86.6392 84.7475 87.644 83.8251 88.5632V72.5428C83.8251 72.0361 83.4145 71.625 82.9077 71.625C82.401 71.625 81.9899 72.0361 81.9899 72.5428V86.728C81.0675 85.8088 79.7817 84.804 78.1571 84.1883L72.5371 81.5022C72.0798 81.2838 71.5318 81.4774 71.3135 81.9348C71.0951 82.3916 71.2883 82.9395 71.7456 83.1579L77.3409 85.8322C77.3761 85.8509 77.4123 85.8683 77.4507 85.8825C79.9378 86.8022 81.5386 88.9184 81.9899 89.5771V96.5223C81.9899 97.0291 82.401 97.4397 82.9077 97.4397C83.4145 97.4397 83.8251 97.0291 83.8251 96.5223V91.4123C84.2769 90.7536 85.8777 88.6373 88.3643 87.7177C88.4027 87.7035 88.4393 87.6861 88.4746 87.6678L94.0698 84.9935C94.5267 84.7747 94.7203 84.2268 94.502 83.7695Z" fill="#378900"/>
<path d="M102.727 109H111.585C112.41 109 113.009 108.197 112.754 107.413C112.086 105.351 110.15 103.861 107.865 103.861C107.246 103.861 106.652 103.971 106.102 104.172C104.499 101.633 101.67 99.9459 98.4447 99.9459C97.9576 99.9459 97.4793 99.9857 97.0128 100.06C96.5445 97.3545 94.188 95.2969 91.3489 95.2969C89.2624 95.2969 87.4355 96.4083 86.4275 98.0714C85.5555 97.1183 84.3012 96.5205 82.9073 96.5205C81.5129 96.5205 80.2591 97.1183 79.3866 98.0714C78.3786 96.4083 76.5517 95.2969 74.4652 95.2969C71.6262 95.2969 69.2696 97.3545 68.8013 100.06C68.3348 99.9857 67.8565 99.9459 67.3694 99.9459C64.1445 99.9459 61.316 101.633 59.712 104.172C59.1622 103.971 58.568 103.861 57.9486 103.861C55.6649 103.861 53.7285 105.351 53.0602 107.413C52.8057 108.197 53.4044 109 54.2289 109H102.727Z" fill="#915431"/>
<path d="M66.8802 103.863C66.8802 104.269 66.5515 104.597 66.1459 104.597C65.7408 104.597 65.4121 104.269 65.4121 103.863C65.4121 103.458 65.7408 103.129 66.1459 103.129C66.5515 103.129 66.8802 103.458 66.8802 103.863Z" fill="#915431"/>
<g filter="url(#filter2_d_300_165)">
<circle cx="71" cy="82" r="5" fill="url(#paint0_linear_300_165)"/>
<mask id="path-11-outside-1_300_165" maskUnits="userSpaceOnUse" x="66.0322" y="78.8125" width="10" height="8" fill="black">
<rect fill="white" x="66.0322" y="78.8125" width="10" height="8"/>
<path d="M73.0626 80.5958C72.9476 80.5969 72.8329 80.6065 72.7195 80.6247C72.6061 80.6429 72.4944 80.6707 72.3854 80.706C72.1675 80.7774 71.9599 80.8815 71.7757 81.0178C71.5905 81.1531 71.4268 81.3154 71.266 81.4792C71.1056 81.6436 70.9454 81.802 70.7708 81.9534C71.1233 82.1667 71.5214 82.2896 71.9306 82.3341C72.3394 82.3797 72.7576 82.3356 73.1484 82.209C73.5393 82.0825 73.9028 81.872 74.2059 81.5952C74.509 81.3187 74.7588 81.0077 74.9134 80.628C74.6337 80.3665 74.3007 80.1626 73.9403 80.034C73.58 79.905 73.1925 79.8548 72.8114 79.881C72.6207 79.8943 72.4319 79.9303 72.2486 79.984C72.0655 80.0389 71.8882 80.1128 71.721 80.2053C71.638 80.2522 71.5569 80.3025 71.4794 80.3587C71.402 80.4148 71.3266 80.4737 71.2541 80.5367C71.1087 80.6618 70.9719 80.7975 70.8365 80.9352C70.701 81.0727 70.5664 81.2122 70.4249 81.3457C70.3541 81.4124 70.2818 81.4777 70.2065 81.5397C70.1313 81.602 70.0538 81.6616 69.9723 81.7159C69.952 81.7297 69.9318 81.7436 69.9108 81.7561C69.8899 81.769 69.8694 81.7823 69.8482 81.7946L69.784 81.8307C69.7628 81.8431 69.7404 81.8531 69.7186 81.8644L69.6857 81.8811C69.6747 81.8864 69.6632 81.8911 69.6521 81.8961C69.6295 81.9059 69.6074 81.9164 69.5846 81.9256C69.5387 81.9432 69.493 81.9616 69.4459 81.9756C69.3995 81.9917 69.3513 82.0026 69.304 82.0154L69.2316 82.0302L69.1954 82.0374L69.1589 82.0429C69.0616 82.0575 68.9632 82.0642 68.8649 82.0633C68.6683 82.0614 68.4724 82.0291 68.2854 81.969C68.1919 81.9388 68.1007 81.9016 68.0129 81.8578C67.9252 81.8136 67.8406 81.7632 67.7601 81.7071C67.4392 81.4811 67.1847 81.1615 67.0404 80.796L67.0322 80.7751L67.0503 80.7621C67.3199 80.5669 67.6442 80.4544 67.9735 80.4252C68.3032 80.396 68.6394 80.4513 68.9433 80.5806C69.0952 80.6456 69.2389 80.7289 69.3725 80.8256C69.5059 80.9228 69.6278 81.0349 69.7391 81.156C69.9608 81.3998 70.1371 81.682 70.2714 81.9814C70.339 82.131 70.3957 82.2854 70.4424 82.4427C70.4664 82.5212 70.4864 82.6008 70.5053 82.6805C70.5229 82.7605 70.5394 82.8411 70.5518 82.9221C70.5764 83.084 70.5955 83.2465 70.6098 83.4094C70.618 83.4907 70.6233 83.5724 70.6299 83.6538C70.6351 83.7355 70.6414 83.8169 70.6454 83.8985C70.6638 84.2249 70.6741 84.5515 70.6774 84.8783C70.6812 85.205 70.6776 85.5318 70.665 85.8583C70.6693 85.695 70.671 85.5316 70.671 85.3684C70.6704 85.2051 70.669 85.0417 70.6654 84.8785C70.6588 84.552 70.6453 84.2257 70.6238 83.8998C70.6189 83.8183 70.6119 83.737 70.6059 83.6556C70.5984 83.5743 70.5924 83.4929 70.5835 83.4118C70.5676 83.2495 70.5469 83.0875 70.5209 82.9269C70.4939 82.7665 70.4562 82.608 70.4089 82.4524C70.3616 82.2969 70.3047 82.1443 70.2369 81.9966C70.1025 81.7012 69.9265 81.4235 69.707 81.1851C69.5967 81.0666 69.4765 80.9572 69.3452 80.8628C69.2138 80.7688 69.0729 80.6883 68.9242 80.6257C68.6266 80.5012 68.2992 80.4495 67.9784 80.4798C67.6583 80.5103 67.354 80.5975 67.094 80.7866C67.2348 81.1409 67.4828 81.4392 67.7945 81.6579C67.8728 81.7122 67.9548 81.7608 68.0399 81.8035C68.125 81.8457 68.2135 81.8817 68.3042 81.9107C68.4855 81.9687 68.6754 81.9996 68.8655 82.001C68.9606 82.0018 69.0556 81.995 69.1494 81.9807L69.1846 81.9754L69.2196 81.9683L69.2894 81.9539C69.3352 81.9413 69.3816 81.931 69.4265 81.9151C69.472 81.9015 69.5161 81.8836 69.5605 81.8666C69.5824 81.8577 69.6039 81.8475 69.6257 81.8379C69.6365 81.833 69.6475 81.8285 69.6582 81.8231L69.69 81.807C69.7111 81.796 69.7329 81.7861 69.7534 81.774L69.8155 81.7389C69.8361 81.7268 69.856 81.7137 69.8764 81.7012C69.8968 81.6889 69.9166 81.6754 69.9362 81.6619C70.0156 81.6089 70.0913 81.5503 70.1649 81.4891C70.2388 81.4282 70.31 81.3635 70.3798 81.2975C70.5198 81.1655 70.6531 81.0258 70.7893 80.8881C70.9253 80.7503 71.0637 80.6136 71.2118 80.4867C71.2855 80.423 71.3627 80.3629 71.4419 80.3056C71.5211 80.2483 71.6047 80.1967 71.6901 80.1488C71.8615 80.0545 72.0432 79.9791 72.2307 79.9232C72.4185 79.8686 72.6117 79.8323 72.8069 79.819C73.1969 79.7929 73.5924 79.8451 73.9604 79.9775C74.3283 80.1095 74.6679 80.3185 74.9528 80.5859L74.9674 80.5996L74.9599 80.6178C74.9194 80.7143 74.8745 80.809 74.8245 80.901C74.7733 80.9923 74.7183 81.0813 74.6579 81.1669C74.5967 81.2518 74.5319 81.334 74.4624 81.4121C74.3923 81.4896 74.319 81.5643 74.2414 81.6343C73.9309 81.9145 73.5601 82.1261 73.1624 82.2523C72.7647 82.3785 72.3405 82.4206 71.9263 82.3719C71.5122 82.3243 71.1093 82.1835 70.7556 81.9639L70.7385 81.9534L70.7537 81.9406C70.9281 81.7921 71.0877 81.6265 71.25 81.4634C71.4126 81.3009 71.5785 81.1394 71.7665 81.0049C71.9535 80.8696 72.1631 80.7663 72.3828 80.6975C72.4928 80.6635 72.6053 80.6371 72.719 80.6203C72.8326 80.6037 72.9478 80.5955 73.0626 80.5958Z"/>
</mask>
<path d="M73.0626 80.5958C72.9476 80.5969 72.8329 80.6065 72.7195 80.6247C72.6061 80.6429 72.4944 80.6707 72.3854 80.706C72.1675 80.7774 71.9599 80.8815 71.7757 81.0178C71.5905 81.1531 71.4268 81.3154 71.266 81.4792C71.1056 81.6436 70.9454 81.802 70.7708 81.9534C71.1233 82.1667 71.5214 82.2896 71.9306 82.3341C72.3394 82.3797 72.7576 82.3356 73.1484 82.209C73.5393 82.0825 73.9028 81.872 74.2059 81.5952C74.509 81.3187 74.7588 81.0077 74.9134 80.628C74.6337 80.3665 74.3007 80.1626 73.9403 80.034C73.58 79.905 73.1925 79.8548 72.8114 79.881C72.6207 79.8943 72.4319 79.9303 72.2486 79.984C72.0655 80.0389 71.8882 80.1128 71.721 80.2053C71.638 80.2522 71.5569 80.3025 71.4794 80.3587C71.402 80.4148 71.3266 80.4737 71.2541 80.5367C71.1087 80.6618 70.9719 80.7975 70.8365 80.9352C70.701 81.0727 70.5664 81.2122 70.4249 81.3457C70.3541 81.4124 70.2818 81.4777 70.2065 81.5397C70.1313 81.602 70.0538 81.6616 69.9723 81.7159C69.952 81.7297 69.9318 81.7436 69.9108 81.7561C69.8899 81.769 69.8694 81.7823 69.8482 81.7946L69.784 81.8307C69.7628 81.8431 69.7404 81.8531 69.7186 81.8644L69.6857 81.8811C69.6747 81.8864 69.6632 81.8911 69.6521 81.8961C69.6295 81.9059 69.6074 81.9164 69.5846 81.9256C69.5387 81.9432 69.493 81.9616 69.4459 81.9756C69.3995 81.9917 69.3513 82.0026 69.304 82.0154L69.2316 82.0302L69.1954 82.0374L69.1589 82.0429C69.0616 82.0575 68.9632 82.0642 68.8649 82.0633C68.6683 82.0614 68.4724 82.0291 68.2854 81.969C68.1919 81.9388 68.1007 81.9016 68.0129 81.8578C67.9252 81.8136 67.8406 81.7632 67.7601 81.7071C67.4392 81.4811 67.1847 81.1615 67.0404 80.796L67.0322 80.7751L67.0503 80.7621C67.3199 80.5669 67.6442 80.4544 67.9735 80.4252C68.3032 80.396 68.6394 80.4513 68.9433 80.5806C69.0952 80.6456 69.2389 80.7289 69.3725 80.8256C69.5059 80.9228 69.6278 81.0349 69.7391 81.156C69.9608 81.3998 70.1371 81.682 70.2714 81.9814C70.339 82.131 70.3957 82.2854 70.4424 82.4427C70.4664 82.5212 70.4864 82.6008 70.5053 82.6805C70.5229 82.7605 70.5394 82.8411 70.5518 82.9221C70.5764 83.084 70.5955 83.2465 70.6098 83.4094C70.618 83.4907 70.6233 83.5724 70.6299 83.6538C70.6351 83.7355 70.6414 83.8169 70.6454 83.8985C70.6638 84.2249 70.6741 84.5515 70.6774 84.8783C70.6812 85.205 70.6776 85.5318 70.665 85.8583C70.6693 85.695 70.671 85.5316 70.671 85.3684C70.6704 85.2051 70.669 85.0417 70.6654 84.8785C70.6588 84.552 70.6453 84.2257 70.6238 83.8998C70.6189 83.8183 70.6119 83.737 70.6059 83.6556C70.5984 83.5743 70.5924 83.4929 70.5835 83.4118C70.5676 83.2495 70.5469 83.0875 70.5209 82.9269C70.4939 82.7665 70.4562 82.608 70.4089 82.4524C70.3616 82.2969 70.3047 82.1443 70.2369 81.9966C70.1025 81.7012 69.9265 81.4235 69.707 81.1851C69.5967 81.0666 69.4765 80.9572 69.3452 80.8628C69.2138 80.7688 69.0729 80.6883 68.9242 80.6257C68.6266 80.5012 68.2992 80.4495 67.9784 80.4798C67.6583 80.5103 67.354 80.5975 67.094 80.7866C67.2348 81.1409 67.4828 81.4392 67.7945 81.6579C67.8728 81.7122 67.9548 81.7608 68.0399 81.8035C68.125 81.8457 68.2135 81.8817 68.3042 81.9107C68.4855 81.9687 68.6754 81.9996 68.8655 82.001C68.9606 82.0018 69.0556 81.995 69.1494 81.9807L69.1846 81.9754L69.2196 81.9683L69.2894 81.9539C69.3352 81.9413 69.3816 81.931 69.4265 81.9151C69.472 81.9015 69.5161 81.8836 69.5605 81.8666C69.5824 81.8577 69.6039 81.8475 69.6257 81.8379C69.6365 81.833 69.6475 81.8285 69.6582 81.8231L69.69 81.807C69.7111 81.796 69.7329 81.7861 69.7534 81.774L69.8155 81.7389C69.8361 81.7268 69.856 81.7137 69.8764 81.7012C69.8968 81.6889 69.9166 81.6754 69.9362 81.6619C70.0156 81.6089 70.0913 81.5503 70.1649 81.4891C70.2388 81.4282 70.31 81.3635 70.3798 81.2975C70.5198 81.1655 70.6531 81.0258 70.7893 80.8881C70.9253 80.7503 71.0637 80.6136 71.2118 80.4867C71.2855 80.423 71.3627 80.3629 71.4419 80.3056C71.5211 80.2483 71.6047 80.1967 71.6901 80.1488C71.8615 80.0545 72.0432 79.9791 72.2307 79.9232C72.4185 79.8686 72.6117 79.8323 72.8069 79.819C73.1969 79.7929 73.5924 79.8451 73.9604 79.9775C74.3283 80.1095 74.6679 80.3185 74.9528 80.5859L74.9674 80.5996L74.9599 80.6178C74.9194 80.7143 74.8745 80.809 74.8245 80.901C74.7733 80.9923 74.7183 81.0813 74.6579 81.1669C74.5967 81.2518 74.5319 81.334 74.4624 81.4121C74.3923 81.4896 74.319 81.5643 74.2414 81.6343C73.9309 81.9145 73.5601 82.1261 73.1624 82.2523C72.7647 82.3785 72.3405 82.4206 71.9263 82.3719C71.5122 82.3243 71.1093 82.1835 70.7556 81.9639L70.7385 81.9534L70.7537 81.9406C70.9281 81.7921 71.0877 81.6265 71.25 81.4634C71.4126 81.3009 71.5785 81.1394 71.7665 81.0049C71.9535 80.8696 72.1631 80.7663 72.3828 80.6975C72.4928 80.6635 72.6053 80.6371 72.719 80.6203C72.8326 80.6037 72.9478 80.5955 73.0626 80.5958Z" fill="white"/>
<path d="M73.0626 80.5958C72.9476 80.5969 72.8329 80.6065 72.7195 80.6247C72.6061 80.6429 72.4944 80.6707 72.3854 80.706C72.1675 80.7774 71.9599 80.8815 71.7757 81.0178C71.5905 81.1531 71.4268 81.3154 71.266 81.4792C71.1056 81.6436 70.9454 81.802 70.7708 81.9534C71.1233 82.1667 71.5214 82.2896 71.9306 82.3341C72.3394 82.3797 72.7576 82.3356 73.1484 82.209C73.5393 82.0825 73.9028 81.872 74.2059 81.5952C74.509 81.3187 74.7588 81.0077 74.9134 80.628C74.6337 80.3665 74.3007 80.1626 73.9403 80.034C73.58 79.905 73.1925 79.8548 72.8114 79.881C72.6207 79.8943 72.4319 79.9303 72.2486 79.984C72.0655 80.0389 71.8882 80.1128 71.721 80.2053C71.638 80.2522 71.5569 80.3025 71.4794 80.3587C71.402 80.4148 71.3266 80.4737 71.2541 80.5367C71.1087 80.6618 70.9719 80.7975 70.8365 80.9352C70.701 81.0727 70.5664 81.2122 70.4249 81.3457C70.3541 81.4124 70.2818 81.4777 70.2065 81.5397C70.1313 81.602 70.0538 81.6616 69.9723 81.7159C69.952 81.7297 69.9318 81.7436 69.9108 81.7561C69.8899 81.769 69.8694 81.7823 69.8482 81.7946L69.784 81.8307C69.7628 81.8431 69.7404 81.8531 69.7186 81.8644L69.6857 81.8811C69.6747 81.8864 69.6632 81.8911 69.6521 81.8961C69.6295 81.9059 69.6074 81.9164 69.5846 81.9256C69.5387 81.9432 69.493 81.9616 69.4459 81.9756C69.3995 81.9917 69.3513 82.0026 69.304 82.0154L69.2316 82.0302L69.1954 82.0374L69.1589 82.0429C69.0616 82.0575 68.9632 82.0642 68.8649 82.0633C68.6683 82.0614 68.4724 82.0291 68.2854 81.969C68.1919 81.9388 68.1007 81.9016 68.0129 81.8578C67.9252 81.8136 67.8406 81.7632 67.7601 81.7071C67.4392 81.4811 67.1847 81.1615 67.0404 80.796L67.0322 80.7751L67.0503 80.7621C67.3199 80.5669 67.6442 80.4544 67.9735 80.4252C68.3032 80.396 68.6394 80.4513 68.9433 80.5806C69.0952 80.6456 69.2389 80.7289 69.3725 80.8256C69.5059 80.9228 69.6278 81.0349 69.7391 81.156C69.9608 81.3998 70.1371 81.682 70.2714 81.9814C70.339 82.131 70.3957 82.2854 70.4424 82.4427C70.4664 82.5212 70.4864 82.6008 70.5053 82.6805C70.5229 82.7605 70.5394 82.8411 70.5518 82.9221C70.5764 83.084 70.5955 83.2465 70.6098 83.4094C70.618 83.4907 70.6233 83.5724 70.6299 83.6538C70.6351 83.7355 70.6414 83.8169 70.6454 83.8985C70.6638 84.2249 70.6741 84.5515 70.6774 84.8783C70.6812 85.205 70.6776 85.5318 70.665 85.8583C70.6693 85.695 70.671 85.5316 70.671 85.3684C70.6704 85.2051 70.669 85.0417 70.6654 84.8785C70.6588 84.552 70.6453 84.2257 70.6238 83.8998C70.6189 83.8183 70.6119 83.737 70.6059 83.6556C70.5984 83.5743 70.5924 83.4929 70.5835 83.4118C70.5676 83.2495 70.5469 83.0875 70.5209 82.9269C70.4939 82.7665 70.4562 82.608 70.4089 82.4524C70.3616 82.2969 70.3047 82.1443 70.2369 81.9966C70.1025 81.7012 69.9265 81.4235 69.707 81.1851C69.5967 81.0666 69.4765 80.9572 69.3452 80.8628C69.2138 80.7688 69.0729 80.6883 68.9242 80.6257C68.6266 80.5012 68.2992 80.4495 67.9784 80.4798C67.6583 80.5103 67.354 80.5975 67.094 80.7866C67.2348 81.1409 67.4828 81.4392 67.7945 81.6579C67.8728 81.7122 67.9548 81.7608 68.0399 81.8035C68.125 81.8457 68.2135 81.8817 68.3042 81.9107C68.4855 81.9687 68.6754 81.9996 68.8655 82.001C68.9606 82.0018 69.0556 81.995 69.1494 81.9807L69.1846 81.9754L69.2196 81.9683L69.2894 81.9539C69.3352 81.9413 69.3816 81.931 69.4265 81.9151C69.472 81.9015 69.5161 81.8836 69.5605 81.8666C69.5824 81.8577 69.6039 81.8475 69.6257 81.8379C69.6365 81.833 69.6475 81.8285 69.6582 81.8231L69.69 81.807C69.7111 81.796 69.7329 81.7861 69.7534 81.774L69.8155 81.7389C69.8361 81.7268 69.856 81.7137 69.8764 81.7012C69.8968 81.6889 69.9166 81.6754 69.9362 81.6619C70.0156 81.6089 70.0913 81.5503 70.1649 81.4891C70.2388 81.4282 70.31 81.3635 70.3798 81.2975C70.5198 81.1655 70.6531 81.0258 70.7893 80.8881C70.9253 80.7503 71.0637 80.6136 71.2118 80.4867C71.2855 80.423 71.3627 80.3629 71.4419 80.3056C71.5211 80.2483 71.6047 80.1967 71.6901 80.1488C71.8615 80.0545 72.0432 79.9791 72.2307 79.9232C72.4185 79.8686 72.6117 79.8323 72.8069 79.819C73.1969 79.7929 73.5924 79.8451 73.9604 79.9775C74.3283 80.1095 74.6679 80.3185 74.9528 80.5859L74.9674 80.5996L74.9599 80.6178C74.9194 80.7143 74.8745 80.809 74.8245 80.901C74.7733 80.9923 74.7183 81.0813 74.6579 81.1669C74.5967 81.2518 74.5319 81.334 74.4624 81.4121C74.3923 81.4896 74.319 81.5643 74.2414 81.6343C73.9309 81.9145 73.5601 82.1261 73.1624 82.2523C72.7647 82.3785 72.3405 82.4206 71.9263 82.3719C71.5122 82.3243 71.1093 82.1835 70.7556 81.9639L70.7385 81.9534L70.7537 81.9406C70.9281 81.7921 71.0877 81.6265 71.25 81.4634C71.4126 81.3009 71.5785 81.1394 71.7665 81.0049C71.9535 80.8696 72.1631 80.7663 72.3828 80.6975C72.4928 80.6635 72.6053 80.6371 72.719 80.6203C72.8326 80.6037 72.9478 80.5955 73.0626 80.5958Z" stroke="white" stroke-width="0.170455" mask="url(#path-11-outside-1_300_165)"/>
</g>
<g filter="url(#filter3_d_300_165)">
<circle cx="96" cy="82" r="5" fill="url(#paint1_linear_300_165)"/>
<mask id="path-13-outside-2_300_165" maskUnits="userSpaceOnUse" x="91.0322" y="78.8125" width="10" height="8" fill="black">
<rect fill="white" x="91.0322" y="78.8125" width="10" height="8"/>
<path d="M98.0626 80.5958C97.9476 80.5969 97.8329 80.6065 97.7195 80.6247C97.6061 80.6429 97.4944 80.6707 97.3854 80.706C97.1675 80.7774 96.9599 80.8815 96.7757 81.0178C96.5905 81.1531 96.4268 81.3154 96.266 81.4792C96.1056 81.6436 95.9454 81.802 95.7708 81.9534C96.1233 82.1667 96.5214 82.2896 96.9306 82.3341C97.3394 82.3797 97.7576 82.3356 98.1484 82.209C98.5393 82.0825 98.9028 81.872 99.2059 81.5952C99.509 81.3187 99.7588 81.0077 99.9134 80.628C99.6337 80.3665 99.3007 80.1626 98.9403 80.034C98.58 79.905 98.1925 79.8548 97.8114 79.881C97.6207 79.8943 97.4319 79.9303 97.2486 79.984C97.0655 80.0389 96.8882 80.1128 96.721 80.2053C96.638 80.2522 96.5569 80.3025 96.4794 80.3587C96.402 80.4148 96.3266 80.4737 96.2541 80.5367C96.1087 80.6618 95.9719 80.7975 95.8365 80.9352C95.701 81.0727 95.5664 81.2122 95.4249 81.3457C95.3541 81.4124 95.2818 81.4777 95.2065 81.5397C95.1313 81.602 95.0538 81.6616 94.9723 81.7159C94.952 81.7297 94.9318 81.7436 94.9108 81.7561C94.8899 81.769 94.8694 81.7823 94.8482 81.7946L94.784 81.8307C94.7628 81.8431 94.7404 81.8531 94.7186 81.8644L94.6857 81.8811C94.6747 81.8864 94.6632 81.8911 94.6521 81.8961C94.6295 81.9059 94.6074 81.9164 94.5846 81.9256C94.5387 81.9432 94.493 81.9616 94.4459 81.9756C94.3995 81.9917 94.3513 82.0026 94.304 82.0154L94.2316 82.0302L94.1954 82.0374L94.1589 82.0429C94.0616 82.0575 93.9632 82.0642 93.8649 82.0633C93.6683 82.0614 93.4724 82.0291 93.2854 81.969C93.1919 81.9388 93.1007 81.9016 93.0129 81.8578C92.9252 81.8136 92.8406 81.7632 92.7601 81.7071C92.4392 81.4811 92.1847 81.1615 92.0404 80.796L92.0322 80.7751L92.0503 80.7621C92.3199 80.5669 92.6442 80.4544 92.9735 80.4252C93.3032 80.396 93.6394 80.4513 93.9433 80.5806C94.0952 80.6456 94.2389 80.7289 94.3725 80.8256C94.5059 80.9228 94.6278 81.0349 94.7391 81.156C94.9608 81.3998 95.1371 81.682 95.2714 81.9814C95.339 82.131 95.3957 82.2854 95.4424 82.4427C95.4664 82.5212 95.4864 82.6008 95.5053 82.6805C95.5229 82.7605 95.5394 82.8411 95.5518 82.9221C95.5764 83.084 95.5955 83.2465 95.6098 83.4094C95.618 83.4907 95.6233 83.5724 95.6299 83.6538C95.6351 83.7355 95.6414 83.8169 95.6454 83.8985C95.6638 84.2249 95.6741 84.5515 95.6774 84.8783C95.6812 85.205 95.6776 85.5318 95.665 85.8583C95.6693 85.695 95.671 85.5316 95.671 85.3684C95.6704 85.2051 95.669 85.0417 95.6654 84.8785C95.6588 84.552 95.6453 84.2257 95.6238 83.8998C95.6189 83.8183 95.6119 83.737 95.6059 83.6556C95.5984 83.5743 95.5924 83.4929 95.5835 83.4118C95.5676 83.2495 95.5469 83.0875 95.5209 82.9269C95.4939 82.7665 95.4562 82.608 95.4089 82.4524C95.3616 82.2969 95.3047 82.1443 95.2369 81.9966C95.1025 81.7012 94.9265 81.4235 94.707 81.1851C94.5967 81.0666 94.4765 80.9572 94.3452 80.8628C94.2138 80.7688 94.0729 80.6883 93.9242 80.6257C93.6266 80.5012 93.2992 80.4495 92.9784 80.4798C92.6583 80.5103 92.354 80.5975 92.094 80.7866C92.2348 81.1409 92.4828 81.4392 92.7945 81.6579C92.8728 81.7122 92.9548 81.7608 93.0399 81.8035C93.125 81.8457 93.2135 81.8817 93.3042 81.9107C93.4855 81.9687 93.6754 81.9996 93.8655 82.001C93.9606 82.0018 94.0556 81.995 94.1494 81.9807L94.1846 81.9754L94.2196 81.9683L94.2894 81.9539C94.3352 81.9413 94.3816 81.931 94.4265 81.9151C94.472 81.9015 94.5161 81.8836 94.5605 81.8666C94.5824 81.8577 94.6039 81.8475 94.6257 81.8379C94.6365 81.833 94.6475 81.8285 94.6582 81.8231L94.69 81.807C94.7111 81.796 94.7329 81.7861 94.7534 81.774L94.8155 81.7389C94.8361 81.7268 94.856 81.7137 94.8764 81.7012C94.8968 81.6889 94.9166 81.6754 94.9362 81.6619C95.0156 81.6089 95.0913 81.5503 95.1649 81.4891C95.2388 81.4282 95.31 81.3635 95.3798 81.2975C95.5198 81.1655 95.6531 81.0258 95.7893 80.8881C95.9253 80.7503 96.0637 80.6136 96.2118 80.4867C96.2855 80.423 96.3627 80.3629 96.4419 80.3056C96.5211 80.2483 96.6047 80.1967 96.6901 80.1488C96.8615 80.0545 97.0432 79.9791 97.2307 79.9232C97.4185 79.8686 97.6117 79.8323 97.8069 79.819C98.1969 79.7929 98.5924 79.8451 98.9604 79.9775C99.3283 80.1095 99.6679 80.3185 99.9528 80.5859L99.9674 80.5996L99.9599 80.6178C99.9194 80.7143 99.8745 80.809 99.8245 80.901C99.7733 80.9923 99.7183 81.0813 99.6579 81.1669C99.5967 81.2518 99.5319 81.334 99.4624 81.4121C99.3923 81.4896 99.319 81.5643 99.2414 81.6343C98.9309 81.9145 98.5601 82.1261 98.1624 82.2523C97.7647 82.3785 97.3405 82.4206 96.9263 82.3719C96.5122 82.3243 96.1093 82.1835 95.7556 81.9639L95.7385 81.9534L95.7537 81.9406C95.9281 81.7921 96.0877 81.6265 96.25 81.4634C96.4126 81.3009 96.5785 81.1394 96.7665 81.0049C96.9535 80.8696 97.1631 80.7663 97.3828 80.6975C97.4928 80.6635 97.6053 80.6371 97.719 80.6203C97.8326 80.6037 97.9478 80.5955 98.0626 80.5958Z"/>
</mask>
<path d="M98.0626 80.5958C97.9476 80.5969 97.8329 80.6065 97.7195 80.6247C97.6061 80.6429 97.4944 80.6707 97.3854 80.706C97.1675 80.7774 96.9599 80.8815 96.7757 81.0178C96.5905 81.1531 96.4268 81.3154 96.266 81.4792C96.1056 81.6436 95.9454 81.802 95.7708 81.9534C96.1233 82.1667 96.5214 82.2896 96.9306 82.3341C97.3394 82.3797 97.7576 82.3356 98.1484 82.209C98.5393 82.0825 98.9028 81.872 99.2059 81.5952C99.509 81.3187 99.7588 81.0077 99.9134 80.628C99.6337 80.3665 99.3007 80.1626 98.9403 80.034C98.58 79.905 98.1925 79.8548 97.8114 79.881C97.6207 79.8943 97.4319 79.9303 97.2486 79.984C97.0655 80.0389 96.8882 80.1128 96.721 80.2053C96.638 80.2522 96.5569 80.3025 96.4794 80.3587C96.402 80.4148 96.3266 80.4737 96.2541 80.5367C96.1087 80.6618 95.9719 80.7975 95.8365 80.9352C95.701 81.0727 95.5664 81.2122 95.4249 81.3457C95.3541 81.4124 95.2818 81.4777 95.2065 81.5397C95.1313 81.602 95.0538 81.6616 94.9723 81.7159C94.952 81.7297 94.9318 81.7436 94.9108 81.7561C94.8899 81.769 94.8694 81.7823 94.8482 81.7946L94.784 81.8307C94.7628 81.8431 94.7404 81.8531 94.7186 81.8644L94.6857 81.8811C94.6747 81.8864 94.6632 81.8911 94.6521 81.8961C94.6295 81.9059 94.6074 81.9164 94.5846 81.9256C94.5387 81.9432 94.493 81.9616 94.4459 81.9756C94.3995 81.9917 94.3513 82.0026 94.304 82.0154L94.2316 82.0302L94.1954 82.0374L94.1589 82.0429C94.0616 82.0575 93.9632 82.0642 93.8649 82.0633C93.6683 82.0614 93.4724 82.0291 93.2854 81.969C93.1919 81.9388 93.1007 81.9016 93.0129 81.8578C92.9252 81.8136 92.8406 81.7632 92.7601 81.7071C92.4392 81.4811 92.1847 81.1615 92.0404 80.796L92.0322 80.7751L92.0503 80.7621C92.3199 80.5669 92.6442 80.4544 92.9735 80.4252C93.3032 80.396 93.6394 80.4513 93.9433 80.5806C94.0952 80.6456 94.2389 80.7289 94.3725 80.8256C94.5059 80.9228 94.6278 81.0349 94.7391 81.156C94.9608 81.3998 95.1371 81.682 95.2714 81.9814C95.339 82.131 95.3957 82.2854 95.4424 82.4427C95.4664 82.5212 95.4864 82.6008 95.5053 82.6805C95.5229 82.7605 95.5394 82.8411 95.5518 82.9221C95.5764 83.084 95.5955 83.2465 95.6098 83.4094C95.618 83.4907 95.6233 83.5724 95.6299 83.6538C95.6351 83.7355 95.6414 83.8169 95.6454 83.8985C95.6638 84.2249 95.6741 84.5515 95.6774 84.8783C95.6812 85.205 95.6776 85.5318 95.665 85.8583C95.6693 85.695 95.671 85.5316 95.671 85.3684C95.6704 85.2051 95.669 85.0417 95.6654 84.8785C95.6588 84.552 95.6453 84.2257 95.6238 83.8998C95.6189 83.8183 95.6119 83.737 95.6059 83.6556C95.5984 83.5743 95.5924 83.4929 95.5835 83.4118C95.5676 83.2495 95.5469 83.0875 95.5209 82.9269C95.4939 82.7665 95.4562 82.608 95.4089 82.4524C95.3616 82.2969 95.3047 82.1443 95.2369 81.9966C95.1025 81.7012 94.9265 81.4235 94.707 81.1851C94.5967 81.0666 94.4765 80.9572 94.3452 80.8628C94.2138 80.7688 94.0729 80.6883 93.9242 80.6257C93.6266 80.5012 93.2992 80.4495 92.9784 80.4798C92.6583 80.5103 92.354 80.5975 92.094 80.7866C92.2348 81.1409 92.4828 81.4392 92.7945 81.6579C92.8728 81.7122 92.9548 81.7608 93.0399 81.8035C93.125 81.8457 93.2135 81.8817 93.3042 81.9107C93.4855 81.9687 93.6754 81.9996 93.8655 82.001C93.9606 82.0018 94.0556 81.995 94.1494 81.9807L94.1846 81.9754L94.2196 81.9683L94.2894 81.9539C94.3352 81.9413 94.3816 81.931 94.4265 81.9151C94.472 81.9015 94.5161 81.8836 94.5605 81.8666C94.5824 81.8577 94.6039 81.8475 94.6257 81.8379C94.6365 81.833 94.6475 81.8285 94.6582 81.8231L94.69 81.807C94.7111 81.796 94.7329 81.7861 94.7534 81.774L94.8155 81.7389C94.8361 81.7268 94.856 81.7137 94.8764 81.7012C94.8968 81.6889 94.9166 81.6754 94.9362 81.6619C95.0156 81.6089 95.0913 81.5503 95.1649 81.4891C95.2388 81.4282 95.31 81.3635 95.3798 81.2975C95.5198 81.1655 95.6531 81.0258 95.7893 80.8881C95.9253 80.7503 96.0637 80.6136 96.2118 80.4867C96.2855 80.423 96.3627 80.3629 96.4419 80.3056C96.5211 80.2483 96.6047 80.1967 96.6901 80.1488C96.8615 80.0545 97.0432 79.9791 97.2307 79.9232C97.4185 79.8686 97.6117 79.8323 97.8069 79.819C98.1969 79.7929 98.5924 79.8451 98.9604 79.9775C99.3283 80.1095 99.6679 80.3185 99.9528 80.5859L99.9674 80.5996L99.9599 80.6178C99.9194 80.7143 99.8745 80.809 99.8245 80.901C99.7733 80.9923 99.7183 81.0813 99.6579 81.1669C99.5967 81.2518 99.5319 81.334 99.4624 81.4121C99.3923 81.4896 99.319 81.5643 99.2414 81.6343C98.9309 81.9145 98.5601 82.1261 98.1624 82.2523C97.7647 82.3785 97.3405 82.4206 96.9263 82.3719C96.5122 82.3243 96.1093 82.1835 95.7556 81.9639L95.7385 81.9534L95.7537 81.9406C95.9281 81.7921 96.0877 81.6265 96.25 81.4634C96.4126 81.3009 96.5785 81.1394 96.7665 81.0049C96.9535 80.8696 97.1631 80.7663 97.3828 80.6975C97.4928 80.6635 97.6053 80.6371 97.719 80.6203C97.8326 80.6037 97.9478 80.5955 98.0626 80.5958Z" fill="white"/>
<path d="M98.0626 80.5958C97.9476 80.5969 97.8329 80.6065 97.7195 80.6247C97.6061 80.6429 97.4944 80.6707 97.3854 80.706C97.1675 80.7774 96.9599 80.8815 96.7757 81.0178C96.5905 81.1531 96.4268 81.3154 96.266 81.4792C96.1056 81.6436 95.9454 81.802 95.7708 81.9534C96.1233 82.1667 96.5214 82.2896 96.9306 82.3341C97.3394 82.3797 97.7576 82.3356 98.1484 82.209C98.5393 82.0825 98.9028 81.872 99.2059 81.5952C99.509 81.3187 99.7588 81.0077 99.9134 80.628C99.6337 80.3665 99.3007 80.1626 98.9403 80.034C98.58 79.905 98.1925 79.8548 97.8114 79.881C97.6207 79.8943 97.4319 79.9303 97.2486 79.984C97.0655 80.0389 96.8882 80.1128 96.721 80.2053C96.638 80.2522 96.5569 80.3025 96.4794 80.3587C96.402 80.4148 96.3266 80.4737 96.2541 80.5367C96.1087 80.6618 95.9719 80.7975 95.8365 80.9352C95.701 81.0727 95.5664 81.2122 95.4249 81.3457C95.3541 81.4124 95.2818 81.4777 95.2065 81.5397C95.1313 81.602 95.0538 81.6616 94.9723 81.7159C94.952 81.7297 94.9318 81.7436 94.9108 81.7561C94.8899 81.769 94.8694 81.7823 94.8482 81.7946L94.784 81.8307C94.7628 81.8431 94.7404 81.8531 94.7186 81.8644L94.6857 81.8811C94.6747 81.8864 94.6632 81.8911 94.6521 81.8961C94.6295 81.9059 94.6074 81.9164 94.5846 81.9256C94.5387 81.9432 94.493 81.9616 94.4459 81.9756C94.3995 81.9917 94.3513 82.0026 94.304 82.0154L94.2316 82.0302L94.1954 82.0374L94.1589 82.0429C94.0616 82.0575 93.9632 82.0642 93.8649 82.0633C93.6683 82.0614 93.4724 82.0291 93.2854 81.969C93.1919 81.9388 93.1007 81.9016 93.0129 81.8578C92.9252 81.8136 92.8406 81.7632 92.7601 81.7071C92.4392 81.4811 92.1847 81.1615 92.0404 80.796L92.0322 80.7751L92.0503 80.7621C92.3199 80.5669 92.6442 80.4544 92.9735 80.4252C93.3032 80.396 93.6394 80.4513 93.9433 80.5806C94.0952 80.6456 94.2389 80.7289 94.3725 80.8256C94.5059 80.9228 94.6278 81.0349 94.7391 81.156C94.9608 81.3998 95.1371 81.682 95.2714 81.9814C95.339 82.131 95.3957 82.2854 95.4424 82.4427C95.4664 82.5212 95.4864 82.6008 95.5053 82.6805C95.5229 82.7605 95.5394 82.8411 95.5518 82.9221C95.5764 83.084 95.5955 83.2465 95.6098 83.4094C95.618 83.4907 95.6233 83.5724 95.6299 83.6538C95.6351 83.7355 95.6414 83.8169 95.6454 83.8985C95.6638 84.2249 95.6741 84.5515 95.6774 84.8783C95.6812 85.205 95.6776 85.5318 95.665 85.8583C95.6693 85.695 95.671 85.5316 95.671 85.3684C95.6704 85.2051 95.669 85.0417 95.6654 84.8785C95.6588 84.552 95.6453 84.2257 95.6238 83.8998C95.6189 83.8183 95.6119 83.737 95.6059 83.6556C95.5984 83.5743 95.5924 83.4929 95.5835 83.4118C95.5676 83.2495 95.5469 83.0875 95.5209 82.9269C95.4939 82.7665 95.4562 82.608 95.4089 82.4524C95.3616 82.2969 95.3047 82.1443 95.2369 81.9966C95.1025 81.7012 94.9265 81.4235 94.707 81.1851C94.5967 81.0666 94.4765 80.9572 94.3452 80.8628C94.2138 80.7688 94.0729 80.6883 93.9242 80.6257C93.6266 80.5012 93.2992 80.4495 92.9784 80.4798C92.6583 80.5103 92.354 80.5975 92.094 80.7866C92.2348 81.1409 92.4828 81.4392 92.7945 81.6579C92.8728 81.7122 92.9548 81.7608 93.0399 81.8035C93.125 81.8457 93.2135 81.8817 93.3042 81.9107C93.4855 81.9687 93.6754 81.9996 93.8655 82.001C93.9606 82.0018 94.0556 81.995 94.1494 81.9807L94.1846 81.9754L94.2196 81.9683L94.2894 81.9539C94.3352 81.9413 94.3816 81.931 94.4265 81.9151C94.472 81.9015 94.5161 81.8836 94.5605 81.8666C94.5824 81.8577 94.6039 81.8475 94.6257 81.8379C94.6365 81.833 94.6475 81.8285 94.6582 81.8231L94.69 81.807C94.7111 81.796 94.7329 81.7861 94.7534 81.774L94.8155 81.7389C94.8361 81.7268 94.856 81.7137 94.8764 81.7012C94.8968 81.6889 94.9166 81.6754 94.9362 81.6619C95.0156 81.6089 95.0913 81.5503 95.1649 81.4891C95.2388 81.4282 95.31 81.3635 95.3798 81.2975C95.5198 81.1655 95.6531 81.0258 95.7893 80.8881C95.9253 80.7503 96.0637 80.6136 96.2118 80.4867C96.2855 80.423 96.3627 80.3629 96.4419 80.3056C96.5211 80.2483 96.6047 80.1967 96.6901 80.1488C96.8615 80.0545 97.0432 79.9791 97.2307 79.9232C97.4185 79.8686 97.6117 79.8323 97.8069 79.819C98.1969 79.7929 98.5924 79.8451 98.9604 79.9775C99.3283 80.1095 99.6679 80.3185 99.9528 80.5859L99.9674 80.5996L99.9599 80.6178C99.9194 80.7143 99.8745 80.809 99.8245 80.901C99.7733 80.9923 99.7183 81.0813 99.6579 81.1669C99.5967 81.2518 99.5319 81.334 99.4624 81.4121C99.3923 81.4896 99.319 81.5643 99.2414 81.6343C98.9309 81.9145 98.5601 82.1261 98.1624 82.2523C97.7647 82.3785 97.3405 82.4206 96.9263 82.3719C96.5122 82.3243 96.1093 82.1835 95.7556 81.9639L95.7385 81.9534L95.7537 81.9406C95.9281 81.7921 96.0877 81.6265 96.25 81.4634C96.4126 81.3009 96.5785 81.1394 96.7665 81.0049C96.9535 80.8696 97.1631 80.7663 97.3828 80.6975C97.4928 80.6635 97.6053 80.6371 97.719 80.6203C97.8326 80.6037 97.9478 80.5955 98.0626 80.5958Z" stroke="white" stroke-width="0.170455" mask="url(#path-13-outside-2_300_165)"/>
</g>
<g filter="url(#filter4_d_300_165)">
<circle cx="83" cy="70" r="6" fill="url(#paint2_linear_300_165)"/>
<mask id="path-15-outside-3_300_165" maskUnits="userSpaceOnUse" x="77.2393" y="66.375" width="11" height="9" fill="black">
<rect fill="white" x="77.2393" y="66.375" width="11" height="9"/>
<path d="M85.4757 68.315C85.3377 68.3163 85.2001 68.3278 85.064 68.3497C84.9279 68.3715 84.7938 68.4048 84.663 68.4472C84.4015 68.5329 84.1525 68.6578 83.9315 68.8213C83.7091 68.9837 83.5128 69.1784 83.3198 69.3751C83.1272 69.5723 82.935 69.7623 82.7255 69.9441C83.1485 70.2001 83.6263 70.3476 84.1173 70.4009C84.6079 70.4557 85.1097 70.4028 85.5787 70.2508C86.0478 70.0989 86.484 69.8464 86.8477 69.5143C87.2114 69.1824 87.5111 68.8092 87.6967 68.3536C87.3611 68.0398 86.9614 67.7951 86.529 67.6409C86.0966 67.486 85.6316 67.4258 85.1743 67.4572C84.9454 67.4732 84.7189 67.5164 84.4989 67.5808C84.2792 67.6467 84.0664 67.7354 83.8658 67.8464C83.7662 67.9027 83.6688 67.963 83.5759 68.0304C83.483 68.0978 83.3925 68.1685 83.3055 68.244C83.131 68.3941 82.9669 68.557 82.8044 68.7222C82.6417 68.8872 82.4802 69.0547 82.3104 69.2148C82.2255 69.2948 82.1387 69.3732 82.0484 69.4476C81.9582 69.5224 81.8652 69.594 81.7673 69.6591C81.743 69.6757 81.7187 69.6923 81.6935 69.7073C81.6685 69.7228 81.6438 69.7388 81.6184 69.7535L81.5414 69.7968C81.516 69.8117 81.4891 69.8237 81.4629 69.8373L81.4234 69.8573C81.4102 69.8637 81.3964 69.8693 81.3831 69.8754C81.356 69.887 81.3294 69.8997 81.3021 69.9108C81.247 69.9319 81.1922 69.9539 81.1357 69.9707C81.08 69.9901 81.0222 70.0031 80.9653 70.0185L80.8786 70.0362L80.8351 70.0449L80.7912 70.0515C80.6745 70.069 80.5565 70.0771 80.4384 70.076C80.2025 70.0737 79.9674 70.0349 79.743 69.9628C79.6308 69.9266 79.5214 69.882 79.416 69.8294C79.3108 69.7763 79.2093 69.7158 79.1128 69.6486C78.7276 69.3773 78.4222 68.9938 78.249 68.5552L78.2393 68.5301L78.2609 68.5145C78.5845 68.2803 78.9736 68.1453 79.3688 68.1102C79.7645 68.0752 80.1679 68.1415 80.5326 68.2967C80.7148 68.3747 80.8872 68.4747 81.0476 68.5908C81.2076 68.7073 81.3539 68.8418 81.4876 68.9872C81.7536 69.2798 81.9652 69.6184 82.1263 69.9776C82.2074 70.1571 82.2754 70.3425 82.3315 70.5312C82.3603 70.6254 82.3842 70.7209 82.407 70.8166C82.4281 70.9127 82.4478 71.0093 82.4627 71.1065C82.4923 71.3009 82.5152 71.4958 82.5324 71.6913C82.5422 71.7889 82.5486 71.8868 82.5565 71.9846C82.5627 72.0825 82.5702 72.1803 82.5751 72.2783C82.5971 72.6699 82.6096 73.0618 82.6135 73.454C82.618 73.846 82.6137 74.2381 82.5986 74.6299C82.6037 74.434 82.6058 74.2379 82.6058 74.042C82.605 73.8462 82.6033 73.6501 82.599 73.4542C82.5911 73.0624 82.5749 72.6708 82.5491 72.2798C82.5433 72.182 82.5348 72.0844 82.5277 71.9867C82.5186 71.8891 82.5115 71.7915 82.5007 71.6942C82.4817 71.4994 82.4569 71.305 82.4256 71.1123C82.3932 70.9198 82.3481 70.7296 82.2912 70.5429C82.2346 70.3562 82.1662 70.1732 82.0849 69.9959C81.9236 69.6414 81.7123 69.3082 81.449 69.0221C81.3166 68.8799 81.1724 68.7486 81.0149 68.6354C80.8571 68.5226 80.6881 68.4259 80.5096 68.3508C80.1525 68.2014 79.7596 68.1394 79.3746 68.1758C78.9906 68.2123 78.6254 68.317 78.3134 68.5439C78.4823 68.9691 78.7799 69.327 79.154 69.5894C79.2479 69.6546 79.3464 69.713 79.4484 69.7642C79.5506 69.8149 79.6568 69.858 79.7656 69.8929C79.9832 69.9624 80.211 69.9995 80.4392 70.0012C80.5533 70.0021 80.6673 69.994 80.7799 69.9769L80.8221 69.9705L80.8641 69.962L80.9478 69.9447C81.0028 69.9296 81.0585 69.9172 81.1124 69.8982C81.167 69.8818 81.2199 69.8603 81.2731 69.8399C81.2995 69.8292 81.3253 69.817 81.3515 69.8055C81.3644 69.7996 81.3776 69.7942 81.3904 69.7878L81.4286 69.7684C81.4539 69.7552 81.48 69.7433 81.5047 69.7288L81.5792 69.6866C81.6039 69.6721 81.6278 69.6565 81.6523 69.6414C81.6768 69.6267 81.7005 69.6105 81.724 69.5943C81.8193 69.5307 81.9102 69.4604 81.9985 69.3869C82.0871 69.3139 82.1726 69.2363 82.2564 69.157C82.4243 68.9985 82.5843 68.8309 82.7477 68.6657C82.9109 68.5003 83.077 68.3363 83.2547 68.1841C83.3432 68.1076 83.4358 68.0355 83.5309 67.9667C83.6259 67.898 83.7263 67.836 83.8287 67.7785C84.0344 67.6653 84.2524 67.5749 84.4774 67.5079C84.7027 67.4423 84.9347 67.3988 85.1688 67.3828C85.6368 67.3515 86.1114 67.4141 86.5531 67.573C86.9945 67.7315 87.4021 67.9822 87.744 68.3031L87.7615 68.3195L87.7524 68.3414C87.7039 68.4572 87.65 68.5708 87.59 68.6812C87.5286 68.7908 87.4625 68.8976 87.39 69.0002C87.3166 69.1021 87.2389 69.2008 87.1555 69.2945C87.0713 69.3875 86.9834 69.4772 86.8902 69.5612C86.5177 69.8974 86.0727 70.1513 85.5954 70.3027C85.1182 70.4542 84.6092 70.5047 84.1122 70.4463C83.6152 70.3892 83.1318 70.2202 82.7073 69.9567L82.6867 69.9441L82.705 69.9287C82.9143 69.7505 83.1058 69.5518 83.3006 69.3561C83.4957 69.1611 83.6948 68.9673 83.9204 68.8059C84.1448 68.6435 84.3963 68.5196 84.66 68.437C84.792 68.3962 84.9269 68.3645 85.0634 68.3444C85.1997 68.3244 85.3379 68.3146 85.4757 68.315Z"/>
</mask>
<path d="M85.4757 68.315C85.3377 68.3163 85.2001 68.3278 85.064 68.3497C84.9279 68.3715 84.7938 68.4048 84.663 68.4472C84.4015 68.5329 84.1525 68.6578 83.9315 68.8213C83.7091 68.9837 83.5128 69.1784 83.3198 69.3751C83.1272 69.5723 82.935 69.7623 82.7255 69.9441C83.1485 70.2001 83.6263 70.3476 84.1173 70.4009C84.6079 70.4557 85.1097 70.4028 85.5787 70.2508C86.0478 70.0989 86.484 69.8464 86.8477 69.5143C87.2114 69.1824 87.5111 68.8092 87.6967 68.3536C87.3611 68.0398 86.9614 67.7951 86.529 67.6409C86.0966 67.486 85.6316 67.4258 85.1743 67.4572C84.9454 67.4732 84.7189 67.5164 84.4989 67.5808C84.2792 67.6467 84.0664 67.7354 83.8658 67.8464C83.7662 67.9027 83.6688 67.963 83.5759 68.0304C83.483 68.0978 83.3925 68.1685 83.3055 68.244C83.131 68.3941 82.9669 68.557 82.8044 68.7222C82.6417 68.8872 82.4802 69.0547 82.3104 69.2148C82.2255 69.2948 82.1387 69.3732 82.0484 69.4476C81.9582 69.5224 81.8652 69.594 81.7673 69.6591C81.743 69.6757 81.7187 69.6923 81.6935 69.7073C81.6685 69.7228 81.6438 69.7388 81.6184 69.7535L81.5414 69.7968C81.516 69.8117 81.4891 69.8237 81.4629 69.8373L81.4234 69.8573C81.4102 69.8637 81.3964 69.8693 81.3831 69.8754C81.356 69.887 81.3294 69.8997 81.3021 69.9108C81.247 69.9319 81.1922 69.9539 81.1357 69.9707C81.08 69.9901 81.0222 70.0031 80.9653 70.0185L80.8786 70.0362L80.8351 70.0449L80.7912 70.0515C80.6745 70.069 80.5565 70.0771 80.4384 70.076C80.2025 70.0737 79.9674 70.0349 79.743 69.9628C79.6308 69.9266 79.5214 69.882 79.416 69.8294C79.3108 69.7763 79.2093 69.7158 79.1128 69.6486C78.7276 69.3773 78.4222 68.9938 78.249 68.5552L78.2393 68.5301L78.2609 68.5145C78.5845 68.2803 78.9736 68.1453 79.3688 68.1102C79.7645 68.0752 80.1679 68.1415 80.5326 68.2967C80.7148 68.3747 80.8872 68.4747 81.0476 68.5908C81.2076 68.7073 81.3539 68.8418 81.4876 68.9872C81.7536 69.2798 81.9652 69.6184 82.1263 69.9776C82.2074 70.1571 82.2754 70.3425 82.3315 70.5312C82.3603 70.6254 82.3842 70.7209 82.407 70.8166C82.4281 70.9127 82.4478 71.0093 82.4627 71.1065C82.4923 71.3009 82.5152 71.4958 82.5324 71.6913C82.5422 71.7889 82.5486 71.8868 82.5565 71.9846C82.5627 72.0825 82.5702 72.1803 82.5751 72.2783C82.5971 72.6699 82.6096 73.0618 82.6135 73.454C82.618 73.846 82.6137 74.2381 82.5986 74.6299C82.6037 74.434 82.6058 74.2379 82.6058 74.042C82.605 73.8462 82.6033 73.6501 82.599 73.4542C82.5911 73.0624 82.5749 72.6708 82.5491 72.2798C82.5433 72.182 82.5348 72.0844 82.5277 71.9867C82.5186 71.8891 82.5115 71.7915 82.5007 71.6942C82.4817 71.4994 82.4569 71.305 82.4256 71.1123C82.3932 70.9198 82.3481 70.7296 82.2912 70.5429C82.2346 70.3562 82.1662 70.1732 82.0849 69.9959C81.9236 69.6414 81.7123 69.3082 81.449 69.0221C81.3166 68.8799 81.1724 68.7486 81.0149 68.6354C80.8571 68.5226 80.6881 68.4259 80.5096 68.3508C80.1525 68.2014 79.7596 68.1394 79.3746 68.1758C78.9906 68.2123 78.6254 68.317 78.3134 68.5439C78.4823 68.9691 78.7799 69.327 79.154 69.5894C79.2479 69.6546 79.3464 69.713 79.4484 69.7642C79.5506 69.8149 79.6568 69.858 79.7656 69.8929C79.9832 69.9624 80.211 69.9995 80.4392 70.0012C80.5533 70.0021 80.6673 69.994 80.7799 69.9769L80.8221 69.9705L80.8641 69.962L80.9478 69.9447C81.0028 69.9296 81.0585 69.9172 81.1124 69.8982C81.167 69.8818 81.2199 69.8603 81.2731 69.8399C81.2995 69.8292 81.3253 69.817 81.3515 69.8055C81.3644 69.7996 81.3776 69.7942 81.3904 69.7878L81.4286 69.7684C81.4539 69.7552 81.48 69.7433 81.5047 69.7288L81.5792 69.6866C81.6039 69.6721 81.6278 69.6565 81.6523 69.6414C81.6768 69.6267 81.7005 69.6105 81.724 69.5943C81.8193 69.5307 81.9102 69.4604 81.9985 69.3869C82.0871 69.3139 82.1726 69.2363 82.2564 69.157C82.4243 68.9985 82.5843 68.8309 82.7477 68.6657C82.9109 68.5003 83.077 68.3363 83.2547 68.1841C83.3432 68.1076 83.4358 68.0355 83.5309 67.9667C83.6259 67.898 83.7263 67.836 83.8287 67.7785C84.0344 67.6653 84.2524 67.5749 84.4774 67.5079C84.7027 67.4423 84.9347 67.3988 85.1688 67.3828C85.6368 67.3515 86.1114 67.4141 86.5531 67.573C86.9945 67.7315 87.4021 67.9822 87.744 68.3031L87.7615 68.3195L87.7524 68.3414C87.7039 68.4572 87.65 68.5708 87.59 68.6812C87.5286 68.7908 87.4625 68.8976 87.39 69.0002C87.3166 69.1021 87.2389 69.2008 87.1555 69.2945C87.0713 69.3875 86.9834 69.4772 86.8902 69.5612C86.5177 69.8974 86.0727 70.1513 85.5954 70.3027C85.1182 70.4542 84.6092 70.5047 84.1122 70.4463C83.6152 70.3892 83.1318 70.2202 82.7073 69.9567L82.6867 69.9441L82.705 69.9287C82.9143 69.7505 83.1058 69.5518 83.3006 69.3561C83.4957 69.1611 83.6948 68.9673 83.9204 68.8059C84.1448 68.6435 84.3963 68.5196 84.66 68.437C84.792 68.3962 84.9269 68.3645 85.0634 68.3444C85.1997 68.3244 85.3379 68.3146 85.4757 68.315Z" fill="white"/>
<path d="M85.4757 68.315C85.3377 68.3163 85.2001 68.3278 85.064 68.3497C84.9279 68.3715 84.7938 68.4048 84.663 68.4472C84.4015 68.5329 84.1525 68.6578 83.9315 68.8213C83.7091 68.9837 83.5128 69.1784 83.3198 69.3751C83.1272 69.5723 82.935 69.7623 82.7255 69.9441C83.1485 70.2001 83.6263 70.3476 84.1173 70.4009C84.6079 70.4557 85.1097 70.4028 85.5787 70.2508C86.0478 70.0989 86.484 69.8464 86.8477 69.5143C87.2114 69.1824 87.5111 68.8092 87.6967 68.3536C87.3611 68.0398 86.9614 67.7951 86.529 67.6409C86.0966 67.486 85.6316 67.4258 85.1743 67.4572C84.9454 67.4732 84.7189 67.5164 84.4989 67.5808C84.2792 67.6467 84.0664 67.7354 83.8658 67.8464C83.7662 67.9027 83.6688 67.963 83.5759 68.0304C83.483 68.0978 83.3925 68.1685 83.3055 68.244C83.131 68.3941 82.9669 68.557 82.8044 68.7222C82.6417 68.8872 82.4802 69.0547 82.3104 69.2148C82.2255 69.2948 82.1387 69.3732 82.0484 69.4476C81.9582 69.5224 81.8652 69.594 81.7673 69.6591C81.743 69.6757 81.7187 69.6923 81.6935 69.7073C81.6685 69.7228 81.6438 69.7388 81.6184 69.7535L81.5414 69.7968C81.516 69.8117 81.4891 69.8237 81.4629 69.8373L81.4234 69.8573C81.4102 69.8637 81.3964 69.8693 81.3831 69.8754C81.356 69.887 81.3294 69.8997 81.3021 69.9108C81.247 69.9319 81.1922 69.9539 81.1357 69.9707C81.08 69.9901 81.0222 70.0031 80.9653 70.0185L80.8786 70.0362L80.8351 70.0449L80.7912 70.0515C80.6745 70.069 80.5565 70.0771 80.4384 70.076C80.2025 70.0737 79.9674 70.0349 79.743 69.9628C79.6308 69.9266 79.5214 69.882 79.416 69.8294C79.3108 69.7763 79.2093 69.7158 79.1128 69.6486C78.7276 69.3773 78.4222 68.9938 78.249 68.5552L78.2393 68.5301L78.2609 68.5145C78.5845 68.2803 78.9736 68.1453 79.3688 68.1102C79.7645 68.0752 80.1679 68.1415 80.5326 68.2967C80.7148 68.3747 80.8872 68.4747 81.0476 68.5908C81.2076 68.7073 81.3539 68.8418 81.4876 68.9872C81.7536 69.2798 81.9652 69.6184 82.1263 69.9776C82.2074 70.1571 82.2754 70.3425 82.3315 70.5312C82.3603 70.6254 82.3842 70.7209 82.407 70.8166C82.4281 70.9127 82.4478 71.0093 82.4627 71.1065C82.4923 71.3009 82.5152 71.4958 82.5324 71.6913C82.5422 71.7889 82.5486 71.8868 82.5565 71.9846C82.5627 72.0825 82.5702 72.1803 82.5751 72.2783C82.5971 72.6699 82.6096 73.0618 82.6135 73.454C82.618 73.846 82.6137 74.2381 82.5986 74.6299C82.6037 74.434 82.6058 74.2379 82.6058 74.042C82.605 73.8462 82.6033 73.6501 82.599 73.4542C82.5911 73.0624 82.5749 72.6708 82.5491 72.2798C82.5433 72.182 82.5348 72.0844 82.5277 71.9867C82.5186 71.8891 82.5115 71.7915 82.5007 71.6942C82.4817 71.4994 82.4569 71.305 82.4256 71.1123C82.3932 70.9198 82.3481 70.7296 82.2912 70.5429C82.2346 70.3562 82.1662 70.1732 82.0849 69.9959C81.9236 69.6414 81.7123 69.3082 81.449 69.0221C81.3166 68.8799 81.1724 68.7486 81.0149 68.6354C80.8571 68.5226 80.6881 68.4259 80.5096 68.3508C80.1525 68.2014 79.7596 68.1394 79.3746 68.1758C78.9906 68.2123 78.6254 68.317 78.3134 68.5439C78.4823 68.9691 78.7799 69.327 79.154 69.5894C79.2479 69.6546 79.3464 69.713 79.4484 69.7642C79.5506 69.8149 79.6568 69.858 79.7656 69.8929C79.9832 69.9624 80.211 69.9995 80.4392 70.0012C80.5533 70.0021 80.6673 69.994 80.7799 69.9769L80.8221 69.9705L80.8641 69.962L80.9478 69.9447C81.0028 69.9296 81.0585 69.9172 81.1124 69.8982C81.167 69.8818 81.2199 69.8603 81.2731 69.8399C81.2995 69.8292 81.3253 69.817 81.3515 69.8055C81.3644 69.7996 81.3776 69.7942 81.3904 69.7878L81.4286 69.7684C81.4539 69.7552 81.48 69.7433 81.5047 69.7288L81.5792 69.6866C81.6039 69.6721 81.6278 69.6565 81.6523 69.6414C81.6768 69.6267 81.7005 69.6105 81.724 69.5943C81.8193 69.5307 81.9102 69.4604 81.9985 69.3869C82.0871 69.3139 82.1726 69.2363 82.2564 69.157C82.4243 68.9985 82.5843 68.8309 82.7477 68.6657C82.9109 68.5003 83.077 68.3363 83.2547 68.1841C83.3432 68.1076 83.4358 68.0355 83.5309 67.9667C83.6259 67.898 83.7263 67.836 83.8287 67.7785C84.0344 67.6653 84.2524 67.5749 84.4774 67.5079C84.7027 67.4423 84.9347 67.3988 85.1688 67.3828C85.6368 67.3515 86.1114 67.4141 86.5531 67.573C86.9945 67.7315 87.4021 67.9822 87.744 68.3031L87.7615 68.3195L87.7524 68.3414C87.7039 68.4572 87.65 68.5708 87.59 68.6812C87.5286 68.7908 87.4625 68.8976 87.39 69.0002C87.3166 69.1021 87.2389 69.2008 87.1555 69.2945C87.0713 69.3875 86.9834 69.4772 86.8902 69.5612C86.5177 69.8974 86.0727 70.1513 85.5954 70.3027C85.1182 70.4542 84.6092 70.5047 84.1122 70.4463C83.6152 70.3892 83.1318 70.2202 82.7073 69.9567L82.6867 69.9441L82.705 69.9287C82.9143 69.7505 83.1058 69.5518 83.3006 69.3561C83.4957 69.1611 83.6948 68.9673 83.9204 68.8059C84.1448 68.6435 84.3963 68.5196 84.66 68.437C84.792 68.3962 84.9269 68.3645 85.0634 68.3444C85.1997 68.3244 85.3379 68.3146 85.4757 68.315Z" stroke="white" stroke-width="0.204545" mask="url(#path-15-outside-3_300_165)"/>
</g>
<defs>
<filter id="filter0_d_300_165" x="0" y="0" width="166" height="166" filterUnits="userSpaceOnUse" color-interpolation-filters="sRGB">
<feFlood flood-opacity="0" result="BackgroundImageFix"/>
<feColorMatrix in="SourceAlpha" type="matrix" values="0 0 0 0 0 0 0 0 0 0 0 0 0 0 0 0 0 0 127 0" result="hardAlpha"/>
<feOffset dy="4"/>
<feGaussianBlur stdDeviation="14"/>
<feComposite in2="hardAlpha" operator="out"/>
<feColorMatrix type="matrix" values="0 0 0 0 0.104167 0 0 0 0 0.066116 0 0 0 0 0.030816 0 0 0 0.06 0"/>
<feBlend mode="normal" in2="BackgroundImageFix" result="effect1_dropShadow_300_165"/>
<feBlend mode="normal" in="SourceGraphic" in2="effect1_dropShadow_300_165" result="shape"/>
</filter>
<filter id="filter1_d_300_165" x="9" y="9" width="148" height="148" filterUnits="userSpaceOnUse" color-interpolation-filters="sRGB">
<feFlood flood-opacity="0" result="BackgroundImageFix"/>
<feColorMatrix in="SourceAlpha" type="matrix" values="0 0 0 0 0 0 0 0 0 0 0 0 0 0 0 0 0 0 127 0" result="hardAlpha"/>
<feOffset dy="4"/>
<feGaussianBlur stdDeviation="14"/>
<feComposite in2="hardAlpha" operator="out"/>
<feColorMatrix type="matrix" values="0 0 0 0 0.104167 0 0 0 0 0.066116 0 0 0 0 0.030816 0 0 0 0.06 0"/>
<feBlend mode="normal" in2="BackgroundImageFix" result="effect1_dropShadow_300_165"/>
<feBlend mode="normal" in="SourceGraphic" in2="effect1_dropShadow_300_165" result="shape"/>
</filter>
<filter id="filter2_d_300_165" x="62.1905" y="73.6667" width="17.619" height="17.619" filterUnits="userSpaceOnUse" color-interpolation-filters="sRGB">
<feFlood flood-opacity="0" result="BackgroundImageFix"/>
<feColorMatrix in="SourceAlpha" type="matrix" values="0 0 0 0 0 0 0 0 0 0 0 0 0 0 0 0 0 0 127 0" result="hardAlpha"/>
<feOffset dy="0.47619"/>
<feGaussianBlur stdDeviation="1.90476"/>
<feComposite in2="hardAlpha" operator="out"/>
<feColorMatrix type="matrix" values="0 0 0 0 0.104167 0 0 0 0 0.066116 0 0 0 0 0.030816 0 0 0 0.12 0"/>
<feBlend mode="normal" in2="BackgroundImageFix" result="effect1_dropShadow_300_165"/>
<feBlend mode="normal" in="SourceGraphic" in2="effect1_dropShadow_300_165" result="shape"/>
</filter>
<filter id="filter3_d_300_165" x="87.1905" y="73.6667" width="17.619" height="17.619" filterUnits="userSpaceOnUse" color-interpolation-filters="sRGB">
<feFlood flood-opacity="0" result="BackgroundImageFix"/>
<feColorMatrix in="SourceAlpha" type="matrix" values="0 0 0 0 0 0 0 0 0 0 0 0 0 0 0 0 0 0 127 0" result="hardAlpha"/>
<feOffset dy="0.47619"/>
<feGaussianBlur stdDeviation="1.90476"/>
<feComposite in2="hardAlpha" operator="out"/>
<feColorMatrix type="matrix" values="0 0 0 0 0.104167 0 0 0 0 0.066116 0 0 0 0 0.030816 0 0 0 0.12 0"/>
<feBlend mode="normal" in2="BackgroundImageFix" result="effect1_dropShadow_300_165"/>
<feBlend mode="normal" in="SourceGraphic" in2="effect1_dropShadow_300_165" result="shape"/>
</filter>
<filter id="filter4_d_300_165" x="72.4286" y="60" width="21.1429" height="21.1429" filterUnits="userSpaceOnUse" color-interpolation-filters="sRGB">
<feFlood flood-opacity="0" result="BackgroundImageFix"/>
<feColorMatrix in="SourceAlpha" type="matrix" values="0 0 0 0 0 0 0 0 0 0 0 0 0 0 0 0 0 0 127 0" result="hardAlpha"/>
<feOffset dy="0.571429"/>
<feGaussianBlur stdDeviation="2.28571"/>
<feComposite in2="hardAlpha" operator="out"/>
<feColorMatrix type="matrix" values="0 0 0 0 0.104167 0 0 0 0 0.066116 0 0 0 0 0.030816 0 0 0 0.12 0"/>
<feBlend mode="normal" in2="BackgroundImageFix" result="effect1_dropShadow_300_165"/>
<feBlend mode="normal" in="SourceGraphic" in2="effect1_dropShadow_300_165" result="shape"/>
</filter>
<linearGradient id="paint0_linear_300_165" x1="66" y1="78.875" x2="76.3376" y2="79.6059" gradientUnits="userSpaceOnUse">
<stop stop-color="#30C917"/>
<stop offset="1" stop-color="#279A13"/>
</linearGradient>
<linearGradient id="paint1_linear_300_165" x1="91" y1="78.875" x2="101.338" y2="79.6059" gradientUnits="userSpaceOnUse">
<stop stop-color="#30C917"/>
<stop offset="1" stop-color="#279A13"/>
</linearGradient>
<linearGradient id="paint2_linear_300_165" x1="77" y1="66.25" x2="89.4051" y2="67.127" gradientUnits="userSpaceOnUse">
<stop stop-color="#30C917"/>
<stop offset="1" stop-color="#279A13"/>
</linearGradient>
</defs>
</svg>
