<svg width="27" height="16" viewBox="0 0 27 16" fill="none" xmlns="http://www.w3.org/2000/svg">
<path d="M12.6589 15.1339L0.32087 1.98061C0.114901 1.76114 0 1.46956 0 1.16634C0 0.86313 0.114901 0.571551 0.32087 0.352082L0.334812 0.337919C0.434662 0.231156 0.55485 0.146144 0.688066 0.0880508C0.821282 0.0299578 0.964739 9.53674e-07 1.10971 0C1.25469 9.53674e-07 1.39814 0.0299578 1.53136 0.0880508C1.66458 0.146144 1.78476 0.231156 1.88461 0.337919L13.5023 12.7242L25.1154 0.337919C25.2152 0.231156 25.3354 0.146144 25.4686 0.0880508C25.6019 0.0299578 25.7453 9.53674e-07 25.8903 0C26.0353 9.53674e-07 26.1787 0.0299578 26.3119 0.0880508C26.4451 0.146144 26.5653 0.231156 26.6652 0.337919L26.6791 0.352082C26.8851 0.571551 27 0.86313 27 1.16634C27 1.46956 26.8851 1.76114 26.6791 1.98061L14.3411 15.1339C14.2326 15.2496 14.1021 15.3417 13.9575 15.4046C13.813 15.4676 13.6573 15.5 13.5 15.5C13.3427 15.5 13.187 15.4676 13.0425 15.4046C12.8979 15.3417 12.7674 15.2496 12.6589 15.1339Z" fill="white"/>
</svg>
