<svg width="60" height="60" viewBox="0 0 60 60" fill="none" xmlns="http://www.w3.org/2000/svg">
<g clip-path="url(#clip0_300_707)">
<path d="M43.5488 26.6143V27.2934C43.5488 28.1255 43.683 28.9521 43.9461 29.7415L45.4843 34.3561H48.3875V23.7109H46.452C44.8487 23.7111 43.5488 25.0108 43.5488 26.6143Z" fill="#5A4146"/>
<path d="M56.7984 28.6234L55.1609 34.355L47.4189 27.5809C46.3499 27.5809 45.4834 26.7143 45.4834 25.6454C45.4834 24.042 46.7832 22.7422 48.3866 22.7422H55.1607C56.2297 22.7422 57.0962 23.6088 57.0962 24.6777V26.4966C57.0963 27.2158 56.996 27.9316 56.7984 28.6234Z" fill="#5A4146"/>
<path d="M53.2253 37.2578H47.4189V41.5409H53.2253V37.2578Z" fill="#E6AF78"/>
<path d="M47.4189 39.0354C48.3165 39.4001 49.2952 39.6054 50.3222 39.6054C51.3491 39.6054 52.3278 39.4001 53.2254 39.0354V37.2578H47.4189V39.0354Z" fill="#E6AF78"/>
<path d="M57.8946 40.9394L53.2258 39.6056L50.3229 41.532L47.4196 39.6055L42.7511 40.9394C41.5047 41.2955 40.6455 42.4347 40.6455 43.7309V50.8063C40.6455 51.3407 41.0787 51.774 41.6132 51.774H59.0326C59.5671 51.774 60.0003 51.3407 60.0003 50.8063V43.7309C60.0003 42.4346 59.141 41.2955 57.8946 40.9394Z" fill="#D5DCED"/>
<path d="M51.29 51.7759H49.3545L49.8384 41.543H50.8061L51.29 51.7759Z" fill="#AFB9D2"/>
<path d="M50.323 38.2271C47.1162 38.2271 44.5166 35.6274 44.5166 32.4207V31.2869C44.5166 30.7736 44.7205 30.2813 45.0834 29.9182L46.8383 28.1634C47.2099 27.7918 47.718 27.5781 48.2433 27.5946C51.3368 27.6923 54.075 28.355 55.5718 29.8169C55.9383 30.1748 56.1295 30.6754 56.1295 31.1875V32.4207C56.1295 35.6275 53.5298 38.2271 50.323 38.2271Z" fill="#F0C087"/>
<path d="M47.4198 31.527C47.4198 30.4107 48.3573 29.5233 49.4714 29.5943C51.425 29.719 54.324 30.0455 56.1026 30.901C56.0446 30.4927 55.8691 30.1073 55.5718 29.8169C54.075 28.355 51.3368 27.6923 48.2433 27.5946L48.2432 27.5948V27.5946C47.718 27.5781 47.2098 27.7919 46.8383 28.1634L45.0836 29.9181C44.7205 30.281 44.5166 30.7734 44.5166 31.2867V32.4205C44.5166 35.0685 46.2909 37.298 48.7143 37.9962C47.9077 37.001 47.4199 35.7378 47.4199 34.356L47.4198 31.527Z" fill="#F0C087"/>
<path d="M56.1289 46.6143C56.1289 45.8442 56.4348 45.1058 56.9792 44.5614L59.4703 42.0703C59.8032 42.5462 59.9998 43.1191 59.9998 43.7307V50.8061C59.9998 51.3405 59.5666 51.7738 59.0321 51.7738H56.1289V46.6143Z" fill="#C7CFE2"/>
<path d="M50.8061 43.4784H49.8384C49.5712 43.4784 49.3545 43.2618 49.3545 42.9946V41.543H51.29V42.9946C51.29 43.2618 51.0734 43.4784 50.8061 43.4784Z" fill="#959CB5"/>
<path d="M50.3221 41.5311L48.6818 42.7839C48.3993 42.9998 47.9908 42.9133 47.82 42.6013L46.3486 39.9142L46.9409 39.0108C47.0723 38.8105 47.3522 38.7763 47.5279 38.9392L50.3221 41.5311Z" fill="#C7CFE2"/>
<path d="M50.3223 41.531L51.9625 42.7839C52.2451 42.9998 52.6536 42.9133 52.8243 42.6013L54.2957 39.9142L53.7035 39.0108C53.5721 38.8104 53.2921 38.7763 53.1165 38.9392L50.3223 41.531Z" fill="#C7CFE2"/>
<path d="M17.3229 37.8221C16.4959 35.6309 15.84 31.8642 15.6983 29.903C15.4288 26.1711 12.6164 23.1289 8.81462 23.1289C5.01282 23.1289 2.20044 26.1712 1.93091 29.903C1.78923 31.8641 1.13333 35.6309 0.306338 37.8221C0.124112 38.3052 0.334463 38.8378 0.810127 39.0534C1.6963 39.455 3.58571 40.2418 5.86442 40.5482H11.7647C14.0327 40.2411 15.9354 39.4538 16.819 39.0534C17.2948 38.8378 17.5051 38.3052 17.3229 37.8221Z" fill="#5A4146"/>
<path d="M16.8187 39.0534C17.2943 38.8378 17.5047 38.3052 17.3224 37.8221C16.4955 35.6309 15.8395 31.8642 15.6979 29.903C15.4285 26.1711 12.616 23.1289 8.81433 23.1289C8.80472 23.1289 8.79523 23.1289 8.78562 23.129C5.86847 23.1409 4.83758 27.1193 7.34879 28.6037C7.49961 28.6929 7.59629 28.7357 7.59629 28.7357L9.79578 40.5482H11.7644C14.0325 40.2409 15.9351 39.4537 16.8187 39.0534Z" fill="#5A4146"/>
<path d="M15.8145 42.4934L12.6827 40.9276C12.027 40.5997 11.6127 39.9294 11.6128 39.1963L11.613 36.293H5.80641V39.1964C5.80641 39.9295 5.39227 40.5996 4.73648 40.9275L1.60477 42.4934C0.621211 42.9851 0 43.9903 0 45.0899V50.8089C0 51.3432 0.433242 51.7766 0.967734 51.7766H16.4516C16.9861 51.7766 17.4193 51.3432 17.4193 50.8089V45.09C17.4193 43.9903 16.798 42.9851 15.8145 42.4934Z" fill="#E6AF78"/>
<path d="M8.70949 40.1639C9.75152 40.1639 10.7496 39.9491 11.6646 39.5667C11.6406 39.4447 11.6126 39.3234 11.6126 39.1963L11.6128 36.293H5.80617V39.1964C5.80617 39.3243 5.77816 39.4461 5.75391 39.5686C6.66949 39.949 7.66711 40.1639 8.70949 40.1639Z" fill="#E6AF78"/>
<path d="M15.8145 42.4906L13.5834 41.3751C12.5489 42.9726 10.7546 44.0321 8.70973 44.0321C6.6648 44.0321 4.87043 42.9726 3.8359 41.375L1.60488 42.4906C0.621328 42.9823 0 43.9876 0 45.0871V50.8061C0 51.3406 0.433242 51.7739 0.967734 51.7739H16.4516C16.9861 51.7739 17.4193 51.3406 17.4193 50.8061V45.0873C17.4193 43.9876 16.798 42.9823 15.8145 42.4906Z" fill="#D5DCED"/>
<path d="M8.70922 38.2257C5.75703 38.2257 3.31953 36.0226 2.95098 33.1708C2.89754 32.7576 3.09617 32.3525 3.46812 32.1649C3.91367 31.9401 4.56113 31.5611 5.18105 31.008C5.8714 30.3921 6.2764 29.7425 6.50515 29.2657C6.70215 28.855 7.15496 28.6228 7.59629 28.7354C11.0036 29.6044 13.3234 31.3771 14.165 32.1009C14.3909 32.2952 14.5211 32.5817 14.4979 32.8789C14.2634 35.8707 11.7614 38.2257 8.70922 38.2257Z" fill="#F0C087"/>
<path d="M14.1658 32.1009C13.3243 31.3771 11.0045 29.6044 7.59712 28.7354C7.15579 28.6228 6.70298 28.855 6.50598 29.2657C6.33278 29.6268 6.04649 30.0869 5.62169 30.5566C5.62157 30.5578 5.62122 30.5587 5.6211 30.5599C5.48927 30.7093 5.34887 30.8591 5.182 31.0081C4.56208 31.5614 3.91462 31.9402 3.46907 32.165C3.09712 32.3526 2.8986 32.7578 2.95192 33.171C3.28298 35.7322 5.28712 37.7708 7.82985 38.1596C6.67122 37.3714 5.80696 36.2874 5.80696 34.355V32.975C6.0268 32.8127 6.24817 32.6509 6.47059 32.4523C7.00848 31.9723 7.47806 31.4172 7.85458 30.8196C10.4612 31.633 12.2284 32.9878 12.8983 33.5639C13.0817 33.7246 13.5369 34.1442 14.0694 34.6437C14.2985 34.0924 14.45 33.5008 14.4986 32.8791C14.522 32.5818 14.3918 32.2953 14.1658 32.1009Z" fill="#F0C087"/>
<path d="M0.589922 43.3438C0.217148 43.8385 0 44.4454 0 45.0882V50.8072C0 51.3417 0.433242 51.7749 0.967734 51.7749H3.87094V46.8987C3.87094 46.3108 3.60363 45.7546 3.14449 45.3874L0.589922 43.3438Z" fill="#C7CFE2"/>
<path d="M43.9039 41.171L35.8068 38.2266L30.0004 40.1622L24.194 38.2267L16.097 41.1711C14.5672 41.7274 13.5488 43.1813 13.5488 44.809V50.8073C13.5488 51.3417 13.9821 51.7751 14.5166 51.7751H45.4843C46.0188 51.7751 46.452 51.3417 46.452 50.8073V44.809C46.452 43.1811 45.4338 41.7273 43.9039 41.171Z" fill="url(#paint0_linear_300_707)"/>
<path d="M43.9039 41.171L35.8068 38.2266L30.0004 40.1622L24.194 38.2267L16.097 41.1711C14.5672 41.7274 13.5488 43.1813 13.5488 44.809V50.8073C13.5488 51.3417 13.9821 51.7751 14.5166 51.7751H45.4843C46.0188 51.7751 46.452 51.3417 46.452 50.8073V44.809C46.452 43.1811 45.4338 41.7273 43.9039 41.171Z" fill="white" fill-opacity="0.2"/>
<path d="M28.9861 42.0977L28.0645 51.7749H31.9354L31.0137 42.0977H28.9861Z" fill="#707487"/>
<path d="M31.0161 43.4252H28.9841C28.6099 43.4252 28.3066 43.122 28.3066 42.7478V40.1602H31.6935V42.7478C31.6936 43.1218 31.3903 43.4252 31.0161 43.4252Z" fill="#5B5D6E"/>
<path d="M45.4102 42.1719C46.0637 42.8732 46.4519 43.8073 46.4519 44.8093V50.8077C46.4519 51.3421 46.0187 51.7754 45.4842 51.7754H40.6455V48.5401C40.6455 47.5134 41.0533 46.5288 41.7793 45.8029L45.4102 42.1719Z" fill="url(#paint1_linear_300_707)"/>
<path d="M40.6449 18.2691V10.162C40.6449 9.09305 39.7783 8.22656 38.7094 8.22656H27.0965C22.8208 8.22656 19.3545 11.6927 19.3545 15.9686V18.2691C19.3545 19.3092 19.5222 20.3426 19.8511 21.3293L20.1733 22.2957C20.272 22.5918 20.3222 22.9017 20.3222 23.2138V23.7104H39.677V23.2138C39.677 22.9017 39.7273 22.5918 39.826 22.2957L40.1481 21.3293C40.4772 20.3425 40.6449 19.3091 40.6449 18.2691Z" fill="#5A4146"/>
<path d="M24.1934 12.158C24.1934 14.3292 25.9535 16.0894 28.1248 16.0894H28.6691L28.9318 23.7103H39.6771V23.2137C39.6771 22.9016 39.7274 22.5916 39.8261 22.2956L40.1482 21.3292C40.4771 20.3425 40.6448 19.3091 40.6448 18.2689V10.162C40.6448 9.09305 39.7782 8.22656 38.7094 8.22656H28.1248C25.9535 8.22656 24.1934 9.98672 24.1934 12.158Z" fill="#5A4146"/>
<path d="M35.8066 31.4531H24.1934V40.1625H35.8066V31.4531Z" fill="#E6AF78"/>
<path d="M24.1935 34.7255C25.903 35.7158 27.8822 36.2918 29.9999 36.2918C32.1176 36.2918 34.0969 35.7158 35.8063 34.7255V31.4531H24.1934L24.1935 34.7255Z" fill="#E6AF78"/>
<path d="M29.9997 40.164L26.9132 43.2505C26.4984 43.6653 25.8127 43.6186 25.4581 43.1512L22.2578 38.9343L23.0949 37.1703C23.3419 36.6498 23.9862 36.459 24.4768 36.7613L29.9997 40.164Z" fill="url(#paint2_linear_300_707)"/>
<path d="M30 40.164L33.0865 43.2505C33.5013 43.6653 34.187 43.6186 34.5416 43.1512L37.7419 38.9343L36.9048 37.1703C36.6578 36.6498 36.0135 36.459 35.5229 36.7613L30 40.164Z" fill="url(#paint3_linear_300_707)"/>
<path d="M29.9997 34.3535C24.655 34.3535 20.3223 30.0207 20.3223 24.676V23.5422C20.3223 23.0289 20.5262 22.5366 20.8891 22.1736L21.6908 21.3719C22.0537 21.009 22.2576 20.5167 22.2576 20.0033V17.6834C22.2576 17.2353 22.5586 16.846 22.9946 16.743C25.2834 16.2024 32.4057 14.9219 37.2527 18.4868C37.5675 18.7182 37.7415 19.0985 37.7415 19.4892V20.0033C37.7415 20.5166 37.9454 21.0089 38.3083 21.3719L39.11 22.1736C39.4729 22.5365 39.6768 23.0288 39.6768 23.5422V24.676C39.6772 30.0207 35.3444 34.3535 29.9997 34.3535Z" fill="#F0C087"/>
<path d="M37.2528 18.489C33.8438 15.9818 29.3156 15.8733 26.1288 16.2165C24.7845 16.3613 23.6738 16.585 22.9948 16.7453C22.5588 16.8483 22.2579 17.2376 22.2579 17.6857V20.0054C22.2579 20.5188 22.0539 21.0111 21.6909 21.3742L20.8892 22.1759C20.5262 22.5389 20.3223 23.0312 20.3223 23.5446V24.6783C20.3223 29.6264 24.0383 33.7 28.8303 34.2783C27.1605 32.5394 26.1287 30.1828 26.1287 27.5815V20.5079C26.1287 19.5272 26.8579 18.7076 27.8309 18.5856C30.1534 18.2944 34.407 18.1193 37.7415 20.0057V19.4915C37.7417 19.1008 37.5673 18.7204 37.2528 18.489Z" fill="#F0C087"/>
<path d="M14.5905 42.1719C13.9371 42.8732 13.5488 43.8073 13.5488 44.8093V50.8077C13.5488 51.3421 13.9821 51.7754 14.5166 51.7754H19.3552V48.5401C19.3552 47.5134 18.9474 46.5288 18.2214 45.8029L14.5905 42.1719Z" fill="url(#paint4_linear_300_707)"/>
</g>
<defs>
<linearGradient id="paint0_linear_300_707" x1="13.5488" y1="40.7669" x2="46.7539" y2="46.4682" gradientUnits="userSpaceOnUse">
<stop stop-color="#30C917"/>
<stop offset="1" stop-color="#279A13"/>
</linearGradient>
<linearGradient id="paint1_linear_300_707" x1="40.6455" y1="43.9725" x2="46.6669" y2="44.2299" gradientUnits="userSpaceOnUse">
<stop stop-color="#30C917"/>
<stop offset="1" stop-color="#279A13"/>
</linearGradient>
<linearGradient id="paint2_linear_300_707" x1="22.2578" y1="37.9141" x2="30.251" y2="38.5466" gradientUnits="userSpaceOnUse">
<stop stop-color="#30C917"/>
<stop offset="1" stop-color="#279A13"/>
</linearGradient>
<linearGradient id="paint3_linear_300_707" x1="30" y1="37.9141" x2="37.9932" y2="38.5466" gradientUnits="userSpaceOnUse">
<stop stop-color="#30C917"/>
<stop offset="1" stop-color="#279A13"/>
</linearGradient>
<linearGradient id="paint4_linear_300_707" x1="13.5488" y1="43.9725" x2="19.5702" y2="44.2299" gradientUnits="userSpaceOnUse">
<stop stop-color="#30C917"/>
<stop offset="1" stop-color="#279A13"/>
</linearGradient>
<clipPath id="clip0_300_707">
<rect width="60" height="60" fill="white"/>
</clipPath>
</defs>
</svg>
