<svg width="166" height="166" viewBox="0 0 166 166" fill="none" xmlns="http://www.w3.org/2000/svg">
<g filter="url(#filter0_d_300_262)">
<circle cx="83" cy="79" r="55" fill="white" fill-opacity="0.64" shape-rendering="crispEdges"/>
</g>
<g filter="url(#filter1_d_300_262)">
<circle cx="83" cy="79" r="46" fill="white"/>
</g>
<g clip-path="url(#clip0_300_262)">
<path d="M78.8621 74.8637C78.8621 81.1484 73.7675 86.243 67.4828 86.243C61.1981 86.243 56.1035 81.1484 56.1035 74.8637C56.1035 68.579 61.1981 63.4844 67.4828 63.4844C73.7675 63.4844 78.8621 68.579 78.8621 74.8637Z" fill="#DEDEE6"/>
<path d="M76.7935 74.8611C76.7935 80.0032 72.6253 84.1715 67.4832 84.1715C62.3411 84.1715 58.1729 80.0032 58.1729 74.8611C58.1729 69.719 62.3411 65.5508 67.4832 65.5508C72.6253 65.5508 76.7935 69.719 76.7935 74.8611Z" fill="#F3F3FB"/>
<path d="M113 60.3793C113 66.664 107.905 71.7586 101.621 71.7586C95.3358 71.7586 90.2412 66.664 90.2412 60.3793C90.2412 54.0946 95.3358 49 101.621 49C107.905 49 113 54.0946 113 60.3793Z" fill="#DEDEE6"/>
<path d="M110.931 60.3807C110.931 65.5228 106.763 69.691 101.621 69.691C96.4788 69.691 92.3105 65.5228 92.3105 60.3807C92.3105 55.2386 96.4788 51.0703 101.621 51.0703C106.763 51.0703 110.931 55.2386 110.931 60.3807Z" fill="#F3F3FB"/>
<path d="M99.5516 97.6215C99.5516 103.906 94.457 109.001 88.1723 109.001C81.8876 109.001 76.793 103.906 76.793 97.6215C76.793 91.3368 81.8876 86.2422 88.1723 86.2422C94.457 86.2422 99.5516 91.3368 99.5516 97.6215Z" fill="#DEDEE6"/>
<path d="M97.483 97.6189C97.483 102.761 93.3148 106.929 88.1726 106.929C83.0305 106.929 78.8623 102.761 78.8623 97.6189C78.8623 92.4768 83.0305 88.3086 88.1726 88.3086C93.3148 88.3086 97.483 92.4768 97.483 97.6189Z" fill="#F3F3FB"/>
<path d="M108.863 88.311C107.414 88.311 106.131 87.566 105.397 86.4284C104.973 85.7763 104.725 85.0005 104.725 84.1731C104.725 81.8869 106.576 80.0352 108.863 80.0352C111.149 80.0352 113 81.8869 113 84.1731C113 86.4593 111.149 88.311 108.863 88.311Z" fill="#DEDEE6"/>
<path d="M108.842 69.1841C106.876 70.7879 104.362 71.7602 101.621 71.7602C100.256 71.7602 98.952 71.5223 97.7519 71.0879V71.0773C96.5209 70.6429 95.3935 69.9913 94.4004 69.1841C94.659 65.9983 97.3382 63.4844 100.587 63.4844H102.656C105.904 63.4844 108.583 65.9983 108.842 69.1841Z" fill="#FF4755"/>
<path d="M105.758 59.345C105.758 61.6301 103.906 63.4829 101.62 63.4829C99.3352 63.4829 97.4824 61.6301 97.4824 59.345C97.4824 57.0598 99.3352 55.207 101.62 55.207C103.906 55.207 105.758 57.0598 105.758 59.345Z" fill="#FF4755"/>
<path d="M88.172 108.999C85.4202 108.999 82.8961 108.026 80.9307 106.402C81.1994 103.226 83.879 100.723 87.1169 100.723H89.1858C92.4342 100.723 95.1134 103.237 95.372 106.422L95.3826 106.433C93.4167 108.036 90.9133 108.999 88.172 108.999Z" fill="url(#paint0_linear_300_262)"/>
<path d="M92.2895 96.5871C92.2895 98.8723 90.4368 100.725 88.1516 100.725C85.8664 100.725 84.0137 98.8723 84.0137 96.5871C84.0137 94.302 85.8664 92.4492 88.1516 92.4492C90.4368 92.4492 92.2895 94.302 92.2895 96.5871Z" fill="url(#paint1_linear_300_262)"/>
<path d="M81.9651 49C84.2512 49 86.103 50.8518 86.103 53.1379C86.103 53.6451 86.0101 54.1209 85.8444 54.5654C85.265 56.1484 83.7446 57.2759 81.9651 57.2759C79.6789 57.2759 77.8271 55.4241 77.8271 53.1379C77.8271 50.8518 79.6789 49 81.9651 49Z" fill="#DEDEE6"/>
<path d="M67.4826 86.2407C65.4758 86.2407 63.5932 85.7235 61.9586 84.8132C61.3479 84.4819 60.7792 84.0889 60.2412 83.6444C60.5099 80.4682 63.1896 77.9648 66.4274 77.9648H68.4964C71.7448 77.9648 74.4239 80.4788 74.6825 83.6646L74.6932 83.6752C72.7272 85.2785 70.2239 86.2407 67.4826 86.2407Z" fill="#5DBCD9"/>
<path d="M71.6001 73.8293C71.6001 76.1145 69.7473 77.9673 67.4621 77.9673C65.177 77.9673 63.3242 76.1145 63.3242 73.8293C63.3242 71.5442 65.177 69.6914 67.4621 69.6914C69.7473 69.6914 71.6001 71.5442 71.6001 73.8293Z" fill="#5DBCD9"/>
<path d="M66.4485 106.932C64.1623 106.932 62.3105 105.08 62.3105 102.794C62.3105 100.508 64.1623 98.6562 66.4485 98.6562C68.4038 98.6562 70.0384 100.011 70.4728 101.832C70.545 102.143 70.5864 102.463 70.5864 102.794C70.5864 105.08 68.7346 106.932 66.4485 106.932Z" fill="#DEDEE6"/>
<path d="M57.1379 89.3438C57.8623 89.3438 58.5553 89.5301 59.1448 89.8711C60.4172 90.5747 61.2759 91.93 61.2759 93.4817C61.2759 95.7678 59.4241 97.6196 57.1379 97.6196C54.8518 97.6196 53 95.7678 53 93.4817C53 91.1955 54.8518 89.3438 57.1379 89.3438Z" fill="#DEDEE6"/>
<path d="M57.1379 49C59.4241 49 61.2759 50.8518 61.2759 53.1379C61.2759 54.7826 60.3136 56.2106 58.9175 56.8622C58.3795 57.1309 57.7688 57.2759 57.1379 57.2759C54.8518 57.2759 53 55.4241 53 53.1379C53 50.8518 54.8518 49 57.1379 49Z" fill="#DEDEE6"/>
<path d="M57.9834 57.307L59.8518 56.418L63.524 64.1352L61.6556 65.0242L57.9834 57.307Z" fill="#45639C"/>
<path d="M58.2393 89.3697L61.0533 84.3125L62.8611 85.3182L60.0471 90.3759L58.2393 89.3697Z" fill="#45639C"/>
<path d="M85.4873 55.5359L86.2041 53.5938L91.3037 55.4768L90.587 57.419L85.4873 55.5359Z" fill="#45639C"/>
<path d="M91.0713 86.5648L96.7756 70.7344L98.7213 71.435L93.017 87.2659L91.0713 86.5648Z" fill="#45639C"/>
<path d="M97.1436 90.5561L104.832 85.5625L105.959 87.2986L98.2715 92.2922L97.1436 90.5561Z" fill="#45639C"/>
<path d="M74.3711 83.9814L75.9026 82.5898L81.2816 88.5083L79.7506 89.8999L74.3711 83.9814Z" fill="#45639C"/>
<path d="M70.2314 100.824L76.8621 99.25L77.3395 101.262L70.7093 102.836L70.2314 100.824Z" fill="#45639C"/>
<path d="M77.5586 69.4596L90.7402 63.875L91.5473 65.7803L78.3658 71.3644L77.5586 69.4596Z" fill="#45639C"/>
</g>
<defs>
<filter id="filter0_d_300_262" x="0" y="0" width="166" height="166" filterUnits="userSpaceOnUse" color-interpolation-filters="sRGB">
<feFlood flood-opacity="0" result="BackgroundImageFix"/>
<feColorMatrix in="SourceAlpha" type="matrix" values="0 0 0 0 0 0 0 0 0 0 0 0 0 0 0 0 0 0 127 0" result="hardAlpha"/>
<feOffset dy="4"/>
<feGaussianBlur stdDeviation="14"/>
<feComposite in2="hardAlpha" operator="out"/>
<feColorMatrix type="matrix" values="0 0 0 0 0.104167 0 0 0 0 0.066116 0 0 0 0 0.030816 0 0 0 0.06 0"/>
<feBlend mode="normal" in2="BackgroundImageFix" result="effect1_dropShadow_300_262"/>
<feBlend mode="normal" in="SourceGraphic" in2="effect1_dropShadow_300_262" result="shape"/>
</filter>
<filter id="filter1_d_300_262" x="9" y="9" width="148" height="148" filterUnits="userSpaceOnUse" color-interpolation-filters="sRGB">
<feFlood flood-opacity="0" result="BackgroundImageFix"/>
<feColorMatrix in="SourceAlpha" type="matrix" values="0 0 0 0 0 0 0 0 0 0 0 0 0 0 0 0 0 0 127 0" result="hardAlpha"/>
<feOffset dy="4"/>
<feGaussianBlur stdDeviation="14"/>
<feComposite in2="hardAlpha" operator="out"/>
<feColorMatrix type="matrix" values="0 0 0 0 0.104167 0 0 0 0 0.066116 0 0 0 0 0.030816 0 0 0 0.06 0"/>
<feBlend mode="normal" in2="BackgroundImageFix" result="effect1_dropShadow_300_262"/>
<feBlend mode="normal" in="SourceGraphic" in2="effect1_dropShadow_300_262" result="shape"/>
</filter>
<linearGradient id="paint0_linear_300_262" x1="80.9307" y1="102.274" x2="95.7197" y2="104.1" gradientUnits="userSpaceOnUse">
<stop stop-color="#30C917"/>
<stop offset="1" stop-color="#279A13"/>
</linearGradient>
<linearGradient id="paint1_linear_300_262" x1="84.0137" y1="94.0009" x2="92.5689" y2="94.6058" gradientUnits="userSpaceOnUse">
<stop stop-color="#30C917"/>
<stop offset="1" stop-color="#279A13"/>
</linearGradient>
<clipPath id="clip0_300_262">
<rect width="60" height="60" fill="white" transform="translate(53 49)"/>
</clipPath>
</defs>
</svg>
