<svg width="166" height="166" viewBox="0 0 166 166" fill="none" xmlns="http://www.w3.org/2000/svg">
<g filter="url(#filter0_d_300_293)">
<circle cx="83" cy="79" r="55" fill="white" fill-opacity="0.64" shape-rendering="crispEdges"/>
</g>
<g filter="url(#filter1_d_300_293)">
<circle cx="83" cy="79" r="46" fill="white"/>
</g>
<g clip-path="url(#clip0_300_293)">
<path d="M70 100C70 102.122 69.1571 104.157 67.6569 105.657C66.1566 107.157 64.1217 108 62 108C59.8783 108 57.8434 107.157 56.3431 105.657C54.8429 104.157 54 102.122 54 100C54 94.667 62 88 62 88C62 88 70 94.667 70 100Z" fill="url(#paint0_linear_300_293)"/>
<path d="M85.0098 53H89.0098V61H85.0098V53Z" fill="#B9BFCC"/>
<path d="M108 68.9982V76.9982H99.378C98.5327 79.6138 96.88 81.8941 94.6574 83.5116C92.4349 85.129 89.7568 86.0003 87.008 86.0003C84.2592 86.0003 81.5811 85.129 79.3586 83.5116C77.136 81.8941 75.4833 79.6138 74.638 76.9982H67C66.7348 76.9982 66.4804 77.1036 66.2929 77.2911C66.1054 77.4786 66 77.733 66 77.9982V84.9982H58V73.9982C58 72.6721 58.5268 71.4004 59.4645 70.4627C60.4021 69.525 61.6739 68.9982 63 68.9982H74.638C75.4833 66.3826 77.136 64.1023 79.3586 62.4848C81.5811 60.8674 84.2592 59.9961 87.008 59.9961C89.7568 59.9961 92.4349 60.8674 94.6574 62.4848C96.88 64.1023 98.5327 66.3826 99.378 68.9982H108Z" fill="#CCD0DA"/>
<path d="M67 84H57C56.4477 84 56 84.4477 56 85V87C56 87.5523 56.4477 88 57 88H67C67.5523 88 68 87.5523 68 87V85C68 84.4477 67.5523 84 67 84Z" fill="#295474"/>
<path d="M93.0078 50H81.0078C80.4555 50 80.0078 50.4477 80.0078 51V53C80.0078 53.5523 80.4555 54 81.0078 54H93.0078C93.5601 54 94.0078 53.5523 94.0078 53V51C94.0078 50.4477 93.5601 50 93.0078 50Z" fill="#295474"/>
<path d="M110 67H108C106.895 67 106 67.8954 106 69V77C106 78.1046 106.895 79 108 79H110C111.105 79 112 78.1046 112 77V69C112 67.8954 111.105 67 110 67Z" fill="#295474"/>
<g filter="url(#filter2_d_300_293)">
<circle cx="87" cy="73" r="10" fill="url(#paint1_linear_300_293)"/>
<mask id="path-10-outside-1_300_293" maskUnits="userSpaceOnUse" x="78.0645" y="67.6289" width="18" height="14" fill="black">
<rect fill="white" x="78.0645" y="67.6289" width="18" height="14"/>
<path d="M91.1252 70.1956C90.8952 70.1978 90.6659 70.2169 90.439 70.2533C90.2122 70.2897 89.9888 70.3453 89.7707 70.4159C89.3349 70.5588 88.9198 70.7669 88.5515 71.0394C88.1809 71.31 87.8537 71.6346 87.5321 71.9624C87.2111 72.2911 86.8908 72.6078 86.5415 72.9108C87.2466 73.3374 88.0429 73.5832 88.8611 73.672C89.6788 73.7634 90.5153 73.6752 91.2968 73.4218C92.0787 73.1688 92.8057 72.7478 93.4118 72.1944C94.018 71.6412 94.5175 71.0193 94.8269 70.2599C94.2675 69.7369 93.6014 69.3291 92.8807 69.072C92.16 68.8139 91.385 68.7135 90.6229 68.7659C90.2413 68.7926 89.8639 68.8645 89.4971 68.9719C89.131 69.0817 88.7764 69.2296 88.442 69.4145C88.276 69.5084 88.1138 69.6088 87.9588 69.7212C87.8041 69.8336 87.6532 69.9513 87.5082 70.0772C87.2174 70.3274 86.9438 70.599 86.673 70.8743C86.4019 71.1493 86.1327 71.4284 85.8497 71.6952C85.7082 71.8286 85.5636 71.9592 85.413 72.0832C85.2627 72.2079 85.1077 72.3272 84.9445 72.4358C84.9041 72.4634 84.8636 72.491 84.8215 72.5161C84.7798 72.5419 84.7387 72.5686 84.6964 72.5931L84.568 72.6653C84.5257 72.6901 84.4808 72.7102 84.4372 72.7328L84.3713 72.766C84.3493 72.7767 84.3264 72.7861 84.3042 72.7962C84.259 72.8156 84.2147 72.8367 84.1692 72.8552C84.0773 72.8904 83.986 72.9271 83.8919 72.955C83.799 72.9874 83.7027 73.009 83.6079 73.0348L83.4633 73.0643L83.3908 73.0787L83.3177 73.0897C83.1232 73.1189 82.9265 73.1324 82.7297 73.1305C82.3366 73.1267 81.9447 73.0621 81.5707 72.9418C81.3837 72.8816 81.2014 72.8072 81.0257 72.7196C80.8503 72.631 80.6812 72.5303 80.5203 72.4182C79.8783 71.9661 79.3694 71.327 79.0808 70.5958L79.0645 70.5541L79.1005 70.528C79.6399 70.1378 80.2884 69.9127 80.947 69.8543C81.6065 69.7959 82.2789 69.9064 82.8866 70.1651C83.1903 70.2951 83.4777 70.4618 83.7451 70.6552C84.0117 70.8495 84.2555 71.0736 84.4783 71.316C84.9216 71.8035 85.2743 72.368 85.5429 72.9666C85.6781 73.2658 85.7914 73.5747 85.8849 73.8893C85.9329 74.0462 85.9727 74.2054 86.0107 74.3649C86.0458 74.525 86.0788 74.686 86.1035 74.848C86.1528 75.172 86.1911 75.4969 86.2196 75.8228C86.236 75.9854 86.2466 76.1486 86.2598 76.3116C86.2702 76.4748 86.2827 76.6378 86.2909 76.801C86.3276 77.4537 86.3483 78.107 86.3549 78.7606C86.3624 79.4139 86.3552 80.0675 86.3301 80.7204C86.3385 80.3939 86.342 80.0671 86.342 79.7407C86.3407 79.4142 86.3379 79.0874 86.3307 78.7609C86.3175 78.1079 86.2905 77.4552 86.2476 76.8035C86.2378 76.6406 86.2237 76.478 86.2118 76.315C86.1967 76.1524 86.1848 75.9898 86.1669 75.8275C86.1352 75.5029 86.0938 75.1789 86.0417 74.8578C85.9878 74.5369 85.9125 74.2199 85.8177 73.9087C85.7233 73.5976 85.6094 73.2925 85.4738 72.9971C85.205 72.4063 84.8529 71.8509 84.414 71.3741C84.1934 71.137 83.9531 70.9182 83.6905 70.7296C83.4275 70.5415 83.1458 70.3805 82.8483 70.2552C82.2531 70.0063 81.5983 69.903 80.9567 69.9636C80.3166 70.0245 79.708 70.1989 79.1881 70.5771C79.4695 71.2857 79.9656 71.8823 80.589 72.3196C80.7456 72.4282 80.9096 72.5256 81.0797 72.611C81.2501 72.6954 81.427 72.7673 81.6084 72.8254C81.9711 72.9412 82.3507 73.0031 82.731 73.0059C82.9211 73.0074 83.1113 72.9939 83.2989 72.9654L83.3692 72.9547L83.4391 72.9406L83.5788 72.9117C83.6704 72.8866 83.7632 72.8659 83.853 72.8342C83.944 72.8068 84.0321 72.7711 84.1209 72.7372C84.1649 72.7193 84.2078 72.6989 84.2515 72.6797C84.2731 72.67 84.2951 72.6609 84.3164 72.6502L84.3801 72.6179C84.4221 72.5959 84.4657 72.5761 84.5068 72.5519L84.6311 72.4816C84.6722 72.4574 84.712 72.4314 84.7528 72.4063C84.7936 72.3818 84.8332 72.3548 84.8724 72.3278C85.0311 72.2217 85.1827 72.1046 85.3298 71.9821C85.4776 71.8603 85.62 71.731 85.7597 71.5988C86.0395 71.3348 86.3062 71.0554 86.5786 70.7801C86.8506 70.5045 87.1273 70.231 87.4235 69.9774C87.571 69.8499 87.7253 69.7297 87.8838 69.6151C88.0422 69.5005 88.2095 69.3972 88.3802 69.3015C88.7231 69.1128 89.0864 68.9621 89.4614 68.8504C89.8369 68.7411 90.2235 68.6686 90.6138 68.6419C91.3938 68.5898 92.1847 68.694 92.9208 68.959C93.6566 69.223 94.3359 69.6408 94.9056 70.1758L94.9348 70.2031L94.9197 70.2395C94.8388 70.4326 94.7491 70.6219 94.649 70.8058C94.5467 70.9886 94.4366 71.1666 94.3158 71.3376C94.1934 71.5075 94.0638 71.672 93.9248 71.828C93.7846 71.9831 93.6381 72.1325 93.4827 72.2725C92.8618 72.8329 92.1201 73.2561 91.3247 73.5085C90.5294 73.7609 89.681 73.845 88.8527 73.7477C88.0244 73.6526 87.2186 73.371 86.5111 72.9318L86.4769 72.9108L86.5073 72.885C86.8562 72.588 87.1753 72.2568 87.5001 71.9307C87.8251 71.6057 88.1571 71.2827 88.533 71.0137C88.9069 70.7431 89.3261 70.5365 89.7657 70.399C89.9856 70.3309 90.2106 70.2781 90.4381 70.2445C90.6652 70.2113 90.8955 70.1949 91.1252 70.1956Z"/>
</mask>
<path d="M91.1252 70.1956C90.8952 70.1978 90.6659 70.2169 90.439 70.2533C90.2122 70.2897 89.9888 70.3453 89.7707 70.4159C89.3349 70.5588 88.9198 70.7669 88.5515 71.0394C88.1809 71.31 87.8537 71.6346 87.5321 71.9624C87.2111 72.2911 86.8908 72.6078 86.5415 72.9108C87.2466 73.3374 88.0429 73.5832 88.8611 73.672C89.6788 73.7634 90.5153 73.6752 91.2968 73.4218C92.0787 73.1688 92.8057 72.7478 93.4118 72.1944C94.018 71.6412 94.5175 71.0193 94.8269 70.2599C94.2675 69.7369 93.6014 69.3291 92.8807 69.072C92.16 68.8139 91.385 68.7135 90.6229 68.7659C90.2413 68.7926 89.8639 68.8645 89.4971 68.9719C89.131 69.0817 88.7764 69.2296 88.442 69.4145C88.276 69.5084 88.1138 69.6088 87.9588 69.7212C87.8041 69.8336 87.6532 69.9513 87.5082 70.0772C87.2174 70.3274 86.9438 70.599 86.673 70.8743C86.4019 71.1493 86.1327 71.4284 85.8497 71.6952C85.7082 71.8286 85.5636 71.9592 85.413 72.0832C85.2627 72.2079 85.1077 72.3272 84.9445 72.4358C84.9041 72.4634 84.8636 72.491 84.8215 72.5161C84.7798 72.5419 84.7387 72.5686 84.6964 72.5931L84.568 72.6653C84.5257 72.6901 84.4808 72.7102 84.4372 72.7328L84.3713 72.766C84.3493 72.7767 84.3264 72.7861 84.3042 72.7962C84.259 72.8156 84.2147 72.8367 84.1692 72.8552C84.0773 72.8904 83.986 72.9271 83.8919 72.955C83.799 72.9874 83.7027 73.009 83.6079 73.0348L83.4633 73.0643L83.3908 73.0787L83.3177 73.0897C83.1232 73.1189 82.9265 73.1324 82.7297 73.1305C82.3366 73.1267 81.9447 73.0621 81.5707 72.9418C81.3837 72.8816 81.2014 72.8072 81.0257 72.7196C80.8503 72.631 80.6812 72.5303 80.5203 72.4182C79.8783 71.9661 79.3694 71.327 79.0808 70.5958L79.0645 70.5541L79.1005 70.528C79.6399 70.1378 80.2884 69.9127 80.947 69.8543C81.6065 69.7959 82.2789 69.9064 82.8866 70.1651C83.1903 70.2951 83.4777 70.4618 83.7451 70.6552C84.0117 70.8495 84.2555 71.0736 84.4783 71.316C84.9216 71.8035 85.2743 72.368 85.5429 72.9666C85.6781 73.2658 85.7914 73.5747 85.8849 73.8893C85.9329 74.0462 85.9727 74.2054 86.0107 74.3649C86.0458 74.525 86.0788 74.686 86.1035 74.848C86.1528 75.172 86.1911 75.4969 86.2196 75.8228C86.236 75.9854 86.2466 76.1486 86.2598 76.3116C86.2702 76.4748 86.2827 76.6378 86.2909 76.801C86.3276 77.4537 86.3483 78.107 86.3549 78.7606C86.3624 79.4139 86.3552 80.0675 86.3301 80.7204C86.3385 80.3939 86.342 80.0671 86.342 79.7407C86.3407 79.4142 86.3379 79.0874 86.3307 78.7609C86.3175 78.1079 86.2905 77.4552 86.2476 76.8035C86.2378 76.6406 86.2237 76.478 86.2118 76.315C86.1967 76.1524 86.1848 75.9898 86.1669 75.8275C86.1352 75.5029 86.0938 75.1789 86.0417 74.8578C85.9878 74.5369 85.9125 74.2199 85.8177 73.9087C85.7233 73.5976 85.6094 73.2925 85.4738 72.9971C85.205 72.4063 84.8529 71.8509 84.414 71.3741C84.1934 71.137 83.9531 70.9182 83.6905 70.7296C83.4275 70.5415 83.1458 70.3805 82.8483 70.2552C82.2531 70.0063 81.5983 69.903 80.9567 69.9636C80.3166 70.0245 79.708 70.1989 79.1881 70.5771C79.4695 71.2857 79.9656 71.8823 80.589 72.3196C80.7456 72.4282 80.9096 72.5256 81.0797 72.611C81.2501 72.6954 81.427 72.7673 81.6084 72.8254C81.9711 72.9412 82.3507 73.0031 82.731 73.0059C82.9211 73.0074 83.1113 72.9939 83.2989 72.9654L83.3692 72.9547L83.4391 72.9406L83.5788 72.9117C83.6704 72.8866 83.7632 72.8659 83.853 72.8342C83.944 72.8068 84.0321 72.7711 84.1209 72.7372C84.1649 72.7193 84.2078 72.6989 84.2515 72.6797C84.2731 72.67 84.2951 72.6609 84.3164 72.6502L84.3801 72.6179C84.4221 72.5959 84.4657 72.5761 84.5068 72.5519L84.6311 72.4816C84.6722 72.4574 84.712 72.4314 84.7528 72.4063C84.7936 72.3818 84.8332 72.3548 84.8724 72.3278C85.0311 72.2217 85.1827 72.1046 85.3298 71.9821C85.4776 71.8603 85.62 71.731 85.7597 71.5988C86.0395 71.3348 86.3062 71.0554 86.5786 70.7801C86.8506 70.5045 87.1273 70.231 87.4235 69.9774C87.571 69.8499 87.7253 69.7297 87.8838 69.6151C88.0422 69.5005 88.2095 69.3972 88.3802 69.3015C88.7231 69.1128 89.0864 68.9621 89.4614 68.8504C89.8369 68.7411 90.2235 68.6686 90.6138 68.6419C91.3938 68.5898 92.1847 68.694 92.9208 68.959C93.6566 69.223 94.3359 69.6408 94.9056 70.1758L94.9348 70.2031L94.9197 70.2395C94.8388 70.4326 94.7491 70.6219 94.649 70.8058C94.5467 70.9886 94.4366 71.1666 94.3158 71.3376C94.1934 71.5075 94.0638 71.672 93.9248 71.828C93.7846 71.9831 93.6381 72.1325 93.4827 72.2725C92.8618 72.8329 92.1201 73.2561 91.3247 73.5085C90.5294 73.7609 89.681 73.845 88.8527 73.7477C88.0244 73.6526 87.2186 73.371 86.5111 72.9318L86.4769 72.9108L86.5073 72.885C86.8562 72.588 87.1753 72.2568 87.5001 71.9307C87.8251 71.6057 88.1571 71.2827 88.533 71.0137C88.9069 70.7431 89.3261 70.5365 89.7657 70.399C89.9856 70.3309 90.2106 70.2781 90.4381 70.2445C90.6652 70.2113 90.8955 70.1949 91.1252 70.1956Z" fill="white"/>
<path d="M91.1252 70.1956C90.8952 70.1978 90.6659 70.2169 90.439 70.2533C90.2122 70.2897 89.9888 70.3453 89.7707 70.4159C89.3349 70.5588 88.9198 70.7669 88.5515 71.0394C88.1809 71.31 87.8537 71.6346 87.5321 71.9624C87.2111 72.2911 86.8908 72.6078 86.5415 72.9108C87.2466 73.3374 88.0429 73.5832 88.8611 73.672C89.6788 73.7634 90.5153 73.6752 91.2968 73.4218C92.0787 73.1688 92.8057 72.7478 93.4118 72.1944C94.018 71.6412 94.5175 71.0193 94.8269 70.2599C94.2675 69.7369 93.6014 69.3291 92.8807 69.072C92.16 68.8139 91.385 68.7135 90.6229 68.7659C90.2413 68.7926 89.8639 68.8645 89.4971 68.9719C89.131 69.0817 88.7764 69.2296 88.442 69.4145C88.276 69.5084 88.1138 69.6088 87.9588 69.7212C87.8041 69.8336 87.6532 69.9513 87.5082 70.0772C87.2174 70.3274 86.9438 70.599 86.673 70.8743C86.4019 71.1493 86.1327 71.4284 85.8497 71.6952C85.7082 71.8286 85.5636 71.9592 85.413 72.0832C85.2627 72.2079 85.1077 72.3272 84.9445 72.4358C84.9041 72.4634 84.8636 72.491 84.8215 72.5161C84.7798 72.5419 84.7387 72.5686 84.6964 72.5931L84.568 72.6653C84.5257 72.6901 84.4808 72.7102 84.4372 72.7328L84.3713 72.766C84.3493 72.7767 84.3264 72.7861 84.3042 72.7962C84.259 72.8156 84.2147 72.8367 84.1692 72.8552C84.0773 72.8904 83.986 72.9271 83.8919 72.955C83.799 72.9874 83.7027 73.009 83.6079 73.0348L83.4633 73.0643L83.3908 73.0787L83.3177 73.0897C83.1232 73.1189 82.9265 73.1324 82.7297 73.1305C82.3366 73.1267 81.9447 73.0621 81.5707 72.9418C81.3837 72.8816 81.2014 72.8072 81.0257 72.7196C80.8503 72.631 80.6812 72.5303 80.5203 72.4182C79.8783 71.9661 79.3694 71.327 79.0808 70.5958L79.0645 70.5541L79.1005 70.528C79.6399 70.1378 80.2884 69.9127 80.947 69.8543C81.6065 69.7959 82.2789 69.9064 82.8866 70.1651C83.1903 70.2951 83.4777 70.4618 83.7451 70.6552C84.0117 70.8495 84.2555 71.0736 84.4783 71.316C84.9216 71.8035 85.2743 72.368 85.5429 72.9666C85.6781 73.2658 85.7914 73.5747 85.8849 73.8893C85.9329 74.0462 85.9727 74.2054 86.0107 74.3649C86.0458 74.525 86.0788 74.686 86.1035 74.848C86.1528 75.172 86.1911 75.4969 86.2196 75.8228C86.236 75.9854 86.2466 76.1486 86.2598 76.3116C86.2702 76.4748 86.2827 76.6378 86.2909 76.801C86.3276 77.4537 86.3483 78.107 86.3549 78.7606C86.3624 79.4139 86.3552 80.0675 86.3301 80.7204C86.3385 80.3939 86.342 80.0671 86.342 79.7407C86.3407 79.4142 86.3379 79.0874 86.3307 78.7609C86.3175 78.1079 86.2905 77.4552 86.2476 76.8035C86.2378 76.6406 86.2237 76.478 86.2118 76.315C86.1967 76.1524 86.1848 75.9898 86.1669 75.8275C86.1352 75.5029 86.0938 75.1789 86.0417 74.8578C85.9878 74.5369 85.9125 74.2199 85.8177 73.9087C85.7233 73.5976 85.6094 73.2925 85.4738 72.9971C85.205 72.4063 84.8529 71.8509 84.414 71.3741C84.1934 71.137 83.9531 70.9182 83.6905 70.7296C83.4275 70.5415 83.1458 70.3805 82.8483 70.2552C82.2531 70.0063 81.5983 69.903 80.9567 69.9636C80.3166 70.0245 79.708 70.1989 79.1881 70.5771C79.4695 71.2857 79.9656 71.8823 80.589 72.3196C80.7456 72.4282 80.9096 72.5256 81.0797 72.611C81.2501 72.6954 81.427 72.7673 81.6084 72.8254C81.9711 72.9412 82.3507 73.0031 82.731 73.0059C82.9211 73.0074 83.1113 72.9939 83.2989 72.9654L83.3692 72.9547L83.4391 72.9406L83.5788 72.9117C83.6704 72.8866 83.7632 72.8659 83.853 72.8342C83.944 72.8068 84.0321 72.7711 84.1209 72.7372C84.1649 72.7193 84.2078 72.6989 84.2515 72.6797C84.2731 72.67 84.2951 72.6609 84.3164 72.6502L84.3801 72.6179C84.4221 72.5959 84.4657 72.5761 84.5068 72.5519L84.6311 72.4816C84.6722 72.4574 84.712 72.4314 84.7528 72.4063C84.7936 72.3818 84.8332 72.3548 84.8724 72.3278C85.0311 72.2217 85.1827 72.1046 85.3298 71.9821C85.4776 71.8603 85.62 71.731 85.7597 71.5988C86.0395 71.3348 86.3062 71.0554 86.5786 70.7801C86.8506 70.5045 87.1273 70.231 87.4235 69.9774C87.571 69.8499 87.7253 69.7297 87.8838 69.6151C88.0422 69.5005 88.2095 69.3972 88.3802 69.3015C88.7231 69.1128 89.0864 68.9621 89.4614 68.8504C89.8369 68.7411 90.2235 68.6686 90.6138 68.6419C91.3938 68.5898 92.1847 68.694 92.9208 68.959C93.6566 69.223 94.3359 69.6408 94.9056 70.1758L94.9348 70.2031L94.9197 70.2395C94.8388 70.4326 94.7491 70.6219 94.649 70.8058C94.5467 70.9886 94.4366 71.1666 94.3158 71.3376C94.1934 71.5075 94.0638 71.672 93.9248 71.828C93.7846 71.9831 93.6381 72.1325 93.4827 72.2725C92.8618 72.8329 92.1201 73.2561 91.3247 73.5085C90.5294 73.7609 89.681 73.845 88.8527 73.7477C88.0244 73.6526 87.2186 73.371 86.5111 72.9318L86.4769 72.9108L86.5073 72.885C86.8562 72.588 87.1753 72.2568 87.5001 71.9307C87.8251 71.6057 88.1571 71.2827 88.533 71.0137C88.9069 70.7431 89.3261 70.5365 89.7657 70.399C89.9856 70.3309 90.2106 70.2781 90.4381 70.2445C90.6652 70.2113 90.8955 70.1949 91.1252 70.1956Z" stroke="white" stroke-width="0.340909" mask="url(#path-10-outside-1_300_293)"/>
<mask id="path-11-outside-2_300_293" maskUnits="userSpaceOnUse" x="55" y="95" width="14" height="11" fill="black">
<rect fill="white" x="55" y="95" width="14" height="11"/>
<path d="M65.0684 97.178C64.8955 97.1796 64.723 97.194 64.5524 97.2214C64.3819 97.2488 64.2139 97.2905 64.05 97.3437C63.7223 97.4511 63.4102 97.6076 63.1332 97.8124C62.8546 98.0159 62.6085 98.26 62.3667 98.5064C62.1254 98.7535 61.8845 98.9917 61.622 99.2195C62.1521 99.5403 62.7508 99.7251 63.3661 99.7919C63.9808 99.8606 64.6098 99.7943 65.1974 99.6038C65.7853 99.4135 66.3319 99.097 66.7877 98.6808C67.2435 98.2649 67.619 97.7973 67.8516 97.2263C67.431 96.8331 66.9302 96.5265 66.3883 96.3332C65.8464 96.1391 65.2637 96.0636 64.6907 96.103C64.4038 96.1231 64.12 96.1771 63.8442 96.2579C63.5689 96.3405 63.3024 96.4517 63.0509 96.5907C62.9261 96.6613 62.8041 96.7368 62.6876 96.8213C62.5713 96.9058 62.4578 96.9943 62.3488 97.089C62.1301 97.2771 61.9244 97.4813 61.7208 97.6883C61.517 97.8951 61.3146 98.1049 61.1018 98.3055C60.9954 98.4059 60.8866 98.504 60.7734 98.5973C60.6604 98.691 60.5439 98.7807 60.4212 98.8624C60.3908 98.8831 60.3603 98.9039 60.3287 98.9228C60.2973 98.9421 60.2664 98.9622 60.2346 98.9806L60.1381 99.0349C60.1063 99.0536 60.0725 99.0687 60.0397 99.0857L59.9902 99.1107C59.9737 99.1187 59.9564 99.1258 59.9397 99.1333C59.9057 99.148 59.8725 99.1638 59.8383 99.1777C59.7691 99.2041 59.7005 99.2318 59.6297 99.2528C59.5599 99.2771 59.4875 99.2934 59.4162 99.3127L59.3075 99.3349L59.253 99.3458L59.198 99.354C59.0517 99.376 58.9038 99.3861 58.7559 99.3847C58.4603 99.3819 58.1657 99.3333 57.8844 99.2429C57.7438 99.1975 57.6068 99.1416 57.4747 99.0757C57.3428 99.0092 57.2156 98.9334 57.0946 98.8491C56.612 98.5092 56.2293 98.0287 56.0123 97.4789L56 97.4475L56.0271 97.4279C56.4327 97.1345 56.9203 96.9653 57.4155 96.9214C57.9113 96.8775 58.4169 96.9606 58.8739 97.1551C59.1022 97.2528 59.3183 97.3781 59.5193 97.5235C59.7198 97.6696 59.9031 97.8382 60.0706 98.0204C60.404 98.387 60.6691 98.8114 60.8711 99.2615C60.9727 99.4865 61.0579 99.7187 61.1282 99.9552C61.1643 100.073 61.1943 100.193 61.2228 100.313C61.2492 100.433 61.274 100.554 61.2926 100.676C61.3297 100.92 61.3585 101.164 61.3799 101.409C61.3922 101.531 61.4002 101.654 61.4101 101.777C61.4179 101.899 61.4273 102.022 61.4335 102.145C61.4611 102.635 61.4767 103.126 61.4816 103.618C61.4873 104.109 61.4818 104.601 61.463 105.092C61.4693 104.846 61.4719 104.6 61.4719 104.355C61.471 104.109 61.4689 103.864 61.4634 103.618C61.4535 103.127 61.4332 102.636 61.4009 102.146C61.3936 102.024 61.383 101.902 61.374 101.779C61.3627 101.657 61.3537 101.535 61.3403 101.413C61.3165 101.168 61.2853 100.925 61.2462 100.683C61.2056 100.442 61.149 100.204 61.0777 99.9699C61.0067 99.736 60.9211 99.5065 60.8192 99.2844C60.617 98.8402 60.3523 98.4226 60.0223 98.0641C59.8564 97.8858 59.6757 97.7213 59.4783 97.5795C59.2806 97.4381 59.0687 97.317 58.8451 97.2228C58.3976 97.0356 57.9052 96.958 57.4228 97.0035C56.9415 97.0493 56.4839 97.1804 56.0929 97.4649C56.3046 97.9976 56.6775 98.4462 57.1463 98.775C57.264 98.8567 57.3874 98.9299 57.5153 98.9941C57.6433 99.0576 57.7764 99.1116 57.9128 99.1553C58.1855 99.2424 58.4709 99.2889 58.7568 99.291C58.8998 99.2922 59.0428 99.282 59.1838 99.2606L59.2367 99.2525L59.2893 99.2419L59.3943 99.2202C59.4632 99.2013 59.533 99.1857 59.6005 99.1619C59.6689 99.1414 59.7352 99.1145 59.8019 99.089C59.835 99.0755 59.8673 99.0602 59.9001 99.0458C59.9163 99.0384 59.9329 99.0316 59.9489 99.0236L59.9968 98.9993C60.0284 98.9827 60.0612 98.9679 60.0921 98.9497L60.1855 98.8968C60.2164 98.8786 60.2464 98.8591 60.277 98.8402C60.3077 98.8218 60.3374 98.8015 60.3669 98.7812C60.4863 98.7014 60.6002 98.6133 60.7109 98.5213C60.822 98.4297 60.9291 98.3324 61.0341 98.2331C61.2445 98.0346 61.445 97.8245 61.6498 97.6175C61.8543 97.4102 62.0624 97.2046 62.2851 97.0139C62.396 96.9181 62.5121 96.8277 62.6312 96.7415C62.7503 96.6554 62.8761 96.5777 63.0044 96.5057C63.2623 96.3638 63.5354 96.2505 63.8174 96.1665C64.0997 96.0844 64.3904 96.0298 64.6838 96.0098C65.2703 95.9706 65.865 96.049 66.4185 96.2482C66.9717 96.4467 67.4824 96.7609 67.9109 97.1631L67.9328 97.1836L67.9215 97.211C67.8606 97.3562 67.7931 97.4985 67.7179 97.6368C67.641 97.7742 67.5582 97.908 67.4673 98.0367C67.3753 98.1644 67.2779 98.2881 67.1734 98.4054C67.068 98.522 66.9578 98.6343 66.841 98.7396C66.3741 99.161 65.8165 99.4791 65.2184 99.6689C64.6204 99.8587 63.9825 99.922 63.3597 99.8488C62.7369 99.7773 62.1311 99.5655 61.5991 99.2353L61.5734 99.2195L61.5963 99.2001C61.8586 98.9768 62.0985 98.7278 62.3427 98.4826C62.5871 98.2383 62.8367 97.9954 63.1193 97.7931C63.4005 97.5896 63.7157 97.4343 64.0462 97.3309C64.2116 97.2797 64.3807 97.24 64.5517 97.2148C64.7225 97.1898 64.8957 97.1775 65.0684 97.178Z"/>
</mask>
<path d="M65.0684 97.178C64.8955 97.1796 64.723 97.194 64.5524 97.2214C64.3819 97.2488 64.2139 97.2905 64.05 97.3437C63.7223 97.4511 63.4102 97.6076 63.1332 97.8124C62.8546 98.0159 62.6085 98.26 62.3667 98.5064C62.1254 98.7535 61.8845 98.9917 61.622 99.2195C62.1521 99.5403 62.7508 99.7251 63.3661 99.7919C63.9808 99.8606 64.6098 99.7943 65.1974 99.6038C65.7853 99.4135 66.3319 99.097 66.7877 98.6808C67.2435 98.2649 67.619 97.7973 67.8516 97.2263C67.431 96.8331 66.9302 96.5265 66.3883 96.3332C65.8464 96.1391 65.2637 96.0636 64.6907 96.103C64.4038 96.1231 64.12 96.1771 63.8442 96.2579C63.5689 96.3405 63.3024 96.4517 63.0509 96.5907C62.9261 96.6613 62.8041 96.7368 62.6876 96.8213C62.5713 96.9058 62.4578 96.9943 62.3488 97.089C62.1301 97.2771 61.9244 97.4813 61.7208 97.6883C61.517 97.8951 61.3146 98.1049 61.1018 98.3055C60.9954 98.4059 60.8866 98.504 60.7734 98.5973C60.6604 98.691 60.5439 98.7807 60.4212 98.8624C60.3908 98.8831 60.3603 98.9039 60.3287 98.9228C60.2973 98.9421 60.2664 98.9622 60.2346 98.9806L60.1381 99.0349C60.1063 99.0536 60.0725 99.0687 60.0397 99.0857L59.9902 99.1107C59.9737 99.1187 59.9564 99.1258 59.9397 99.1333C59.9057 99.148 59.8725 99.1638 59.8383 99.1777C59.7691 99.2041 59.7005 99.2318 59.6297 99.2528C59.5599 99.2771 59.4875 99.2934 59.4162 99.3127L59.3075 99.3349L59.253 99.3458L59.198 99.354C59.0517 99.376 58.9038 99.3861 58.7559 99.3847C58.4603 99.3819 58.1657 99.3333 57.8844 99.2429C57.7438 99.1975 57.6068 99.1416 57.4747 99.0757C57.3428 99.0092 57.2156 98.9334 57.0946 98.8491C56.612 98.5092 56.2293 98.0287 56.0123 97.4789L56 97.4475L56.0271 97.4279C56.4327 97.1345 56.9203 96.9653 57.4155 96.9214C57.9113 96.8775 58.4169 96.9606 58.8739 97.1551C59.1022 97.2528 59.3183 97.3781 59.5193 97.5235C59.7198 97.6696 59.9031 97.8382 60.0706 98.0204C60.404 98.387 60.6691 98.8114 60.8711 99.2615C60.9727 99.4865 61.0579 99.7187 61.1282 99.9552C61.1643 100.073 61.1943 100.193 61.2228 100.313C61.2492 100.433 61.274 100.554 61.2926 100.676C61.3297 100.92 61.3585 101.164 61.3799 101.409C61.3922 101.531 61.4002 101.654 61.4101 101.777C61.4179 101.899 61.4273 102.022 61.4335 102.145C61.4611 102.635 61.4767 103.126 61.4816 103.618C61.4873 104.109 61.4818 104.601 61.463 105.092C61.4693 104.846 61.4719 104.6 61.4719 104.355C61.471 104.109 61.4689 103.864 61.4634 103.618C61.4535 103.127 61.4332 102.636 61.4009 102.146C61.3936 102.024 61.383 101.902 61.374 101.779C61.3627 101.657 61.3537 101.535 61.3403 101.413C61.3165 101.168 61.2853 100.925 61.2462 100.683C61.2056 100.442 61.149 100.204 61.0777 99.9699C61.0067 99.736 60.9211 99.5065 60.8192 99.2844C60.617 98.8402 60.3523 98.4226 60.0223 98.0641C59.8564 97.8858 59.6757 97.7213 59.4783 97.5795C59.2806 97.4381 59.0687 97.317 58.8451 97.2228C58.3976 97.0356 57.9052 96.958 57.4228 97.0035C56.9415 97.0493 56.4839 97.1804 56.0929 97.4649C56.3046 97.9976 56.6775 98.4462 57.1463 98.775C57.264 98.8567 57.3874 98.9299 57.5153 98.9941C57.6433 99.0576 57.7764 99.1116 57.9128 99.1553C58.1855 99.2424 58.4709 99.2889 58.7568 99.291C58.8998 99.2922 59.0428 99.282 59.1838 99.2606L59.2367 99.2525L59.2893 99.2419L59.3943 99.2202C59.4632 99.2013 59.533 99.1857 59.6005 99.1619C59.6689 99.1414 59.7352 99.1145 59.8019 99.089C59.835 99.0755 59.8673 99.0602 59.9001 99.0458C59.9163 99.0384 59.9329 99.0316 59.9489 99.0236L59.9968 98.9993C60.0284 98.9827 60.0612 98.9679 60.0921 98.9497L60.1855 98.8968C60.2164 98.8786 60.2464 98.8591 60.277 98.8402C60.3077 98.8218 60.3374 98.8015 60.3669 98.7812C60.4863 98.7014 60.6002 98.6133 60.7109 98.5213C60.822 98.4297 60.9291 98.3324 61.0341 98.2331C61.2445 98.0346 61.445 97.8245 61.6498 97.6175C61.8543 97.4102 62.0624 97.2046 62.2851 97.0139C62.396 96.9181 62.5121 96.8277 62.6312 96.7415C62.7503 96.6554 62.8761 96.5777 63.0044 96.5057C63.2623 96.3638 63.5354 96.2505 63.8174 96.1665C64.0997 96.0844 64.3904 96.0298 64.6838 96.0098C65.2703 95.9706 65.865 96.049 66.4185 96.2482C66.9717 96.4467 67.4824 96.7609 67.9109 97.1631L67.9328 97.1836L67.9215 97.211C67.8606 97.3562 67.7931 97.4985 67.7179 97.6368C67.641 97.7742 67.5582 97.908 67.4673 98.0367C67.3753 98.1644 67.2779 98.2881 67.1734 98.4054C67.068 98.522 66.9578 98.6343 66.841 98.7396C66.3741 99.161 65.8165 99.4791 65.2184 99.6689C64.6204 99.8587 63.9825 99.922 63.3597 99.8488C62.7369 99.7773 62.1311 99.5655 61.5991 99.2353L61.5734 99.2195L61.5963 99.2001C61.8586 98.9768 62.0985 98.7278 62.3427 98.4826C62.5871 98.2383 62.8367 97.9954 63.1193 97.7931C63.4005 97.5896 63.7157 97.4343 64.0462 97.3309C64.2116 97.2797 64.3807 97.24 64.5517 97.2148C64.7225 97.1898 64.8957 97.1775 65.0684 97.178Z" fill="white"/>
<path d="M65.0684 97.178C64.8955 97.1796 64.723 97.194 64.5524 97.2214C64.3819 97.2488 64.2139 97.2905 64.05 97.3437C63.7223 97.4511 63.4102 97.6076 63.1332 97.8124C62.8546 98.0159 62.6085 98.26 62.3667 98.5064C62.1254 98.7535 61.8845 98.9917 61.622 99.2195C62.1521 99.5403 62.7508 99.7251 63.3661 99.7919C63.9808 99.8606 64.6098 99.7943 65.1974 99.6038C65.7853 99.4135 66.3319 99.097 66.7877 98.6808C67.2435 98.2649 67.619 97.7973 67.8516 97.2263C67.431 96.8331 66.9302 96.5265 66.3883 96.3332C65.8464 96.1391 65.2637 96.0636 64.6907 96.103C64.4038 96.1231 64.12 96.1771 63.8442 96.2579C63.5689 96.3405 63.3024 96.4517 63.0509 96.5907C62.9261 96.6613 62.8041 96.7368 62.6876 96.8213C62.5713 96.9058 62.4578 96.9943 62.3488 97.089C62.1301 97.2771 61.9244 97.4813 61.7208 97.6883C61.517 97.8951 61.3146 98.1049 61.1018 98.3055C60.9954 98.4059 60.8866 98.504 60.7734 98.5973C60.6604 98.691 60.5439 98.7807 60.4212 98.8624C60.3908 98.8831 60.3603 98.9039 60.3287 98.9228C60.2973 98.9421 60.2664 98.9622 60.2346 98.9806L60.1381 99.0349C60.1063 99.0536 60.0725 99.0687 60.0397 99.0857L59.9902 99.1107C59.9737 99.1187 59.9564 99.1258 59.9397 99.1333C59.9057 99.148 59.8725 99.1638 59.8383 99.1777C59.7691 99.2041 59.7005 99.2318 59.6297 99.2528C59.5599 99.2771 59.4875 99.2934 59.4162 99.3127L59.3075 99.3349L59.253 99.3458L59.198 99.354C59.0517 99.376 58.9038 99.3861 58.7559 99.3847C58.4603 99.3819 58.1657 99.3333 57.8844 99.2429C57.7438 99.1975 57.6068 99.1416 57.4747 99.0757C57.3428 99.0092 57.2156 98.9334 57.0946 98.8491C56.612 98.5092 56.2293 98.0287 56.0123 97.4789L56 97.4475L56.0271 97.4279C56.4327 97.1345 56.9203 96.9653 57.4155 96.9214C57.9113 96.8775 58.4169 96.9606 58.8739 97.1551C59.1022 97.2528 59.3183 97.3781 59.5193 97.5235C59.7198 97.6696 59.9031 97.8382 60.0706 98.0204C60.404 98.387 60.6691 98.8114 60.8711 99.2615C60.9727 99.4865 61.0579 99.7187 61.1282 99.9552C61.1643 100.073 61.1943 100.193 61.2228 100.313C61.2492 100.433 61.274 100.554 61.2926 100.676C61.3297 100.92 61.3585 101.164 61.3799 101.409C61.3922 101.531 61.4002 101.654 61.4101 101.777C61.4179 101.899 61.4273 102.022 61.4335 102.145C61.4611 102.635 61.4767 103.126 61.4816 103.618C61.4873 104.109 61.4818 104.601 61.463 105.092C61.4693 104.846 61.4719 104.6 61.4719 104.355C61.471 104.109 61.4689 103.864 61.4634 103.618C61.4535 103.127 61.4332 102.636 61.4009 102.146C61.3936 102.024 61.383 101.902 61.374 101.779C61.3627 101.657 61.3537 101.535 61.3403 101.413C61.3165 101.168 61.2853 100.925 61.2462 100.683C61.2056 100.442 61.149 100.204 61.0777 99.9699C61.0067 99.736 60.9211 99.5065 60.8192 99.2844C60.617 98.8402 60.3523 98.4226 60.0223 98.0641C59.8564 97.8858 59.6757 97.7213 59.4783 97.5795C59.2806 97.4381 59.0687 97.317 58.8451 97.2228C58.3976 97.0356 57.9052 96.958 57.4228 97.0035C56.9415 97.0493 56.4839 97.1804 56.0929 97.4649C56.3046 97.9976 56.6775 98.4462 57.1463 98.775C57.264 98.8567 57.3874 98.9299 57.5153 98.9941C57.6433 99.0576 57.7764 99.1116 57.9128 99.1553C58.1855 99.2424 58.4709 99.2889 58.7568 99.291C58.8998 99.2922 59.0428 99.282 59.1838 99.2606L59.2367 99.2525L59.2893 99.2419L59.3943 99.2202C59.4632 99.2013 59.533 99.1857 59.6005 99.1619C59.6689 99.1414 59.7352 99.1145 59.8019 99.089C59.835 99.0755 59.8673 99.0602 59.9001 99.0458C59.9163 99.0384 59.9329 99.0316 59.9489 99.0236L59.9968 98.9993C60.0284 98.9827 60.0612 98.9679 60.0921 98.9497L60.1855 98.8968C60.2164 98.8786 60.2464 98.8591 60.277 98.8402C60.3077 98.8218 60.3374 98.8015 60.3669 98.7812C60.4863 98.7014 60.6002 98.6133 60.7109 98.5213C60.822 98.4297 60.9291 98.3324 61.0341 98.2331C61.2445 98.0346 61.445 97.8245 61.6498 97.6175C61.8543 97.4102 62.0624 97.2046 62.2851 97.0139C62.396 96.9181 62.5121 96.8277 62.6312 96.7415C62.7503 96.6554 62.8761 96.5777 63.0044 96.5057C63.2623 96.3638 63.5354 96.2505 63.8174 96.1665C64.0997 96.0844 64.3904 96.0298 64.6838 96.0098C65.2703 95.9706 65.865 96.049 66.4185 96.2482C66.9717 96.4467 67.4824 96.7609 67.9109 97.1631L67.9328 97.1836L67.9215 97.211C67.8606 97.3562 67.7931 97.4985 67.7179 97.6368C67.641 97.7742 67.5582 97.908 67.4673 98.0367C67.3753 98.1644 67.2779 98.2881 67.1734 98.4054C67.068 98.522 66.9578 98.6343 66.841 98.7396C66.3741 99.161 65.8165 99.4791 65.2184 99.6689C64.6204 99.8587 63.9825 99.922 63.3597 99.8488C62.7369 99.7773 62.1311 99.5655 61.5991 99.2353L61.5734 99.2195L61.5963 99.2001C61.8586 98.9768 62.0985 98.7278 62.3427 98.4826C62.5871 98.2383 62.8367 97.9954 63.1193 97.7931C63.4005 97.5896 63.7157 97.4343 64.0462 97.3309C64.2116 97.2797 64.3807 97.24 64.5517 97.2148C64.7225 97.1898 64.8957 97.1775 65.0684 97.178Z" stroke="white" stroke-width="0.256327" mask="url(#path-11-outside-2_300_293)"/>
</g>
</g>
<defs>
<filter id="filter0_d_300_293" x="0" y="0" width="166" height="166" filterUnits="userSpaceOnUse" color-interpolation-filters="sRGB">
<feFlood flood-opacity="0" result="BackgroundImageFix"/>
<feColorMatrix in="SourceAlpha" type="matrix" values="0 0 0 0 0 0 0 0 0 0 0 0 0 0 0 0 0 0 127 0" result="hardAlpha"/>
<feOffset dy="4"/>
<feGaussianBlur stdDeviation="14"/>
<feComposite in2="hardAlpha" operator="out"/>
<feColorMatrix type="matrix" values="0 0 0 0 0.104167 0 0 0 0 0.066116 0 0 0 0 0.030816 0 0 0 0.06 0"/>
<feBlend mode="normal" in2="BackgroundImageFix" result="effect1_dropShadow_300_293"/>
<feBlend mode="normal" in="SourceGraphic" in2="effect1_dropShadow_300_293" result="shape"/>
</filter>
<filter id="filter1_d_300_293" x="9" y="9" width="148" height="148" filterUnits="userSpaceOnUse" color-interpolation-filters="sRGB">
<feFlood flood-opacity="0" result="BackgroundImageFix"/>
<feColorMatrix in="SourceAlpha" type="matrix" values="0 0 0 0 0 0 0 0 0 0 0 0 0 0 0 0 0 0 127 0" result="hardAlpha"/>
<feOffset dy="4"/>
<feGaussianBlur stdDeviation="14"/>
<feComposite in2="hardAlpha" operator="out"/>
<feColorMatrix type="matrix" values="0 0 0 0 0.104167 0 0 0 0 0.066116 0 0 0 0 0.030816 0 0 0 0.06 0"/>
<feBlend mode="normal" in2="BackgroundImageFix" result="effect1_dropShadow_300_293"/>
<feBlend mode="normal" in="SourceGraphic" in2="effect1_dropShadow_300_293" result="shape"/>
</filter>
<filter id="filter2_d_300_293" x="48.2257" y="56.3333" width="56.3934" height="57.3358" filterUnits="userSpaceOnUse" color-interpolation-filters="sRGB">
<feFlood flood-opacity="0" result="BackgroundImageFix"/>
<feColorMatrix in="SourceAlpha" type="matrix" values="0 0 0 0 0 0 0 0 0 0 0 0 0 0 0 0 0 0 127 0" result="hardAlpha"/>
<feOffset dy="0.952381"/>
<feGaussianBlur stdDeviation="3.80952"/>
<feComposite in2="hardAlpha" operator="out"/>
<feColorMatrix type="matrix" values="0 0 0 0 0.104167 0 0 0 0 0.066116 0 0 0 0 0.030816 0 0 0 0.12 0"/>
<feBlend mode="normal" in2="BackgroundImageFix" result="effect1_dropShadow_300_293"/>
<feBlend mode="normal" in="SourceGraphic" in2="effect1_dropShadow_300_293" result="shape"/>
</filter>
<linearGradient id="paint0_linear_300_293" x1="54" y1="91.75" x2="70.5698" y2="92.6872" gradientUnits="userSpaceOnUse">
<stop stop-color="#30C917"/>
<stop offset="1" stop-color="#279A13"/>
</linearGradient>
<linearGradient id="paint1_linear_300_293" x1="77" y1="66.75" x2="97.6752" y2="68.2117" gradientUnits="userSpaceOnUse">
<stop stop-color="#30C917"/>
<stop offset="1" stop-color="#279A13"/>
</linearGradient>
<clipPath id="clip0_300_293">
<rect width="60" height="60" fill="white" transform="translate(53 49)"/>
</clipPath>
</defs>
</svg>
