<svg width="166" height="166" viewBox="0 0 166 166" fill="none" xmlns="http://www.w3.org/2000/svg">
<g filter="url(#filter0_d_300_192)">
<circle cx="83" cy="79" r="55" fill="white" fill-opacity="0.64" shape-rendering="crispEdges"/>
</g>
<g filter="url(#filter1_d_300_192)">
<circle cx="83" cy="79" r="46" fill="white"/>
</g>
<g clip-path="url(#clip0_300_192)">
<path d="M102.568 66.5985L101.67 57.6617C101.638 57.3508 101.337 57.141 101.034 57.2198L92.3275 59.4851C91.9061 59.5948 91.8075 60.1476 92.165 60.3959L94.8359 62.1836C94.8359 62.1836 93.5469 74.4297 67.2969 77.4945V78.0625C73.0794 78.0941 90.2773 78.368 99.7578 65.6406L101.769 67.0674C102.127 67.3156 102.611 67.0311 102.568 66.5985Z" fill="url(#paint0_linear_300_192)"/>
<path d="M68 102.438H55.8125C55.2947 102.438 54.875 102.857 54.875 103.375V107.125C54.875 107.643 55.2947 108.062 55.8125 108.062H68C68.5178 108.062 68.9375 107.643 68.9375 107.125V103.375C68.9375 102.857 68.5178 102.438 68 102.438Z" fill="#FAE15A"/>
<path d="M68.4688 104.312H57.2188C56.9599 104.312 56.75 104.522 56.75 104.781V107.594C56.75 107.853 56.9599 108.062 57.2188 108.062H68.4688C68.7276 108.062 68.9375 107.853 68.9375 107.594V104.781C68.9375 104.522 68.7276 104.312 68.4688 104.312Z" fill="#F5C115"/>
<path d="M58.625 105.25H60.0312V108.062H58.625V105.25Z" fill="#EFA400"/>
<path d="M63.7812 105.25H65.1875V108.062H63.7812V105.25Z" fill="#EFA400"/>
<path d="M68 96.8125H55.8125C55.2947 96.8125 54.875 97.2322 54.875 97.75V101.5C54.875 102.018 55.2947 102.438 55.8125 102.438H68C68.5178 102.438 68.9375 102.018 68.9375 101.5V97.75C68.9375 97.2322 68.5178 96.8125 68 96.8125Z" fill="#FAE15A"/>
<path d="M68.4688 98.6875H57.2188C56.9599 98.6875 56.75 98.8974 56.75 99.1562V101.969C56.75 102.228 56.9599 102.438 57.2188 102.438H68.4688C68.7276 102.438 68.9375 102.228 68.9375 101.969V99.1562C68.9375 98.8974 68.7276 98.6875 68.4688 98.6875Z" fill="#F5C115"/>
<path d="M58.625 99.625H60.0312V102.438H58.625V99.625Z" fill="#EFA400"/>
<path d="M63.7812 99.625H65.1875V102.438H63.7812V99.625Z" fill="#EFA400"/>
<path d="M82.0625 102.438H69.875C69.3572 102.438 68.9375 102.857 68.9375 103.375V107.125C68.9375 107.643 69.3572 108.062 69.875 108.062H82.0625C82.5803 108.062 83 107.643 83 107.125V103.375C83 102.857 82.5803 102.438 82.0625 102.438Z" fill="#FAE15A"/>
<path d="M82.5312 104.312H71.2812C71.0224 104.312 70.8125 104.522 70.8125 104.781V107.594C70.8125 107.853 71.0224 108.062 71.2812 108.062H82.5312C82.7901 108.062 83 107.853 83 107.594V104.781C83 104.522 82.7901 104.312 82.5312 104.312Z" fill="#F5C115"/>
<path d="M72.6875 105.25H74.0938V108.062H72.6875V105.25Z" fill="#EFA400"/>
<path d="M77.8438 105.25H79.25V108.062H77.8438V105.25Z" fill="#EFA400"/>
<path d="M82.0625 96.8125H69.875C69.3572 96.8125 68.9375 97.2322 68.9375 97.75V101.5C68.9375 102.018 69.3572 102.438 69.875 102.438H82.0625C82.5803 102.438 83 102.018 83 101.5V97.75C83 97.2322 82.5803 96.8125 82.0625 96.8125Z" fill="#FAE15A"/>
<path d="M82.5312 98.6875H71.2812C71.0224 98.6875 70.8125 98.8974 70.8125 99.1562V101.969C70.8125 102.228 71.0224 102.438 71.2812 102.438H82.5312C82.7901 102.438 83 102.228 83 101.969V99.1562C83 98.8974 82.7901 98.6875 82.5312 98.6875Z" fill="#F5C115"/>
<path d="M72.6875 99.625H74.0938V102.438H72.6875V99.625Z" fill="#EFA400"/>
<path d="M77.8438 99.625H79.25V102.438H77.8438V99.625Z" fill="#EFA400"/>
<path d="M82.0625 91.1875H69.875C69.3572 91.1875 68.9375 91.6072 68.9375 92.125V95.875C68.9375 96.3928 69.3572 96.8125 69.875 96.8125H82.0625C82.5803 96.8125 83 96.3928 83 95.875V92.125C83 91.6072 82.5803 91.1875 82.0625 91.1875Z" fill="#FAE15A"/>
<path d="M82.5312 93.0625H71.2812C71.0224 93.0625 70.8125 93.2724 70.8125 93.5312V96.3438C70.8125 96.6026 71.0224 96.8125 71.2812 96.8125H82.5312C82.7901 96.8125 83 96.6026 83 96.3438V93.5312C83 93.2724 82.7901 93.0625 82.5312 93.0625Z" fill="#F5C115"/>
<path d="M72.6875 94H74.0938V96.8125H72.6875V94Z" fill="#EFA400"/>
<path d="M77.8438 94H79.25V96.8125H77.8438V94Z" fill="#EFA400"/>
<path d="M96.125 102.438H83.9375C83.4197 102.438 83 102.857 83 103.375V107.125C83 107.643 83.4197 108.062 83.9375 108.062H96.125C96.6428 108.062 97.0625 107.643 97.0625 107.125V103.375C97.0625 102.857 96.6428 102.438 96.125 102.438Z" fill="#FAE15A"/>
<path d="M96.5938 104.312H85.3438C85.0849 104.312 84.875 104.522 84.875 104.781V107.594C84.875 107.853 85.0849 108.062 85.3438 108.062H96.5938C96.8526 108.062 97.0625 107.853 97.0625 107.594V104.781C97.0625 104.522 96.8526 104.312 96.5938 104.312Z" fill="#F5C115"/>
<path d="M86.75 105.25H88.1562V108.062H86.75V105.25Z" fill="#EFA400"/>
<path d="M91.9062 105.25H93.3125V108.062H91.9062V105.25Z" fill="#EFA400"/>
<path d="M96.125 96.8125H83.9375C83.4197 96.8125 83 97.2322 83 97.75V101.5C83 102.018 83.4197 102.438 83.9375 102.438H96.125C96.6428 102.438 97.0625 102.018 97.0625 101.5V97.75C97.0625 97.2322 96.6428 96.8125 96.125 96.8125Z" fill="#FAE15A"/>
<path d="M96.5938 98.6875H85.3438C85.0849 98.6875 84.875 98.8974 84.875 99.1562V101.969C84.875 102.228 85.0849 102.438 85.3438 102.438H96.5938C96.8526 102.438 97.0625 102.228 97.0625 101.969V99.1562C97.0625 98.8974 96.8526 98.6875 96.5938 98.6875Z" fill="#F5C115"/>
<path d="M86.75 99.625H88.1562V102.438H86.75V99.625Z" fill="#EFA400"/>
<path d="M91.9062 99.625H93.3125V102.438H91.9062V99.625Z" fill="#EFA400"/>
<path d="M96.125 91.1875H83.9375C83.4197 91.1875 83 91.6072 83 92.125V95.875C83 96.3928 83.4197 96.8125 83.9375 96.8125H96.125C96.6428 96.8125 97.0625 96.3928 97.0625 95.875V92.125C97.0625 91.6072 96.6428 91.1875 96.125 91.1875Z" fill="#FAE15A"/>
<path d="M96.5938 93.0625H85.3438C85.0849 93.0625 84.875 93.2724 84.875 93.5312V96.3438C84.875 96.6026 85.0849 96.8125 85.3438 96.8125H96.5938C96.8526 96.8125 97.0625 96.6026 97.0625 96.3438V93.5312C97.0625 93.2724 96.8526 93.0625 96.5938 93.0625Z" fill="#F5C115"/>
<path d="M86.75 94H88.1562V96.8125H86.75V94Z" fill="#EFA400"/>
<path d="M91.9062 94H93.3125V96.8125H91.9062V94Z" fill="#EFA400"/>
<path d="M96.125 85.5625H83.9375C83.4197 85.5625 83 85.9822 83 86.5V90.25C83 90.7678 83.4197 91.1875 83.9375 91.1875H96.125C96.6428 91.1875 97.0625 90.7678 97.0625 90.25V86.5C97.0625 85.9822 96.6428 85.5625 96.125 85.5625Z" fill="#FAE15A"/>
<path d="M96.5938 87.4375H85.3438C85.0849 87.4375 84.875 87.6474 84.875 87.9062V90.7188C84.875 90.9776 85.0849 91.1875 85.3438 91.1875H96.5938C96.8526 91.1875 97.0625 90.9776 97.0625 90.7188V87.9062C97.0625 87.6474 96.8526 87.4375 96.5938 87.4375Z" fill="#F5C115"/>
<path d="M86.75 88.375H88.1562V91.1875H86.75V88.375Z" fill="#EFA400"/>
<path d="M91.9062 88.375H93.3125V91.1875H91.9062V88.375Z" fill="#EFA400"/>
<path d="M110.188 102.438H98C97.4822 102.438 97.0625 102.857 97.0625 103.375V107.125C97.0625 107.643 97.4822 108.062 98 108.062H110.188C110.705 108.062 111.125 107.643 111.125 107.125V103.375C111.125 102.857 110.705 102.438 110.188 102.438Z" fill="#FAE15A"/>
<path d="M110.656 104.312H99.4062C99.1474 104.312 98.9375 104.522 98.9375 104.781V107.594C98.9375 107.853 99.1474 108.062 99.4062 108.062H110.656C110.915 108.062 111.125 107.853 111.125 107.594V104.781C111.125 104.522 110.915 104.312 110.656 104.312Z" fill="#F5C115"/>
<path d="M100.812 105.25H102.219V108.062H100.812V105.25Z" fill="#EFA400"/>
<path d="M105.969 105.25H107.375V108.062H105.969V105.25Z" fill="#EFA400"/>
<path d="M110.188 96.8125H98C97.4822 96.8125 97.0625 97.2322 97.0625 97.75V101.5C97.0625 102.018 97.4822 102.438 98 102.438H110.188C110.705 102.438 111.125 102.018 111.125 101.5V97.75C111.125 97.2322 110.705 96.8125 110.188 96.8125Z" fill="#FAE15A"/>
<path d="M110.656 98.6875H99.4062C99.1474 98.6875 98.9375 98.8974 98.9375 99.1562V101.969C98.9375 102.228 99.1474 102.438 99.4062 102.438H110.656C110.915 102.438 111.125 102.228 111.125 101.969V99.1562C111.125 98.8974 110.915 98.6875 110.656 98.6875Z" fill="#F5C115"/>
<path d="M100.812 99.625H102.219V102.438H100.812V99.625Z" fill="#EFA400"/>
<path d="M105.969 99.625H107.375V102.438H105.969V99.625Z" fill="#EFA400"/>
<path d="M110.188 91.1875H98C97.4822 91.1875 97.0625 91.6072 97.0625 92.125V95.875C97.0625 96.3928 97.4822 96.8125 98 96.8125H110.188C110.705 96.8125 111.125 96.3928 111.125 95.875V92.125C111.125 91.6072 110.705 91.1875 110.188 91.1875Z" fill="#FAE15A"/>
<path d="M110.656 93.0625H99.4062C99.1474 93.0625 98.9375 93.2724 98.9375 93.5312V96.3438C98.9375 96.6026 99.1474 96.8125 99.4062 96.8125H110.656C110.915 96.8125 111.125 96.6026 111.125 96.3438V93.5312C111.125 93.2724 110.915 93.0625 110.656 93.0625Z" fill="#F5C115"/>
<path d="M100.812 94H102.219V96.8125H100.812V94Z" fill="#EFA400"/>
<path d="M105.969 94H107.375V96.8125H105.969V94Z" fill="#EFA400"/>
<path d="M110.188 85.5625H98C97.4822 85.5625 97.0625 85.9822 97.0625 86.5V90.25C97.0625 90.7678 97.4822 91.1875 98 91.1875H110.188C110.705 91.1875 111.125 90.7678 111.125 90.25V86.5C111.125 85.9822 110.705 85.5625 110.188 85.5625Z" fill="#FAE15A"/>
<path d="M110.656 87.4375H99.4062C99.1474 87.4375 98.9375 87.6474 98.9375 87.9062V90.7188C98.9375 90.9776 99.1474 91.1875 99.4062 91.1875H110.656C110.915 91.1875 111.125 90.9776 111.125 90.7188V87.9062C111.125 87.6474 110.915 87.4375 110.656 87.4375Z" fill="#F5C115"/>
<path d="M100.812 88.375H102.219V91.1875H100.812V88.375Z" fill="#EFA400"/>
<path d="M105.969 88.375H107.375V91.1875H105.969V88.375Z" fill="#EFA400"/>
<path d="M110.188 79.9375H98C97.4822 79.9375 97.0625 80.3572 97.0625 80.875V84.625C97.0625 85.1428 97.4822 85.5625 98 85.5625H110.188C110.705 85.5625 111.125 85.1428 111.125 84.625V80.875C111.125 80.3572 110.705 79.9375 110.188 79.9375Z" fill="#FAE15A"/>
<path d="M110.656 81.8125H99.4062C99.1474 81.8125 98.9375 82.0224 98.9375 82.2812V85.0938C98.9375 85.3526 99.1474 85.5625 99.4062 85.5625H110.656C110.915 85.5625 111.125 85.3526 111.125 85.0938V82.2812C111.125 82.0224 110.915 81.8125 110.656 81.8125Z" fill="#F5C115"/>
<path d="M100.812 82.75H102.219V85.5625H100.812V82.75Z" fill="#EFA400"/>
<path d="M105.969 82.75H107.375V85.5625H105.969V82.75Z" fill="#EFA400"/>
<path d="M110.188 74.3125H98C97.4822 74.3125 97.0625 74.7322 97.0625 75.25V79C97.0625 79.5178 97.4822 79.9375 98 79.9375H110.188C110.705 79.9375 111.125 79.5178 111.125 79V75.25C111.125 74.7322 110.705 74.3125 110.188 74.3125Z" fill="#FAE15A"/>
<path d="M110.656 76.1875H99.4062C99.1474 76.1875 98.9375 76.3974 98.9375 76.6562V79.4688C98.9375 79.7276 99.1474 79.9375 99.4062 79.9375H110.656C110.915 79.9375 111.125 79.7276 111.125 79.4688V76.6562C111.125 76.3974 110.915 76.1875 110.656 76.1875Z" fill="#F5C115"/>
<path d="M100.812 77.125H102.219V79.9375H100.812V77.125Z" fill="#EFA400"/>
<path d="M105.969 77.125H107.375V79.9375H105.969V77.125Z" fill="#EFA400"/>
<g filter="url(#filter2_d_300_192)">
<circle cx="66" cy="76" r="12" fill="url(#paint1_linear_300_192)"/>
<mask id="path-65-outside-1_300_192" maskUnits="userSpaceOnUse" x="55.4785" y="69.7539" width="21" height="16" fill="black">
<rect fill="white" x="55.4785" y="69.7539" width="21" height="16"/>
<path d="M70.9514 72.6339C70.6754 72.6365 70.4002 72.6595 70.128 72.7032C69.8558 72.7469 69.5877 72.8136 69.326 72.8983C68.8031 73.0698 68.3049 73.3195 67.8629 73.6465C67.4183 73.9712 67.0256 74.3608 66.6397 74.7541C66.2545 75.1485 65.8701 75.5286 65.451 75.8921C66.297 76.4041 67.2526 76.6991 68.2345 76.8057C69.2157 76.9153 70.2195 76.8094 71.1573 76.5054C72.0956 76.2018 72.968 75.6966 73.6954 75.0325C74.4228 74.3687 75.0222 73.6224 75.3934 72.7111C74.7221 72.0835 73.9228 71.5942 73.058 71.2856C72.1931 70.976 71.2631 70.8554 70.3486 70.9183C69.8908 70.9503 69.4378 71.0366 68.9977 71.1654C68.5583 71.2973 68.1329 71.4747 67.7315 71.6966C67.5324 71.8093 67.3377 71.9298 67.1517 72.0647C66.9661 72.1995 66.785 72.3408 66.611 72.4919C66.262 72.7921 65.9337 73.118 65.6088 73.4484C65.2835 73.7784 64.9604 74.1133 64.6208 74.4335C64.451 74.5936 64.2775 74.7503 64.0967 74.8991C63.9164 75.0487 63.7304 75.1918 63.5346 75.3222C63.486 75.3553 63.4375 75.3885 63.387 75.4186C63.3369 75.4495 63.2876 75.4815 63.2368 75.5109L63.0828 75.5975C63.032 75.6273 62.9781 75.6514 62.9258 75.6785L62.8467 75.7185C62.8204 75.7313 62.7929 75.7426 62.7662 75.7546C62.7119 75.778 62.6589 75.8032 62.6043 75.8254C62.494 75.8676 62.3844 75.9117 62.2714 75.9452C62.16 75.984 62.0444 76.01 61.9307 76.0409L61.7571 76.0763L61.6702 76.0937L61.5824 76.1069C61.349 76.1419 61.1129 76.1581 60.8769 76.1558C60.4051 76.1513 59.9348 76.0737 59.486 75.9294C59.2616 75.8571 59.0429 75.7678 58.8321 75.6627C58.6216 75.5565 58.4187 75.4355 58.2255 75.3011C57.4552 74.7586 56.8445 73.9916 56.4981 73.1142L56.4785 73.0641L56.5218 73.0328C57.169 72.5646 57.9473 72.2945 58.7376 72.2244C59.529 72.1543 60.3358 72.2869 61.0651 72.5974C61.4296 72.7533 61.7744 72.9533 62.0952 73.1854C62.4153 73.4186 62.7078 73.6876 62.9751 73.9784C63.5071 74.5634 63.9303 75.2408 64.2526 75.9592C64.4149 76.3182 64.5508 76.6889 64.663 77.0664C64.7206 77.2547 64.7684 77.4457 64.814 77.6371C64.8561 77.8292 64.8957 78.0225 64.9254 78.2169C64.9845 78.6056 65.0305 78.9955 65.0647 79.3866C65.0843 79.5817 65.0971 79.7776 65.1129 79.9731C65.1253 80.169 65.1404 80.3645 65.1502 80.5604C65.1943 81.3436 65.2191 82.1276 65.227 82.9119C65.236 83.6958 65.2274 84.4802 65.1973 85.2637C65.2074 84.872 65.2116 84.4798 65.2116 84.088C65.2101 83.6962 65.2067 83.3041 65.198 82.9123C65.1822 82.1287 65.1498 81.3455 65.0982 80.5634C65.0866 80.3679 65.0696 80.1728 65.0553 79.9773C65.0372 79.7821 65.0229 79.587 65.0015 79.3922C64.9635 79.0027 64.9138 78.6139 64.8513 78.2285C64.7865 77.8435 64.6961 77.463 64.5824 77.0897C64.4691 76.7164 64.3324 76.3502 64.1698 75.9957C63.8471 75.2867 63.4247 74.6203 62.8979 74.0481C62.6333 73.7637 62.3449 73.5011 62.0297 73.2747C61.7142 73.049 61.3761 72.8558 61.0192 72.7055C60.3049 72.4067 59.5192 72.2828 58.7492 72.3555C57.9812 72.4286 57.2507 72.6379 56.6269 73.0918C56.9646 73.942 57.5598 74.658 58.308 75.1828C58.4958 75.3131 58.6927 75.4299 58.8968 75.5324C59.1013 75.6337 59.3136 75.72 59.5312 75.7897C59.9665 75.9287 60.422 76.0029 60.8784 76.0063C61.1065 76.0082 61.3347 75.992 61.5598 75.9577L61.6442 75.9449L61.7281 75.9279L61.8957 75.8933C62.0056 75.8631 62.1171 75.8383 62.2247 75.8002C62.3339 75.7674 62.4397 75.7245 62.5463 75.6838C62.599 75.6623 62.6506 75.6378 62.7029 75.6149C62.7289 75.6032 62.7552 75.5923 62.7808 75.5795L62.8573 75.5406C62.9077 75.5143 62.9601 75.4905 63.0094 75.4615L63.1585 75.3772C63.2078 75.3481 63.2556 75.3169 63.3046 75.2867C63.3535 75.2574 63.401 75.225 63.448 75.1926C63.6385 75.0652 63.8204 74.9247 63.997 74.7778C64.1743 74.6316 64.3452 74.4764 64.5128 74.3178C64.8486 74.001 65.1686 73.6657 65.4955 73.3353C65.8219 73.0046 66.154 72.6765 66.5094 72.3721C66.6863 72.2191 66.8716 72.0748 67.0617 71.9373C67.2519 71.7998 67.4525 71.6759 67.6574 71.561C68.0689 71.3346 68.5049 71.1538 68.9548 71.0197C69.4055 70.8886 69.8693 70.8015 70.3377 70.7695C71.2737 70.707 72.2229 70.8321 73.1061 71.15C73.9891 71.4668 74.8042 71.9682 75.4879 72.6102L75.5229 72.6429L75.5049 72.6866C75.4077 72.9183 75.3 73.1455 75.1799 73.3662C75.0572 73.5855 74.925 73.7991 74.7801 74.0044C74.6333 74.2082 74.4778 74.4056 74.311 74.5928C74.1427 74.7789 73.9668 74.9582 73.7805 75.1263C73.0354 75.7987 72.1453 76.3065 71.1909 76.6094C70.2364 76.9123 69.2183 77.0132 68.2244 76.8965C67.2304 76.7823 66.2635 76.4444 65.4145 75.9174L65.3735 75.8921L65.41 75.8612C65.8287 75.5049 66.2116 75.1074 66.6013 74.716C66.9913 74.3261 67.3897 73.9385 67.8407 73.6156C68.2895 73.2909 68.7925 73.043 69.32 72.878C69.5839 72.7963 69.8539 72.733 70.1269 72.6927C70.3994 72.6527 70.6758 72.6331 70.9514 72.6339Z"/>
</mask>
<path d="M70.9514 72.6339C70.6754 72.6365 70.4002 72.6595 70.128 72.7032C69.8558 72.7469 69.5877 72.8136 69.326 72.8983C68.8031 73.0698 68.3049 73.3195 67.8629 73.6465C67.4183 73.9712 67.0256 74.3608 66.6397 74.7541C66.2545 75.1485 65.8701 75.5286 65.451 75.8921C66.297 76.4041 67.2526 76.6991 68.2345 76.8057C69.2157 76.9153 70.2195 76.8094 71.1573 76.5054C72.0956 76.2018 72.968 75.6966 73.6954 75.0325C74.4228 74.3687 75.0222 73.6224 75.3934 72.7111C74.7221 72.0835 73.9228 71.5942 73.058 71.2856C72.1931 70.976 71.2631 70.8554 70.3486 70.9183C69.8908 70.9503 69.4378 71.0366 68.9977 71.1654C68.5583 71.2973 68.1329 71.4747 67.7315 71.6966C67.5324 71.8093 67.3377 71.9298 67.1517 72.0647C66.9661 72.1995 66.785 72.3408 66.611 72.4919C66.262 72.7921 65.9337 73.118 65.6088 73.4484C65.2835 73.7784 64.9604 74.1133 64.6208 74.4335C64.451 74.5936 64.2775 74.7503 64.0967 74.8991C63.9164 75.0487 63.7304 75.1918 63.5346 75.3222C63.486 75.3553 63.4375 75.3885 63.387 75.4186C63.3369 75.4495 63.2876 75.4815 63.2368 75.5109L63.0828 75.5975C63.032 75.6273 62.9781 75.6514 62.9258 75.6785L62.8467 75.7185C62.8204 75.7313 62.7929 75.7426 62.7662 75.7546C62.7119 75.778 62.6589 75.8032 62.6043 75.8254C62.494 75.8676 62.3844 75.9117 62.2714 75.9452C62.16 75.984 62.0444 76.01 61.9307 76.0409L61.7571 76.0763L61.6702 76.0937L61.5824 76.1069C61.349 76.1419 61.1129 76.1581 60.8769 76.1558C60.4051 76.1513 59.9348 76.0737 59.486 75.9294C59.2616 75.8571 59.0429 75.7678 58.8321 75.6627C58.6216 75.5565 58.4187 75.4355 58.2255 75.3011C57.4552 74.7586 56.8445 73.9916 56.4981 73.1142L56.4785 73.0641L56.5218 73.0328C57.169 72.5646 57.9473 72.2945 58.7376 72.2244C59.529 72.1543 60.3358 72.2869 61.0651 72.5974C61.4296 72.7533 61.7744 72.9533 62.0952 73.1854C62.4153 73.4186 62.7078 73.6876 62.9751 73.9784C63.5071 74.5634 63.9303 75.2408 64.2526 75.9592C64.4149 76.3182 64.5508 76.6889 64.663 77.0664C64.7206 77.2547 64.7684 77.4457 64.814 77.6371C64.8561 77.8292 64.8957 78.0225 64.9254 78.2169C64.9845 78.6056 65.0305 78.9955 65.0647 79.3866C65.0843 79.5817 65.0971 79.7776 65.1129 79.9731C65.1253 80.169 65.1404 80.3645 65.1502 80.5604C65.1943 81.3436 65.2191 82.1276 65.227 82.9119C65.236 83.6958 65.2274 84.4802 65.1973 85.2637C65.2074 84.872 65.2116 84.4798 65.2116 84.088C65.2101 83.6962 65.2067 83.3041 65.198 82.9123C65.1822 82.1287 65.1498 81.3455 65.0982 80.5634C65.0866 80.3679 65.0696 80.1728 65.0553 79.9773C65.0372 79.7821 65.0229 79.587 65.0015 79.3922C64.9635 79.0027 64.9138 78.6139 64.8513 78.2285C64.7865 77.8435 64.6961 77.463 64.5824 77.0897C64.4691 76.7164 64.3324 76.3502 64.1698 75.9957C63.8471 75.2867 63.4247 74.6203 62.8979 74.0481C62.6333 73.7637 62.3449 73.5011 62.0297 73.2747C61.7142 73.049 61.3761 72.8558 61.0192 72.7055C60.3049 72.4067 59.5192 72.2828 58.7492 72.3555C57.9812 72.4286 57.2507 72.6379 56.6269 73.0918C56.9646 73.942 57.5598 74.658 58.308 75.1828C58.4958 75.3131 58.6927 75.4299 58.8968 75.5324C59.1013 75.6337 59.3136 75.72 59.5312 75.7897C59.9665 75.9287 60.422 76.0029 60.8784 76.0063C61.1065 76.0082 61.3347 75.992 61.5598 75.9577L61.6442 75.9449L61.7281 75.9279L61.8957 75.8933C62.0056 75.8631 62.1171 75.8383 62.2247 75.8002C62.3339 75.7674 62.4397 75.7245 62.5463 75.6838C62.599 75.6623 62.6506 75.6378 62.7029 75.6149C62.7289 75.6032 62.7552 75.5923 62.7808 75.5795L62.8573 75.5406C62.9077 75.5143 62.9601 75.4905 63.0094 75.4615L63.1585 75.3772C63.2078 75.3481 63.2556 75.3169 63.3046 75.2867C63.3535 75.2574 63.401 75.225 63.448 75.1926C63.6385 75.0652 63.8204 74.9247 63.997 74.7778C64.1743 74.6316 64.3452 74.4764 64.5128 74.3178C64.8486 74.001 65.1686 73.6657 65.4955 73.3353C65.8219 73.0046 66.154 72.6765 66.5094 72.3721C66.6863 72.2191 66.8716 72.0748 67.0617 71.9373C67.2519 71.7998 67.4525 71.6759 67.6574 71.561C68.0689 71.3346 68.5049 71.1538 68.9548 71.0197C69.4055 70.8886 69.8693 70.8015 70.3377 70.7695C71.2737 70.707 72.2229 70.8321 73.1061 71.15C73.9891 71.4668 74.8042 71.9682 75.4879 72.6102L75.5229 72.6429L75.5049 72.6866C75.4077 72.9183 75.3 73.1455 75.1799 73.3662C75.0572 73.5855 74.925 73.7991 74.7801 74.0044C74.6333 74.2082 74.4778 74.4056 74.311 74.5928C74.1427 74.7789 73.9668 74.9582 73.7805 75.1263C73.0354 75.7987 72.1453 76.3065 71.1909 76.6094C70.2364 76.9123 69.2183 77.0132 68.2244 76.8965C67.2304 76.7823 66.2635 76.4444 65.4145 75.9174L65.3735 75.8921L65.41 75.8612C65.8287 75.5049 66.2116 75.1074 66.6013 74.716C66.9913 74.3261 67.3897 73.9385 67.8407 73.6156C68.2895 73.2909 68.7925 73.043 69.32 72.878C69.5839 72.7963 69.8539 72.733 70.1269 72.6927C70.3994 72.6527 70.6758 72.6331 70.9514 72.6339Z" fill="white"/>
<path d="M70.9514 72.6339C70.6754 72.6365 70.4002 72.6595 70.128 72.7032C69.8558 72.7469 69.5877 72.8136 69.326 72.8983C68.8031 73.0698 68.3049 73.3195 67.8629 73.6465C67.4183 73.9712 67.0256 74.3608 66.6397 74.7541C66.2545 75.1485 65.8701 75.5286 65.451 75.8921C66.297 76.4041 67.2526 76.6991 68.2345 76.8057C69.2157 76.9153 70.2195 76.8094 71.1573 76.5054C72.0956 76.2018 72.968 75.6966 73.6954 75.0325C74.4228 74.3687 75.0222 73.6224 75.3934 72.7111C74.7221 72.0835 73.9228 71.5942 73.058 71.2856C72.1931 70.976 71.2631 70.8554 70.3486 70.9183C69.8908 70.9503 69.4378 71.0366 68.9977 71.1654C68.5583 71.2973 68.1329 71.4747 67.7315 71.6966C67.5324 71.8093 67.3377 71.9298 67.1517 72.0647C66.9661 72.1995 66.785 72.3408 66.611 72.4919C66.262 72.7921 65.9337 73.118 65.6088 73.4484C65.2835 73.7784 64.9604 74.1133 64.6208 74.4335C64.451 74.5936 64.2775 74.7503 64.0967 74.8991C63.9164 75.0487 63.7304 75.1918 63.5346 75.3222C63.486 75.3553 63.4375 75.3885 63.387 75.4186C63.3369 75.4495 63.2876 75.4815 63.2368 75.5109L63.0828 75.5975C63.032 75.6273 62.9781 75.6514 62.9258 75.6785L62.8467 75.7185C62.8204 75.7313 62.7929 75.7426 62.7662 75.7546C62.7119 75.778 62.6589 75.8032 62.6043 75.8254C62.494 75.8676 62.3844 75.9117 62.2714 75.9452C62.16 75.984 62.0444 76.01 61.9307 76.0409L61.7571 76.0763L61.6702 76.0937L61.5824 76.1069C61.349 76.1419 61.1129 76.1581 60.8769 76.1558C60.4051 76.1513 59.9348 76.0737 59.486 75.9294C59.2616 75.8571 59.0429 75.7678 58.8321 75.6627C58.6216 75.5565 58.4187 75.4355 58.2255 75.3011C57.4552 74.7586 56.8445 73.9916 56.4981 73.1142L56.4785 73.0641L56.5218 73.0328C57.169 72.5646 57.9473 72.2945 58.7376 72.2244C59.529 72.1543 60.3358 72.2869 61.0651 72.5974C61.4296 72.7533 61.7744 72.9533 62.0952 73.1854C62.4153 73.4186 62.7078 73.6876 62.9751 73.9784C63.5071 74.5634 63.9303 75.2408 64.2526 75.9592C64.4149 76.3182 64.5508 76.6889 64.663 77.0664C64.7206 77.2547 64.7684 77.4457 64.814 77.6371C64.8561 77.8292 64.8957 78.0225 64.9254 78.2169C64.9845 78.6056 65.0305 78.9955 65.0647 79.3866C65.0843 79.5817 65.0971 79.7776 65.1129 79.9731C65.1253 80.169 65.1404 80.3645 65.1502 80.5604C65.1943 81.3436 65.2191 82.1276 65.227 82.9119C65.236 83.6958 65.2274 84.4802 65.1973 85.2637C65.2074 84.872 65.2116 84.4798 65.2116 84.088C65.2101 83.6962 65.2067 83.3041 65.198 82.9123C65.1822 82.1287 65.1498 81.3455 65.0982 80.5634C65.0866 80.3679 65.0696 80.1728 65.0553 79.9773C65.0372 79.7821 65.0229 79.587 65.0015 79.3922C64.9635 79.0027 64.9138 78.6139 64.8513 78.2285C64.7865 77.8435 64.6961 77.463 64.5824 77.0897C64.4691 76.7164 64.3324 76.3502 64.1698 75.9957C63.8471 75.2867 63.4247 74.6203 62.8979 74.0481C62.6333 73.7637 62.3449 73.5011 62.0297 73.2747C61.7142 73.049 61.3761 72.8558 61.0192 72.7055C60.3049 72.4067 59.5192 72.2828 58.7492 72.3555C57.9812 72.4286 57.2507 72.6379 56.6269 73.0918C56.9646 73.942 57.5598 74.658 58.308 75.1828C58.4958 75.3131 58.6927 75.4299 58.8968 75.5324C59.1013 75.6337 59.3136 75.72 59.5312 75.7897C59.9665 75.9287 60.422 76.0029 60.8784 76.0063C61.1065 76.0082 61.3347 75.992 61.5598 75.9577L61.6442 75.9449L61.7281 75.9279L61.8957 75.8933C62.0056 75.8631 62.1171 75.8383 62.2247 75.8002C62.3339 75.7674 62.4397 75.7245 62.5463 75.6838C62.599 75.6623 62.6506 75.6378 62.7029 75.6149C62.7289 75.6032 62.7552 75.5923 62.7808 75.5795L62.8573 75.5406C62.9077 75.5143 62.9601 75.4905 63.0094 75.4615L63.1585 75.3772C63.2078 75.3481 63.2556 75.3169 63.3046 75.2867C63.3535 75.2574 63.401 75.225 63.448 75.1926C63.6385 75.0652 63.8204 74.9247 63.997 74.7778C64.1743 74.6316 64.3452 74.4764 64.5128 74.3178C64.8486 74.001 65.1686 73.6657 65.4955 73.3353C65.8219 73.0046 66.154 72.6765 66.5094 72.3721C66.6863 72.2191 66.8716 72.0748 67.0617 71.9373C67.2519 71.7998 67.4525 71.6759 67.6574 71.561C68.0689 71.3346 68.5049 71.1538 68.9548 71.0197C69.4055 70.8886 69.8693 70.8015 70.3377 70.7695C71.2737 70.707 72.2229 70.8321 73.1061 71.15C73.9891 71.4668 74.8042 71.9682 75.4879 72.6102L75.5229 72.6429L75.5049 72.6866C75.4077 72.9183 75.3 73.1455 75.1799 73.3662C75.0572 73.5855 74.925 73.7991 74.7801 74.0044C74.6333 74.2082 74.4778 74.4056 74.311 74.5928C74.1427 74.7789 73.9668 74.9582 73.7805 75.1263C73.0354 75.7987 72.1453 76.3065 71.1909 76.6094C70.2364 76.9123 69.2183 77.0132 68.2244 76.8965C67.2304 76.7823 66.2635 76.4444 65.4145 75.9174L65.3735 75.8921L65.41 75.8612C65.8287 75.5049 66.2116 75.1074 66.6013 74.716C66.9913 74.3261 67.3897 73.9385 67.8407 73.6156C68.2895 73.2909 68.7925 73.043 69.32 72.878C69.5839 72.7963 69.8539 72.733 70.1269 72.6927C70.3994 72.6527 70.6758 72.6331 70.9514 72.6339Z" stroke="white" stroke-width="0.409091" mask="url(#path-65-outside-1_300_192)"/>
</g>
</g>
<defs>
<filter id="filter0_d_300_192" x="0" y="0" width="166" height="166" filterUnits="userSpaceOnUse" color-interpolation-filters="sRGB">
<feFlood flood-opacity="0" result="BackgroundImageFix"/>
<feColorMatrix in="SourceAlpha" type="matrix" values="0 0 0 0 0 0 0 0 0 0 0 0 0 0 0 0 0 0 127 0" result="hardAlpha"/>
<feOffset dy="4"/>
<feGaussianBlur stdDeviation="14"/>
<feComposite in2="hardAlpha" operator="out"/>
<feColorMatrix type="matrix" values="0 0 0 0 0.104167 0 0 0 0 0.066116 0 0 0 0 0.030816 0 0 0 0.06 0"/>
<feBlend mode="normal" in2="BackgroundImageFix" result="effect1_dropShadow_300_192"/>
<feBlend mode="normal" in="SourceGraphic" in2="effect1_dropShadow_300_192" result="shape"/>
</filter>
<filter id="filter1_d_300_192" x="9" y="9" width="148" height="148" filterUnits="userSpaceOnUse" color-interpolation-filters="sRGB">
<feFlood flood-opacity="0" result="BackgroundImageFix"/>
<feColorMatrix in="SourceAlpha" type="matrix" values="0 0 0 0 0 0 0 0 0 0 0 0 0 0 0 0 0 0 127 0" result="hardAlpha"/>
<feOffset dy="4"/>
<feGaussianBlur stdDeviation="14"/>
<feComposite in2="hardAlpha" operator="out"/>
<feColorMatrix type="matrix" values="0 0 0 0 0.104167 0 0 0 0 0.066116 0 0 0 0 0.030816 0 0 0 0.06 0"/>
<feBlend mode="normal" in2="BackgroundImageFix" result="effect1_dropShadow_300_192"/>
<feBlend mode="normal" in="SourceGraphic" in2="effect1_dropShadow_300_192" result="shape"/>
</filter>
<filter id="filter2_d_300_192" x="44.8571" y="56" width="42.2857" height="42.2857" filterUnits="userSpaceOnUse" color-interpolation-filters="sRGB">
<feFlood flood-opacity="0" result="BackgroundImageFix"/>
<feColorMatrix in="SourceAlpha" type="matrix" values="0 0 0 0 0 0 0 0 0 0 0 0 0 0 0 0 0 0 127 0" result="hardAlpha"/>
<feOffset dy="1.14286"/>
<feGaussianBlur stdDeviation="4.57143"/>
<feComposite in2="hardAlpha" operator="out"/>
<feColorMatrix type="matrix" values="0 0 0 0 0.104167 0 0 0 0 0.066116 0 0 0 0 0.030816 0 0 0 0.12 0"/>
<feBlend mode="normal" in2="BackgroundImageFix" result="effect1_dropShadow_300_192"/>
<feBlend mode="normal" in="SourceGraphic" in2="effect1_dropShadow_300_192" result="shape"/>
</filter>
<linearGradient id="paint0_linear_300_192" x1="67.2969" y1="61.1153" x2="103.427" y2="65.4337" gradientUnits="userSpaceOnUse">
<stop stop-color="#30C917"/>
<stop offset="1" stop-color="#279A13"/>
</linearGradient>
<linearGradient id="paint1_linear_300_192" x1="54" y1="68.5" x2="78.8102" y2="70.2541" gradientUnits="userSpaceOnUse">
<stop stop-color="#30C917"/>
<stop offset="1" stop-color="#279A13"/>
</linearGradient>
<clipPath id="clip0_300_192">
<rect width="60" height="60" fill="white" transform="translate(53 49)"/>
</clipPath>
</defs>
</svg>
