<?xml version="1.0" encoding="iso-8859-1"?>
<!-- Generator: Adobe Illustrator 18.1.1, SVG Export Plug-In . SVG Version: 6.00 Build 0)  -->
<svg version="1.1" id="Capa_1" xmlns="http://www.w3.org/2000/svg" xmlns:xlink="http://www.w3.org/1999/xlink" x="0px" y="0px"
	 viewBox="0 0 49.444 49.444" style="enable-background:new 0 0 49.444 49.444;" xml:space="preserve">
<g>
	<path style="fill:#010002;" d="M34.583,14.133c-0.729-1.003-1.417-1.952-1.988-2.876c-1.549-2.507-1.86-5.577-1.849-7.712
		c0.006-1.349-0.299-2.341-0.903-2.95c-0.883-0.887-2.335-0.781-3.808,0.309c-3.979,2.95-9.278,7.27-11.927,11.098
		c-5.16,7.455-6.84,15.805-4.859,24.147c1.283,5.408,5.576,9.105,8.953,11.255c1.736,1.104,3.787,2.04,4.478,2.04h0.006l0.457-0.02
		l0.513-0.636l-0.141-0.739c-0.273-1.349-0.789-2.989-1.334-4.729c-3.362-10.756-2.23-19.378,0.069-24.359
		c-1.102,5.074-1.569,14.006,1.884,23.782c0.594,1.686,1.056,3.333,1.372,4.893l0.119,0.623c0.034,0.197,0.227,0.84,1.227,0.84
		c0.83,0,2.573-0.448,4.438-1.438c5.163-2.738,8.331-6.57,9.166-11.085C42.563,25.131,38.139,19.034,34.583,14.133z M38.761,36.262
		c-0.929,5.024-5.015,8.146-8.278,9.879c-1.355,0.72-2.558,1.078-3.283,1.19l-0.006-0.028c-0.332-1.645-0.815-3.369-1.438-5.133
		c-4.333-12.268-2.455-23.457-0.486-26.723c0.133-0.223,0.489-0.814,0.16-1.393l-0.32-0.446h-0.479c-0.298,0-0.592,0.126-0.95,0.41
		c-3.128,2.478-8.264,13.426-3.14,29.813c0.37,1.178,0.75,2.387,1.028,3.446c-0.571-0.259-1.443-0.694-2.441-1.329
		c-3.105-1.977-7.051-5.352-8.202-10.199c-1.865-7.854-0.274-15.729,4.599-22.771c2.519-3.637,7.665-7.823,11.539-10.695
		c0.689-0.512,1.1-0.588,1.279-0.588c0.123,0,0.205,0.033,0.283,0.111c0.123,0.124,0.406,0.54,0.402,1.729
		c-0.021,3.428,0.688,6.33,2.104,8.624c0.601,0.969,1.306,1.941,2.062,2.983C36.553,19.777,40.738,25.543,38.761,36.262z"/>
</g>
<g>
</g>
<g>
</g>
<g>
</g>
<g>
</g>
<g>
</g>
<g>
</g>
<g>
</g>
<g>
</g>
<g>
</g>
<g>
</g>
<g>
</g>
<g>
</g>
<g>
</g>
<g>
</g>
<g>
</g>
</svg>
