<svg width="124" height="100" viewBox="0 0 124 100" fill="none" xmlns="http://www.w3.org/2000/svg">
<g filter="url(#filter0_d_0_1)">
<circle cx="50" cy="50" r="50" fill="url(#paint0_linear_0_1)"/>
<mask id="path-2-outside-1_0_1" maskUnits="userSpaceOnUse" x="9.33105" y="27.1367" width="81" height="62" fill="black">
<rect fill="white" x="9.33105" y="27.1367" width="81" height="62"/>
<path d="M70.6347 35.97C69.4848 35.981 68.338 36.0767 67.2038 36.2588C66.0696 36.4409 64.9526 36.7187 63.8623 37.0719C61.6833 37.7861 59.6078 38.8268 57.7661 40.1892C55.9134 41.5423 54.2771 43.1653 52.6691 44.804C51.0643 46.4475 49.4626 48.0312 47.7165 49.546C51.2415 51.6791 55.2231 52.9082 59.3145 53.3524C63.4027 53.8092 67.585 53.3681 71.4928 52.1014C75.4022 50.8362 79.0371 48.7313 82.0679 45.964C85.0988 43.1983 87.5963 40.0888 89.1431 36.2918C86.346 33.6767 83.0155 31.6377 79.412 30.3522C75.8085 29.0619 71.9337 28.5596 68.1231 28.8218C66.2155 28.9552 64.3283 29.3146 62.4944 29.8515C60.6636 30.4008 58.8909 31.1402 57.2186 32.0647C56.3887 32.534 55.5776 33.0363 54.8027 33.5982C54.0293 34.1602 53.2747 34.7488 52.5499 35.3782C51.0956 36.6293 49.7277 37.987 48.3738 39.3636C47.0184 40.7386 45.6724 42.134 44.2574 43.4682C43.5498 44.1354 42.8266 44.7883 42.0736 45.4083C41.3222 46.0315 40.5472 46.628 39.7314 47.1711C39.5291 47.3092 39.3267 47.4473 39.1165 47.5729C38.9078 47.7016 38.7023 47.835 38.4906 47.9575L37.8489 48.3185C37.6371 48.4425 37.4128 48.543 37.1947 48.656L36.8653 48.8224C36.7555 48.8757 36.641 48.9228 36.5296 48.973C36.3037 49.0704 36.0825 49.1755 35.855 49.2681C35.3954 49.4439 34.9388 49.6276 34.4682 49.7673C34.0039 49.929 33.5222 50.0373 33.0485 50.166L32.3253 50.3135L31.9629 50.3857L31.5974 50.4407C30.6247 50.5866 29.6411 50.6541 28.6575 50.6447C26.6918 50.6259 24.7324 50.3025 22.8624 49.7014C21.9274 49.4 21.016 49.028 20.1375 48.59C19.2605 48.1474 18.4149 47.6435 17.6102 47.0832C14.4005 44.8229 11.8559 41.627 10.4126 37.9713L10.3311 37.7625L10.5115 37.6323C13.2082 35.6812 16.4508 34.5557 19.7437 34.2638C23.0413 33.9718 26.4031 34.5243 29.4419 35.8177C30.9604 36.4676 32.3974 37.3011 33.734 38.268C35.0675 39.2396 36.2864 40.3603 37.4002 41.5721C39.6169 44.0098 41.3802 46.832 42.7231 49.8254C43.3992 51.3212 43.9656 52.8658 44.4331 54.4386C44.6731 55.2234 44.8723 56.0192 45.0621 56.8166C45.2378 57.6171 45.4026 58.4224 45.5265 59.2323C45.7728 60.8522 45.9642 62.4768 46.1069 64.1061C46.1885 64.9192 46.2419 65.7354 46.3077 66.5501C46.3595 67.3663 46.4223 68.1809 46.4631 68.9972C46.6466 72.2605 46.7501 75.5269 46.7831 78.795C46.8207 82.0614 46.7847 85.3294 46.6592 88.5943C46.7015 86.9619 46.7188 85.3279 46.7188 83.6954C46.7125 82.063 46.6984 80.429 46.6623 78.7965C46.5964 75.5316 46.4615 72.2683 46.2466 69.0097C46.1979 68.1951 46.1273 67.382 46.0677 66.5673C45.9924 65.7542 45.9328 64.9412 45.8434 64.1296C45.6849 62.5066 45.4779 60.8867 45.2175 59.281C44.9476 57.6768 44.5711 56.0914 44.0973 54.5359C43.6251 52.9804 43.0557 51.4547 42.378 49.9776C41.0335 47.0235 39.2734 44.2468 37.0787 41.8625C35.9758 40.6774 34.7741 39.5833 33.4611 38.64C32.1464 37.6998 30.7377 36.8945 29.2505 36.2682C26.2745 35.0235 23.0005 34.5071 19.7923 34.81C16.592 35.1145 13.5486 35.9865 10.9492 37.8779C12.3563 41.4206 14.8366 44.4038 17.9537 46.5903C18.7365 47.1334 19.557 47.62 20.4073 48.0469C21.2591 48.4692 22.1439 48.8286 23.0507 49.119C24.8642 49.6982 26.7624 50.0074 28.6637 50.0216C29.6144 50.0294 30.5651 49.9619 31.5032 49.8191L31.8546 49.7657L32.2045 49.6951L32.9026 49.5507C33.3607 49.4251 33.825 49.3215 34.2737 49.163C34.7286 49.0264 35.1695 48.8475 35.6134 48.6779C35.833 48.5885 36.048 48.4864 36.266 48.3907C36.3743 48.342 36.4841 48.2965 36.5908 48.2431L36.9092 48.0815C37.1194 47.9716 37.3375 47.8727 37.543 47.7518L38.1642 47.4002C38.3698 47.2794 38.569 47.1491 38.7729 47.0235C38.9769 46.9011 39.1745 46.7661 39.3706 46.6311C40.1644 46.1006 40.9221 45.5151 41.6579 44.9029C42.3968 44.2939 43.109 43.6472 43.8071 42.9864C45.2065 41.6663 46.5399 40.2693 47.9016 38.8927C49.2618 37.5145 50.6454 36.1474 52.1263 34.8791C52.8637 34.2418 53.6355 33.6406 54.4277 33.0677C55.22 32.4948 56.0561 31.9784 56.9095 31.4996C58.6242 30.5562 60.4408 29.8028 62.3155 29.244C64.1933 28.6978 66.1261 28.3352 68.0776 28.2018C71.9776 27.9412 75.9325 28.4623 79.6128 29.7871C83.2916 31.1072 86.688 33.1964 89.5369 35.8711L89.6828 36.0077L89.6075 36.1897C89.2027 37.1551 88.7541 38.1016 88.2536 39.0214C87.7422 39.935 87.1916 40.8249 86.5876 41.6804C85.9758 42.5296 85.3279 43.3521 84.6329 44.1322C83.9317 44.9076 83.199 45.6548 82.4225 46.3548C79.3179 49.1567 75.6093 51.2726 71.6325 52.5346C67.6556 53.7966 63.4137 54.2173 59.2721 53.7307C55.1305 53.2551 51.1019 51.8471 47.5643 49.6511L47.3933 49.546L47.5455 49.4172C49.29 47.9324 50.8854 46.2764 52.5091 44.6455C54.1344 43.0209 55.7941 41.4057 57.6735 40.0605C59.5435 38.7075 61.6394 37.6746 63.8372 36.9871C64.9369 36.6465 66.0618 36.3828 67.1991 36.2149C68.3349 36.0485 69.4864 35.9669 70.6347 35.97Z"/>
</mask>
<path d="M70.6347 35.97C69.4848 35.981 68.338 36.0767 67.2038 36.2588C66.0696 36.4409 64.9526 36.7187 63.8623 37.0719C61.6833 37.7861 59.6078 38.8268 57.7661 40.1892C55.9134 41.5423 54.2771 43.1653 52.6691 44.804C51.0643 46.4475 49.4626 48.0312 47.7165 49.546C51.2415 51.6791 55.2231 52.9082 59.3145 53.3524C63.4027 53.8092 67.585 53.3681 71.4928 52.1014C75.4022 50.8362 79.0371 48.7313 82.0679 45.964C85.0988 43.1983 87.5963 40.0888 89.1431 36.2918C86.346 33.6767 83.0155 31.6377 79.412 30.3522C75.8085 29.0619 71.9337 28.5596 68.1231 28.8218C66.2155 28.9552 64.3283 29.3146 62.4944 29.8515C60.6636 30.4008 58.8909 31.1402 57.2186 32.0647C56.3887 32.534 55.5776 33.0363 54.8027 33.5982C54.0293 34.1602 53.2747 34.7488 52.5499 35.3782C51.0956 36.6293 49.7277 37.987 48.3738 39.3636C47.0184 40.7386 45.6724 42.134 44.2574 43.4682C43.5498 44.1354 42.8266 44.7883 42.0736 45.4083C41.3222 46.0315 40.5472 46.628 39.7314 47.1711C39.5291 47.3092 39.3267 47.4473 39.1165 47.5729C38.9078 47.7016 38.7023 47.835 38.4906 47.9575L37.8489 48.3185C37.6371 48.4425 37.4128 48.543 37.1947 48.656L36.8653 48.8224C36.7555 48.8757 36.641 48.9228 36.5296 48.973C36.3037 49.0704 36.0825 49.1755 35.855 49.2681C35.3954 49.4439 34.9388 49.6276 34.4682 49.7673C34.0039 49.929 33.5222 50.0373 33.0485 50.166L32.3253 50.3135L31.9629 50.3857L31.5974 50.4407C30.6247 50.5866 29.6411 50.6541 28.6575 50.6447C26.6918 50.6259 24.7324 50.3025 22.8624 49.7014C21.9274 49.4 21.016 49.028 20.1375 48.59C19.2605 48.1474 18.4149 47.6435 17.6102 47.0832C14.4005 44.8229 11.8559 41.627 10.4126 37.9713L10.3311 37.7625L10.5115 37.6323C13.2082 35.6812 16.4508 34.5557 19.7437 34.2638C23.0413 33.9718 26.4031 34.5243 29.4419 35.8177C30.9604 36.4676 32.3974 37.3011 33.734 38.268C35.0675 39.2396 36.2864 40.3603 37.4002 41.5721C39.6169 44.0098 41.3802 46.832 42.7231 49.8254C43.3992 51.3212 43.9656 52.8658 44.4331 54.4386C44.6731 55.2234 44.8723 56.0192 45.0621 56.8166C45.2378 57.6171 45.4026 58.4224 45.5265 59.2323C45.7728 60.8522 45.9642 62.4768 46.1069 64.1061C46.1885 64.9192 46.2419 65.7354 46.3077 66.5501C46.3595 67.3663 46.4223 68.1809 46.4631 68.9972C46.6466 72.2605 46.7501 75.5269 46.7831 78.795C46.8207 82.0614 46.7847 85.3294 46.6592 88.5943C46.7015 86.9619 46.7188 85.3279 46.7188 83.6954C46.7125 82.063 46.6984 80.429 46.6623 78.7965C46.5964 75.5316 46.4615 72.2683 46.2466 69.0097C46.1979 68.1951 46.1273 67.382 46.0677 66.5673C45.9924 65.7542 45.9328 64.9412 45.8434 64.1296C45.6849 62.5066 45.4779 60.8867 45.2175 59.281C44.9476 57.6768 44.5711 56.0914 44.0973 54.5359C43.6251 52.9804 43.0557 51.4547 42.378 49.9776C41.0335 47.0235 39.2734 44.2468 37.0787 41.8625C35.9758 40.6774 34.7741 39.5833 33.4611 38.64C32.1464 37.6998 30.7377 36.8945 29.2505 36.2682C26.2745 35.0235 23.0005 34.5071 19.7923 34.81C16.592 35.1145 13.5486 35.9865 10.9492 37.8779C12.3563 41.4206 14.8366 44.4038 17.9537 46.5903C18.7365 47.1334 19.557 47.62 20.4073 48.0469C21.2591 48.4692 22.1439 48.8286 23.0507 49.119C24.8642 49.6982 26.7624 50.0074 28.6637 50.0216C29.6144 50.0294 30.5651 49.9619 31.5032 49.8191L31.8546 49.7657L32.2045 49.6951L32.9026 49.5507C33.3607 49.4251 33.825 49.3215 34.2737 49.163C34.7286 49.0264 35.1695 48.8475 35.6134 48.6779C35.833 48.5885 36.048 48.4864 36.266 48.3907C36.3743 48.342 36.4841 48.2965 36.5908 48.2431L36.9092 48.0815C37.1194 47.9716 37.3375 47.8727 37.543 47.7518L38.1642 47.4002C38.3698 47.2794 38.569 47.1491 38.7729 47.0235C38.9769 46.9011 39.1745 46.7661 39.3706 46.6311C40.1644 46.1006 40.9221 45.5151 41.6579 44.9029C42.3968 44.2939 43.109 43.6472 43.8071 42.9864C45.2065 41.6663 46.5399 40.2693 47.9016 38.8927C49.2618 37.5145 50.6454 36.1474 52.1263 34.8791C52.8637 34.2418 53.6355 33.6406 54.4277 33.0677C55.22 32.4948 56.0561 31.9784 56.9095 31.4996C58.6242 30.5562 60.4408 29.8028 62.3155 29.244C64.1933 28.6978 66.1261 28.3352 68.0776 28.2018C71.9776 27.9412 75.9325 28.4623 79.6128 29.7871C83.2916 31.1072 86.688 33.1964 89.5369 35.8711L89.6828 36.0077L89.6075 36.1897C89.2027 37.1551 88.7541 38.1016 88.2536 39.0214C87.7422 39.935 87.1916 40.8249 86.5876 41.6804C85.9758 42.5296 85.3279 43.3521 84.6329 44.1322C83.9317 44.9076 83.199 45.6548 82.4225 46.3548C79.3179 49.1567 75.6093 51.2726 71.6325 52.5346C67.6556 53.7966 63.4137 54.2173 59.2721 53.7307C55.1305 53.2551 51.1019 51.8471 47.5643 49.6511L47.3933 49.546L47.5455 49.4172C49.29 47.9324 50.8854 46.2764 52.5091 44.6455C54.1344 43.0209 55.7941 41.4057 57.6735 40.0605C59.5435 38.7075 61.6394 37.6746 63.8372 36.9871C64.9369 36.6465 66.0618 36.3828 67.1991 36.2149C68.3349 36.0485 69.4864 35.9669 70.6347 35.97Z" fill="white"/>
<path d="M70.6347 35.97C69.4848 35.981 68.338 36.0767 67.2038 36.2588C66.0696 36.4409 64.9526 36.7187 63.8623 37.0719C61.6833 37.7861 59.6078 38.8268 57.7661 40.1892C55.9134 41.5423 54.2771 43.1653 52.6691 44.804C51.0643 46.4475 49.4626 48.0312 47.7165 49.546C51.2415 51.6791 55.2231 52.9082 59.3145 53.3524C63.4027 53.8092 67.585 53.3681 71.4928 52.1014C75.4022 50.8362 79.0371 48.7313 82.0679 45.964C85.0988 43.1983 87.5963 40.0888 89.1431 36.2918C86.346 33.6767 83.0155 31.6377 79.412 30.3522C75.8085 29.0619 71.9337 28.5596 68.1231 28.8218C66.2155 28.9552 64.3283 29.3146 62.4944 29.8515C60.6636 30.4008 58.8909 31.1402 57.2186 32.0647C56.3887 32.534 55.5776 33.0363 54.8027 33.5982C54.0293 34.1602 53.2747 34.7488 52.5499 35.3782C51.0956 36.6293 49.7277 37.987 48.3738 39.3636C47.0184 40.7386 45.6724 42.134 44.2574 43.4682C43.5498 44.1354 42.8266 44.7883 42.0736 45.4083C41.3222 46.0315 40.5472 46.628 39.7314 47.1711C39.5291 47.3092 39.3267 47.4473 39.1165 47.5729C38.9078 47.7016 38.7023 47.835 38.4906 47.9575L37.8489 48.3185C37.6371 48.4425 37.4128 48.543 37.1947 48.656L36.8653 48.8224C36.7555 48.8757 36.641 48.9228 36.5296 48.973C36.3037 49.0704 36.0825 49.1755 35.855 49.2681C35.3954 49.4439 34.9388 49.6276 34.4682 49.7673C34.0039 49.929 33.5222 50.0373 33.0485 50.166L32.3253 50.3135L31.9629 50.3857L31.5974 50.4407C30.6247 50.5866 29.6411 50.6541 28.6575 50.6447C26.6918 50.6259 24.7324 50.3025 22.8624 49.7014C21.9274 49.4 21.016 49.028 20.1375 48.59C19.2605 48.1474 18.4149 47.6435 17.6102 47.0832C14.4005 44.8229 11.8559 41.627 10.4126 37.9713L10.3311 37.7625L10.5115 37.6323C13.2082 35.6812 16.4508 34.5557 19.7437 34.2638C23.0413 33.9718 26.4031 34.5243 29.4419 35.8177C30.9604 36.4676 32.3974 37.3011 33.734 38.268C35.0675 39.2396 36.2864 40.3603 37.4002 41.5721C39.6169 44.0098 41.3802 46.832 42.7231 49.8254C43.3992 51.3212 43.9656 52.8658 44.4331 54.4386C44.6731 55.2234 44.8723 56.0192 45.0621 56.8166C45.2378 57.6171 45.4026 58.4224 45.5265 59.2323C45.7728 60.8522 45.9642 62.4768 46.1069 64.1061C46.1885 64.9192 46.2419 65.7354 46.3077 66.5501C46.3595 67.3663 46.4223 68.1809 46.4631 68.9972C46.6466 72.2605 46.7501 75.5269 46.7831 78.795C46.8207 82.0614 46.7847 85.3294 46.6592 88.5943C46.7015 86.9619 46.7188 85.3279 46.7188 83.6954C46.7125 82.063 46.6984 80.429 46.6623 78.7965C46.5964 75.5316 46.4615 72.2683 46.2466 69.0097C46.1979 68.1951 46.1273 67.382 46.0677 66.5673C45.9924 65.7542 45.9328 64.9412 45.8434 64.1296C45.6849 62.5066 45.4779 60.8867 45.2175 59.281C44.9476 57.6768 44.5711 56.0914 44.0973 54.5359C43.6251 52.9804 43.0557 51.4547 42.378 49.9776C41.0335 47.0235 39.2734 44.2468 37.0787 41.8625C35.9758 40.6774 34.7741 39.5833 33.4611 38.64C32.1464 37.6998 30.7377 36.8945 29.2505 36.2682C26.2745 35.0235 23.0005 34.5071 19.7923 34.81C16.592 35.1145 13.5486 35.9865 10.9492 37.8779C12.3563 41.4206 14.8366 44.4038 17.9537 46.5903C18.7365 47.1334 19.557 47.62 20.4073 48.0469C21.2591 48.4692 22.1439 48.8286 23.0507 49.119C24.8642 49.6982 26.7624 50.0074 28.6637 50.0216C29.6144 50.0294 30.5651 49.9619 31.5032 49.8191L31.8546 49.7657L32.2045 49.6951L32.9026 49.5507C33.3607 49.4251 33.825 49.3215 34.2737 49.163C34.7286 49.0264 35.1695 48.8475 35.6134 48.6779C35.833 48.5885 36.048 48.4864 36.266 48.3907C36.3743 48.342 36.4841 48.2965 36.5908 48.2431L36.9092 48.0815C37.1194 47.9716 37.3375 47.8727 37.543 47.7518L38.1642 47.4002C38.3698 47.2794 38.569 47.1491 38.7729 47.0235C38.9769 46.9011 39.1745 46.7661 39.3706 46.6311C40.1644 46.1006 40.9221 45.5151 41.6579 44.9029C42.3968 44.2939 43.109 43.6472 43.8071 42.9864C45.2065 41.6663 46.5399 40.2693 47.9016 38.8927C49.2618 37.5145 50.6454 36.1474 52.1263 34.8791C52.8637 34.2418 53.6355 33.6406 54.4277 33.0677C55.22 32.4948 56.0561 31.9784 56.9095 31.4996C58.6242 30.5562 60.4408 29.8028 62.3155 29.244C64.1933 28.6978 66.1261 28.3352 68.0776 28.2018C71.9776 27.9412 75.9325 28.4623 79.6128 29.7871C83.2916 31.1072 86.688 33.1964 89.5369 35.8711L89.6828 36.0077L89.6075 36.1897C89.2027 37.1551 88.7541 38.1016 88.2536 39.0214C87.7422 39.935 87.1916 40.8249 86.5876 41.6804C85.9758 42.5296 85.3279 43.3521 84.6329 44.1322C83.9317 44.9076 83.199 45.6548 82.4225 46.3548C79.3179 49.1567 75.6093 51.2726 71.6325 52.5346C67.6556 53.7966 63.4137 54.2173 59.2721 53.7307C55.1305 53.2551 51.1019 51.8471 47.5643 49.6511L47.3933 49.546L47.5455 49.4172C49.29 47.9324 50.8854 46.2764 52.5091 44.6455C54.1344 43.0209 55.7941 41.4057 57.6735 40.0605C59.5435 38.7075 61.6394 37.6746 63.8372 36.9871C64.9369 36.6465 66.0618 36.3828 67.1991 36.2149C68.3349 36.0485 69.4864 35.9669 70.6347 35.97Z" stroke="white" stroke-width="1.05682" mask="url(#path-2-outside-1_0_1)"/>
</g>
<g filter="url(#filter1_d_0_1)">
<circle cx="82" cy="82" r="18" fill="url(#paint1_linear_0_1)"/>
<mask id="path-4-outside-2_0_1" maskUnits="userSpaceOnUse" x="66.7188" y="73.1289" width="30" height="23" fill="black">
<rect fill="white" x="66.7188" y="73.1289" width="30" height="23"/>
<path d="M89.4281 76.9489C89.0141 76.9528 88.6013 76.9873 88.1929 77.0529C87.7846 77.1184 87.3825 77.2184 86.99 77.3456C86.2056 77.6027 85.4584 77.9773 84.7954 78.4678C84.1284 78.9549 83.5393 79.5392 82.9605 80.1291C82.3827 80.7208 81.8061 81.2909 81.1775 81.8362C82.4465 82.6042 83.8799 83.0466 85.3528 83.2065C86.8245 83.371 88.3302 83.2122 89.737 82.7562C91.1444 82.3007 92.4529 81.543 93.544 80.5467C94.6351 79.5511 95.5342 78.4316 96.0911 77.0647C95.0841 76.1233 93.8851 75.3893 92.5879 74.9265C91.2906 74.462 89.8957 74.2812 88.5239 74.3755C87.8371 74.4236 87.1577 74.553 86.4975 74.7462C85.8385 74.944 85.2003 75.2101 84.5983 75.543C84.2995 75.7119 84.0075 75.8928 83.7285 76.0951C83.4501 76.2974 83.1785 76.5093 82.9175 76.7359C82.394 77.1862 81.9015 77.675 81.4141 78.1706C80.9262 78.6656 80.4416 79.1679 79.9322 79.6483C79.6775 79.8884 79.4172 80.1235 79.1461 80.3467C78.8756 80.571 78.5966 80.7858 78.3029 80.9813C78.23 81.031 78.1572 81.0807 78.0815 81.1259C78.0064 81.1723 77.9324 81.2203 77.8562 81.2644L77.6252 81.3943C77.5489 81.439 77.4682 81.4752 77.3897 81.5158L77.2711 81.5757C77.2315 81.5949 77.1903 81.6119 77.1502 81.63C77.0689 81.665 76.9893 81.7029 76.9074 81.7362C76.7419 81.7995 76.5776 81.8656 76.4081 81.9159C76.241 81.9741 76.0676 82.0131 75.897 82.0594L75.6367 82.1126L75.5062 82.1385L75.3746 82.1583C75.0245 82.2109 74.6704 82.2352 74.3163 82.2318C73.6086 82.225 72.9032 82.1086 72.23 81.8922C71.8934 81.7837 71.5653 81.6498 71.2491 81.4921C70.9334 81.3327 70.629 81.1514 70.3392 80.9496C69.1837 80.1359 68.2677 78.9854 67.7481 77.6694L67.7188 77.5942L67.7837 77.5473C68.7545 76.8449 69.9219 76.4398 71.1073 76.3346C72.2944 76.2295 73.5047 76.4284 74.5986 76.8941C75.1453 77.128 75.6626 77.4281 76.1438 77.7762C76.6239 78.1259 77.0627 78.5294 77.4637 78.9656C78.2617 79.8432 78.8965 80.8592 79.3799 81.9368C79.6233 82.4753 79.8272 83.0314 79.9955 83.5976C80.0819 83.8801 80.1536 84.1666 80.2219 84.4537C80.2852 84.7419 80.3445 85.0317 80.3891 85.3233C80.4778 85.9065 80.5467 86.4913 80.5981 87.0779C80.6274 87.3706 80.6466 87.6644 80.6704 87.9577C80.689 88.2515 80.7116 88.5448 80.7263 88.8387C80.7923 90.0135 80.8296 91.1894 80.8415 92.3659C80.855 93.5418 80.842 94.7183 80.7969 95.8936C80.8121 95.306 80.8183 94.7177 80.8183 94.13C80.8161 93.5424 80.811 92.9541 80.798 92.3664C80.7743 91.1911 80.7257 90.0163 80.6483 88.8432C80.6308 88.5499 80.6054 88.2572 80.584 87.9639C80.5568 87.6712 80.5354 87.3785 80.5032 87.0864C80.4462 86.5021 80.3716 85.9189 80.2779 85.3408C80.1807 84.7633 80.0452 84.1926 79.8746 83.6326C79.7046 83.0726 79.4996 82.5234 79.2556 81.9916C78.7716 80.9282 78.138 79.9285 77.3479 79.0702C76.9509 78.6435 76.5183 78.2497 76.0456 77.9101C75.5723 77.5716 75.0651 77.2817 74.5297 77.0562C73.4584 76.6081 72.2797 76.4222 71.1248 76.5313C69.9727 76.6409 68.8771 76.9548 67.9413 77.6357C68.4479 78.9111 69.3407 79.985 70.4629 80.7722C70.7447 80.9677 71.0401 81.1429 71.3462 81.2966C71.6529 81.4486 71.9714 81.578 72.2978 81.6825C72.9507 81.891 73.634 82.0024 74.3185 82.0075C74.6608 82.0103 75.003 81.986 75.3407 81.9346L75.4672 81.9153L75.5932 81.8899L75.8445 81.8379C76.0094 81.7927 76.1766 81.7554 76.3381 81.6984C76.5019 81.6492 76.6606 81.5848 76.8204 81.5237C76.8995 81.4915 76.9768 81.4548 77.0553 81.4203C77.0943 81.4028 77.1338 81.3864 77.1722 81.3672L77.2869 81.309C77.3626 81.2695 77.4411 81.2339 77.5151 81.1904L77.7387 81.0638C77.8127 81.0203 77.8844 80.9734 77.9578 80.9282C78.0312 80.8841 78.1024 80.8355 78.173 80.7869C78.4588 80.5959 78.7315 80.3851 78.9964 80.1647C79.2624 79.9455 79.5188 79.7127 79.7701 79.4748C80.2739 78.9995 80.7539 78.4966 81.2442 78.0011C81.7338 77.5049 82.2319 77.0127 82.765 76.5562C83.0305 76.3267 83.3083 76.1103 83.5936 75.9041C83.8788 75.6978 84.1798 75.5119 84.487 75.3395C85.1043 74.9999 85.7583 74.7287 86.4332 74.5275C87.1092 74.3309 87.805 74.2004 88.5075 74.1523C89.9115 74.0585 91.3353 74.2461 92.6602 74.723C93.9845 75.1983 95.2072 75.9504 96.2329 76.9133L96.2854 76.9624L96.2583 77.028C96.1126 77.3755 95.951 77.7163 95.7709 78.0474C95.5868 78.3763 95.3885 78.6967 95.1711 79.0046C94.9508 79.3103 94.7176 79.6064 94.4674 79.8873C94.215 80.1664 93.9512 80.4354 93.6717 80.6874C92.554 81.6961 91.2189 82.4578 89.7873 82.9121C88.3556 83.3665 86.8285 83.5179 85.3375 83.3427C83.8466 83.1715 82.3963 82.6646 81.1227 81.8741L81.0612 81.8362L81.116 81.7899C81.744 81.2553 82.3183 80.6592 82.9029 80.0721C83.4879 79.4872 84.0855 78.9057 84.762 78.4215C85.4352 77.9344 86.1897 77.5626 86.981 77.3151C87.3769 77.1924 87.7818 77.0975 88.1913 77.037C88.6001 76.9771 89.0147 76.9478 89.4281 76.9489Z"/>
</mask>
<path d="M89.4281 76.9489C89.0141 76.9528 88.6013 76.9873 88.1929 77.0529C87.7846 77.1184 87.3825 77.2184 86.99 77.3456C86.2056 77.6027 85.4584 77.9773 84.7954 78.4678C84.1284 78.9549 83.5393 79.5392 82.9605 80.1291C82.3827 80.7208 81.8061 81.2909 81.1775 81.8362C82.4465 82.6042 83.8799 83.0466 85.3528 83.2065C86.8245 83.371 88.3302 83.2122 89.737 82.7562C91.1444 82.3007 92.4529 81.543 93.544 80.5467C94.6351 79.5511 95.5342 78.4316 96.0911 77.0647C95.0841 76.1233 93.8851 75.3893 92.5879 74.9265C91.2906 74.462 89.8957 74.2812 88.5239 74.3755C87.8371 74.4236 87.1577 74.553 86.4975 74.7462C85.8385 74.944 85.2003 75.2101 84.5983 75.543C84.2995 75.7119 84.0075 75.8928 83.7285 76.0951C83.4501 76.2974 83.1785 76.5093 82.9175 76.7359C82.394 77.1862 81.9015 77.675 81.4141 78.1706C80.9262 78.6656 80.4416 79.1679 79.9322 79.6483C79.6775 79.8884 79.4172 80.1235 79.1461 80.3467C78.8756 80.571 78.5966 80.7858 78.3029 80.9813C78.23 81.031 78.1572 81.0807 78.0815 81.1259C78.0064 81.1723 77.9324 81.2203 77.8562 81.2644L77.6252 81.3943C77.5489 81.439 77.4682 81.4752 77.3897 81.5158L77.2711 81.5757C77.2315 81.5949 77.1903 81.6119 77.1502 81.63C77.0689 81.665 76.9893 81.7029 76.9074 81.7362C76.7419 81.7995 76.5776 81.8656 76.4081 81.9159C76.241 81.9741 76.0676 82.0131 75.897 82.0594L75.6367 82.1126L75.5062 82.1385L75.3746 82.1583C75.0245 82.2109 74.6704 82.2352 74.3163 82.2318C73.6086 82.225 72.9032 82.1086 72.23 81.8922C71.8934 81.7837 71.5653 81.6498 71.2491 81.4921C70.9334 81.3327 70.629 81.1514 70.3392 80.9496C69.1837 80.1359 68.2677 78.9854 67.7481 77.6694L67.7188 77.5942L67.7837 77.5473C68.7545 76.8449 69.9219 76.4398 71.1073 76.3346C72.2944 76.2295 73.5047 76.4284 74.5986 76.8941C75.1453 77.128 75.6626 77.4281 76.1438 77.7762C76.6239 78.1259 77.0627 78.5294 77.4637 78.9656C78.2617 79.8432 78.8965 80.8592 79.3799 81.9368C79.6233 82.4753 79.8272 83.0314 79.9955 83.5976C80.0819 83.8801 80.1536 84.1666 80.2219 84.4537C80.2852 84.7419 80.3445 85.0317 80.3891 85.3233C80.4778 85.9065 80.5467 86.4913 80.5981 87.0779C80.6274 87.3706 80.6466 87.6644 80.6704 87.9577C80.689 88.2515 80.7116 88.5448 80.7263 88.8387C80.7923 90.0135 80.8296 91.1894 80.8415 92.3659C80.855 93.5418 80.842 94.7183 80.7969 95.8936C80.8121 95.306 80.8183 94.7177 80.8183 94.13C80.8161 93.5424 80.811 92.9541 80.798 92.3664C80.7743 91.1911 80.7257 90.0163 80.6483 88.8432C80.6308 88.5499 80.6054 88.2572 80.584 87.9639C80.5568 87.6712 80.5354 87.3785 80.5032 87.0864C80.4462 86.5021 80.3716 85.9189 80.2779 85.3408C80.1807 84.7633 80.0452 84.1926 79.8746 83.6326C79.7046 83.0726 79.4996 82.5234 79.2556 81.9916C78.7716 80.9282 78.138 79.9285 77.3479 79.0702C76.9509 78.6435 76.5183 78.2497 76.0456 77.9101C75.5723 77.5716 75.0651 77.2817 74.5297 77.0562C73.4584 76.6081 72.2797 76.4222 71.1248 76.5313C69.9727 76.6409 68.8771 76.9548 67.9413 77.6357C68.4479 78.9111 69.3407 79.985 70.4629 80.7722C70.7447 80.9677 71.0401 81.1429 71.3462 81.2966C71.6529 81.4486 71.9714 81.578 72.2978 81.6825C72.9507 81.891 73.634 82.0024 74.3185 82.0075C74.6608 82.0103 75.003 81.986 75.3407 81.9346L75.4672 81.9153L75.5932 81.8899L75.8445 81.8379C76.0094 81.7927 76.1766 81.7554 76.3381 81.6984C76.5019 81.6492 76.6606 81.5848 76.8204 81.5237C76.8995 81.4915 76.9768 81.4548 77.0553 81.4203C77.0943 81.4028 77.1338 81.3864 77.1722 81.3672L77.2869 81.309C77.3626 81.2695 77.4411 81.2339 77.5151 81.1904L77.7387 81.0638C77.8127 81.0203 77.8844 80.9734 77.9578 80.9282C78.0312 80.8841 78.1024 80.8355 78.173 80.7869C78.4588 80.5959 78.7315 80.3851 78.9964 80.1647C79.2624 79.9455 79.5188 79.7127 79.7701 79.4748C80.2739 78.9995 80.7539 78.4966 81.2442 78.0011C81.7338 77.5049 82.2319 77.0127 82.765 76.5562C83.0305 76.3267 83.3083 76.1103 83.5936 75.9041C83.8788 75.6978 84.1798 75.5119 84.487 75.3395C85.1043 74.9999 85.7583 74.7287 86.4332 74.5275C87.1092 74.3309 87.805 74.2004 88.5075 74.1523C89.9115 74.0585 91.3353 74.2461 92.6602 74.723C93.9845 75.1983 95.2072 75.9504 96.2329 76.9133L96.2854 76.9624L96.2583 77.028C96.1126 77.3755 95.951 77.7163 95.7709 78.0474C95.5868 78.3763 95.3885 78.6967 95.1711 79.0046C94.9508 79.3103 94.7176 79.6064 94.4674 79.8873C94.215 80.1664 93.9512 80.4354 93.6717 80.6874C92.554 81.6961 91.2189 82.4578 89.7873 82.9121C88.3556 83.3665 86.8285 83.5179 85.3375 83.3427C83.8466 83.1715 82.3963 82.6646 81.1227 81.8741L81.0612 81.8362L81.116 81.7899C81.744 81.2553 82.3183 80.6592 82.9029 80.0721C83.4879 79.4872 84.0855 78.9057 84.762 78.4215C85.4352 77.9344 86.1897 77.5626 86.981 77.3151C87.3769 77.1924 87.7818 77.0975 88.1913 77.037C88.6001 76.9771 89.0147 76.9478 89.4281 76.9489Z" fill="white"/>
<path d="M89.4281 76.9489C89.0141 76.9528 88.6013 76.9873 88.1929 77.0529C87.7846 77.1184 87.3825 77.2184 86.99 77.3456C86.2056 77.6027 85.4584 77.9773 84.7954 78.4678C84.1284 78.9549 83.5393 79.5392 82.9605 80.1291C82.3827 80.7208 81.8061 81.2909 81.1775 81.8362C82.4465 82.6042 83.8799 83.0466 85.3528 83.2065C86.8245 83.371 88.3302 83.2122 89.737 82.7562C91.1444 82.3007 92.4529 81.543 93.544 80.5467C94.6351 79.5511 95.5342 78.4316 96.0911 77.0647C95.0841 76.1233 93.8851 75.3893 92.5879 74.9265C91.2906 74.462 89.8957 74.2812 88.5239 74.3755C87.8371 74.4236 87.1577 74.553 86.4975 74.7462C85.8385 74.944 85.2003 75.2101 84.5983 75.543C84.2995 75.7119 84.0075 75.8928 83.7285 76.0951C83.4501 76.2974 83.1785 76.5093 82.9175 76.7359C82.394 77.1862 81.9015 77.675 81.4141 78.1706C80.9262 78.6656 80.4416 79.1679 79.9322 79.6483C79.6775 79.8884 79.4172 80.1235 79.1461 80.3467C78.8756 80.571 78.5966 80.7858 78.3029 80.9813C78.23 81.031 78.1572 81.0807 78.0815 81.1259C78.0064 81.1723 77.9324 81.2203 77.8562 81.2644L77.6252 81.3943C77.5489 81.439 77.4682 81.4752 77.3897 81.5158L77.2711 81.5757C77.2315 81.5949 77.1903 81.6119 77.1502 81.63C77.0689 81.665 76.9893 81.7029 76.9074 81.7362C76.7419 81.7995 76.5776 81.8656 76.4081 81.9159C76.241 81.9741 76.0676 82.0131 75.897 82.0594L75.6367 82.1126L75.5062 82.1385L75.3746 82.1583C75.0245 82.2109 74.6704 82.2352 74.3163 82.2318C73.6086 82.225 72.9032 82.1086 72.23 81.8922C71.8934 81.7837 71.5653 81.6498 71.2491 81.4921C70.9334 81.3327 70.629 81.1514 70.3392 80.9496C69.1837 80.1359 68.2677 78.9854 67.7481 77.6694L67.7188 77.5942L67.7837 77.5473C68.7545 76.8449 69.9219 76.4398 71.1073 76.3346C72.2944 76.2295 73.5047 76.4284 74.5986 76.8941C75.1453 77.128 75.6626 77.4281 76.1438 77.7762C76.6239 78.1259 77.0627 78.5294 77.4637 78.9656C78.2617 79.8432 78.8965 80.8592 79.3799 81.9368C79.6233 82.4753 79.8272 83.0314 79.9955 83.5976C80.0819 83.8801 80.1536 84.1666 80.2219 84.4537C80.2852 84.7419 80.3445 85.0317 80.3891 85.3233C80.4778 85.9065 80.5467 86.4913 80.5981 87.0779C80.6274 87.3706 80.6466 87.6644 80.6704 87.9577C80.689 88.2515 80.7116 88.5448 80.7263 88.8387C80.7923 90.0135 80.8296 91.1894 80.8415 92.3659C80.855 93.5418 80.842 94.7183 80.7969 95.8936C80.8121 95.306 80.8183 94.7177 80.8183 94.13C80.8161 93.5424 80.811 92.9541 80.798 92.3664C80.7743 91.1911 80.7257 90.0163 80.6483 88.8432C80.6308 88.5499 80.6054 88.2572 80.584 87.9639C80.5568 87.6712 80.5354 87.3785 80.5032 87.0864C80.4462 86.5021 80.3716 85.9189 80.2779 85.3408C80.1807 84.7633 80.0452 84.1926 79.8746 83.6326C79.7046 83.0726 79.4996 82.5234 79.2556 81.9916C78.7716 80.9282 78.138 79.9285 77.3479 79.0702C76.9509 78.6435 76.5183 78.2497 76.0456 77.9101C75.5723 77.5716 75.0651 77.2817 74.5297 77.0562C73.4584 76.6081 72.2797 76.4222 71.1248 76.5313C69.9727 76.6409 68.8771 76.9548 67.9413 77.6357C68.4479 78.9111 69.3407 79.985 70.4629 80.7722C70.7447 80.9677 71.0401 81.1429 71.3462 81.2966C71.6529 81.4486 71.9714 81.578 72.2978 81.6825C72.9507 81.891 73.634 82.0024 74.3185 82.0075C74.6608 82.0103 75.003 81.986 75.3407 81.9346L75.4672 81.9153L75.5932 81.8899L75.8445 81.8379C76.0094 81.7927 76.1766 81.7554 76.3381 81.6984C76.5019 81.6492 76.6606 81.5848 76.8204 81.5237C76.8995 81.4915 76.9768 81.4548 77.0553 81.4203C77.0943 81.4028 77.1338 81.3864 77.1722 81.3672L77.2869 81.309C77.3626 81.2695 77.4411 81.2339 77.5151 81.1904L77.7387 81.0638C77.8127 81.0203 77.8844 80.9734 77.9578 80.9282C78.0312 80.8841 78.1024 80.8355 78.173 80.7869C78.4588 80.5959 78.7315 80.3851 78.9964 80.1647C79.2624 79.9455 79.5188 79.7127 79.7701 79.4748C80.2739 78.9995 80.7539 78.4966 81.2442 78.0011C81.7338 77.5049 82.2319 77.0127 82.765 76.5562C83.0305 76.3267 83.3083 76.1103 83.5936 75.9041C83.8788 75.6978 84.1798 75.5119 84.487 75.3395C85.1043 74.9999 85.7583 74.7287 86.4332 74.5275C87.1092 74.3309 87.805 74.2004 88.5075 74.1523C89.9115 74.0585 91.3353 74.2461 92.6602 74.723C93.9845 75.1983 95.2072 75.9504 96.2329 76.9133L96.2854 76.9624L96.2583 77.028C96.1126 77.3755 95.951 77.7163 95.7709 78.0474C95.5868 78.3763 95.3885 78.6967 95.1711 79.0046C94.9508 79.3103 94.7176 79.6064 94.4674 79.8873C94.215 80.1664 93.9512 80.4354 93.6717 80.6874C92.554 81.6961 91.2189 82.4578 89.7873 82.9121C88.3556 83.3665 86.8285 83.5179 85.3375 83.3427C83.8466 83.1715 82.3963 82.6646 81.1227 81.8741L81.0612 81.8362L81.116 81.7899C81.744 81.2553 82.3183 80.6592 82.9029 80.0721C83.4879 79.4872 84.0855 78.9057 84.762 78.4215C85.4352 77.9344 86.1897 77.5626 86.981 77.3151C87.3769 77.1924 87.7818 77.0975 88.1913 77.037C88.6001 76.9771 89.0147 76.9478 89.4281 76.9489Z" stroke="white" stroke-width="0.72" mask="url(#path-4-outside-2_0_1)"/>
</g>
<defs>
<filter id="filter0_d_0_1" x="-23.619" y="-20.6667" width="147.238" height="147.238" filterUnits="userSpaceOnUse" color-interpolation-filters="sRGB">
<feFlood flood-opacity="0" result="BackgroundImageFix"/>
<feColorMatrix in="SourceAlpha" type="matrix" values="0 0 0 0 0 0 0 0 0 0 0 0 0 0 0 0 0 0 127 0" result="hardAlpha"/>
<feOffset dy="2.95238"/>
<feGaussianBlur stdDeviation="11.8095"/>
<feComposite in2="hardAlpha" operator="out"/>
<feColorMatrix type="matrix" values="0 0 0 0 0.104167 0 0 0 0 0.066116 0 0 0 0 0.030816 0 0 0 0.12 0"/>
<feBlend mode="normal" in2="BackgroundImageFix" result="effect1_dropShadow_0_1"/>
<feBlend mode="normal" in="SourceGraphic" in2="effect1_dropShadow_0_1" result="shape"/>
</filter>
<filter id="filter1_d_0_1" x="40.381" y="43.3333" width="83.2381" height="83.2381" filterUnits="userSpaceOnUse" color-interpolation-filters="sRGB">
<feFlood flood-opacity="0" result="BackgroundImageFix"/>
<feColorMatrix in="SourceAlpha" type="matrix" values="0 0 0 0 0 0 0 0 0 0 0 0 0 0 0 0 0 0 127 0" result="hardAlpha"/>
<feOffset dy="2.95238"/>
<feGaussianBlur stdDeviation="11.8095"/>
<feComposite in2="hardAlpha" operator="out"/>
<feColorMatrix type="matrix" values="0 0 0 0 0.104167 0 0 0 0 0.066116 0 0 0 0 0.030816 0 0 0 0.12 0"/>
<feBlend mode="normal" in2="BackgroundImageFix" result="effect1_dropShadow_0_1"/>
<feBlend mode="normal" in="SourceGraphic" in2="effect1_dropShadow_0_1" result="shape"/>
</filter>
<linearGradient id="paint0_linear_0_1" x1="5.78641e-07" y1="18.75" x2="103.376" y2="26.0587" gradientUnits="userSpaceOnUse">
<stop stop-color="#30C917"/>
<stop offset="1" stop-color="#279A13"/>
</linearGradient>
<linearGradient id="paint1_linear_0_1" x1="64" y1="70.75" x2="101.215" y2="73.3811" gradientUnits="userSpaceOnUse">
<stop stop-color="#30C917"/>
<stop offset="1" stop-color="#279A13"/>
</linearGradient>
</defs>
</svg>
